G04 EAGLE Gerber RS-274X export*
G75*
%MOMM*%
%FSLAX34Y34*%
%LPD*%
%IN*%
%IPPOS*%
%AMOC8*
5,1,8,0,0,1.08239X$1,22.5*%
G01*
G04 Define Apertures*
%ADD10C,0.254000*%
D10*
X368300Y-4520D02*
X368300Y4520D01*
X368078Y13557D01*
X367635Y22586D01*
X366970Y31602D01*
X366084Y40598D01*
X364977Y49570D01*
X363651Y58512D01*
X362105Y67419D01*
X360341Y76285D01*
X358361Y85105D01*
X356164Y93874D01*
X353753Y102587D01*
X351129Y111237D01*
X348293Y119821D01*
X345248Y128332D01*
X341995Y136766D01*
X338535Y145118D01*
X334872Y153383D01*
X331007Y161555D01*
X326942Y169629D01*
X322681Y177602D01*
X318225Y185467D01*
X313578Y193221D01*
X308741Y200858D01*
X303719Y208375D01*
X298514Y215766D01*
X293129Y223027D01*
X287567Y230153D01*
X281832Y237141D01*
X275928Y243986D01*
X269857Y250684D01*
X263624Y257231D01*
X257231Y263624D01*
X250684Y269857D01*
X243986Y275928D01*
X237141Y281832D01*
X230153Y287567D01*
X223027Y293129D01*
X215766Y298514D01*
X208375Y303719D01*
X200858Y308741D01*
X193221Y313578D01*
X185467Y318225D01*
X177602Y322681D01*
X169629Y326942D01*
X161555Y331007D01*
X153383Y334872D01*
X145118Y338535D01*
X136766Y341995D01*
X128332Y345248D01*
X119821Y348293D01*
X111237Y351129D01*
X102587Y353753D01*
X93874Y356164D01*
X85105Y358361D01*
X76285Y360341D01*
X67419Y362105D01*
X58512Y363651D01*
X49570Y364977D01*
X40598Y366084D01*
X31602Y366970D01*
X22586Y367635D01*
X13557Y368078D01*
X4520Y368300D01*
X-4520Y368300D01*
X-13557Y368078D01*
X-22586Y367635D01*
X-31602Y366970D01*
X-40598Y366084D01*
X-49570Y364977D01*
X-58512Y363651D01*
X-67419Y362105D01*
X-76285Y360341D01*
X-85105Y358361D01*
X-93874Y356164D01*
X-102587Y353753D01*
X-111237Y351129D01*
X-119821Y348293D01*
X-128332Y345248D01*
X-136766Y341995D01*
X-145118Y338535D01*
X-153383Y334872D01*
X-161555Y331007D01*
X-169629Y326942D01*
X-177602Y322681D01*
X-185467Y318225D01*
X-193221Y313578D01*
X-200858Y308741D01*
X-208375Y303719D01*
X-215766Y298514D01*
X-223027Y293129D01*
X-230153Y287567D01*
X-237141Y281832D01*
X-243986Y275928D01*
X-250684Y269857D01*
X-257231Y263624D01*
X-263624Y257231D01*
X-269857Y250684D01*
X-275928Y243986D01*
X-281832Y237141D01*
X-287567Y230153D01*
X-293129Y223027D01*
X-298514Y215766D01*
X-303719Y208375D01*
X-308741Y200858D01*
X-313578Y193221D01*
X-318225Y185467D01*
X-322681Y177602D01*
X-326942Y169629D01*
X-331007Y161555D01*
X-334872Y153383D01*
X-338535Y145118D01*
X-341995Y136766D01*
X-345248Y128332D01*
X-348293Y119821D01*
X-351129Y111237D01*
X-353753Y102587D01*
X-356164Y93874D01*
X-358361Y85105D01*
X-360341Y76285D01*
X-362105Y67419D01*
X-363651Y58512D01*
X-364977Y49570D01*
X-366084Y40598D01*
X-366970Y31602D01*
X-367635Y22586D01*
X-368078Y13557D01*
X-368300Y4520D01*
X-368300Y-4520D01*
X-368078Y-13557D01*
X-367635Y-22586D01*
X-366970Y-31602D01*
X-366084Y-40598D01*
X-364977Y-49570D01*
X-363651Y-58512D01*
X-362105Y-67419D01*
X-360341Y-76285D01*
X-358361Y-85105D01*
X-356164Y-93874D01*
X-353753Y-102587D01*
X-351129Y-111237D01*
X-348293Y-119821D01*
X-345248Y-128332D01*
X-341995Y-136766D01*
X-338535Y-145118D01*
X-334872Y-153383D01*
X-331007Y-161555D01*
X-326942Y-169629D01*
X-322681Y-177602D01*
X-318225Y-185467D01*
X-313578Y-193221D01*
X-308741Y-200858D01*
X-303719Y-208375D01*
X-298514Y-215766D01*
X-293129Y-223027D01*
X-287567Y-230153D01*
X-281832Y-237141D01*
X-275928Y-243986D01*
X-269857Y-250684D01*
X-263624Y-257231D01*
X-257231Y-263624D01*
X-250684Y-269857D01*
X-243986Y-275928D01*
X-237141Y-281832D01*
X-230153Y-287567D01*
X-223027Y-293129D01*
X-215766Y-298514D01*
X-208375Y-303719D01*
X-200858Y-308741D01*
X-193221Y-313578D01*
X-185467Y-318225D01*
X-177602Y-322681D01*
X-169629Y-326942D01*
X-161555Y-331007D01*
X-153383Y-334872D01*
X-145118Y-338535D01*
X-136766Y-341995D01*
X-128332Y-345248D01*
X-119821Y-348293D01*
X-111237Y-351129D01*
X-102587Y-353753D01*
X-93874Y-356164D01*
X-85105Y-358361D01*
X-76285Y-360341D01*
X-67419Y-362105D01*
X-58512Y-363651D01*
X-49570Y-364977D01*
X-40598Y-366084D01*
X-31602Y-366970D01*
X-22586Y-367635D01*
X-13557Y-368078D01*
X-4520Y-368300D01*
X4520Y-368300D01*
X13557Y-368078D01*
X22586Y-367635D01*
X31602Y-366970D01*
X40598Y-366084D01*
X49570Y-364977D01*
X58512Y-363651D01*
X67419Y-362105D01*
X76285Y-360341D01*
X85105Y-358361D01*
X93874Y-356164D01*
X102587Y-353753D01*
X111237Y-351129D01*
X119821Y-348293D01*
X128332Y-345248D01*
X136766Y-341995D01*
X145118Y-338535D01*
X153383Y-334872D01*
X161555Y-331007D01*
X169629Y-326942D01*
X177602Y-322681D01*
X185467Y-318225D01*
X193221Y-313578D01*
X200858Y-308741D01*
X208375Y-303719D01*
X215766Y-298514D01*
X223027Y-293129D01*
X230153Y-287567D01*
X237141Y-281832D01*
X243986Y-275928D01*
X250684Y-269857D01*
X257231Y-263624D01*
X263624Y-257231D01*
X269857Y-250684D01*
X275928Y-243986D01*
X281832Y-237141D01*
X287567Y-230153D01*
X293129Y-223027D01*
X298514Y-215766D01*
X303719Y-208375D01*
X308741Y-200858D01*
X313578Y-193221D01*
X318225Y-185467D01*
X322681Y-177602D01*
X326942Y-169629D01*
X331007Y-161555D01*
X334872Y-153383D01*
X338535Y-145118D01*
X341995Y-136766D01*
X345248Y-128332D01*
X348293Y-119821D01*
X351129Y-111237D01*
X353753Y-102587D01*
X356164Y-93874D01*
X358361Y-85105D01*
X360341Y-76285D01*
X362105Y-67419D01*
X363651Y-58512D01*
X364977Y-49570D01*
X366084Y-40598D01*
X366970Y-31602D01*
X367635Y-22586D01*
X368078Y-13557D01*
X368300Y-4520D01*
M02*
