M48
;GenerationSoftware,Autodesk,EAGLE,9.7.0*%
;CreationDate,2026-05-07T07:47:59Z*%
FMAT,2
ICI,OFF
METRIC,TZ,000.000
T5C0.203
T4C0.350
T3C1.016
T2C1.600
T1C2.700
%
G90
M71
T1
X21590Y21590
X-21590Y21590
X-21590Y-21590
X21590Y-21590
T2
X15540Y-30540
X15540Y-25460
X10460Y-25460
X10460Y-30540
X13000Y-28000
X-29790Y-16540
X-24710Y-16540
X-24710Y-11460
X-29790Y-11460
X-27250Y-14000
T3
X29000Y3810
X29000Y-1270
X29000Y1270
X29000Y-3810
X29000Y6350
X29000Y8890
X29000Y11430
X29000Y13970
X-8000Y32270
X-8000Y29730
X-8000Y21730
X-8000Y24270
X29000Y-6350
X29000Y-8890
X29000Y-11430
X29000Y-13970
X14851Y25931
X14851Y28471
X3260Y28805
X720Y28805
X-1820Y28805
T4
X-5250Y-4500
X6500Y-8500
X-16850Y1900
X-18650Y1900
X-25850Y1900
X-27650Y1900
X-29450Y100
X-11450Y-1700
X-15050Y-1700
X-31250Y1900
X-22250Y-1700
X-27650Y-1700
X-29450Y-1700
X-11450Y-3500
X-15050Y-3500
X-22250Y-8900
X-25850Y-1700
X-18650Y-3500
X-25850Y-3500
X-22250Y3700
X-27650Y-3500
X-33050Y100
X-16850Y-1700
X-24050Y-3500
X-31250Y-12500
X-20450Y-3500
X-11450Y100
X-27650Y-10700
X-25850Y-7100
X-16850Y-3500
X-24050Y-1700
X-22250Y-7100
X-29450Y-7100
X-11450Y-8900
X-22250Y-3500
X-31250Y-7100
X-18650Y-1700
X-33050Y-7100
X-25850Y-8900
X-24050Y-8900
X-15050Y-12500
X-11450Y-5300
X-29450Y1900
X-27650Y-7100
X-27650Y5500
X-24050Y-7100
X-13250Y-12500
X-16850Y-14300
X-33050Y1900
X-33050Y-10700
X-11450Y-12500
X-27650Y-8900
X-18650Y-12500
X-11450Y-14300
X-11450Y1900
X-22250Y-10700
X-33050Y-12500
X-13250Y-14300
X-16850Y-12500
X-11450Y-7100
X-18650Y-14300
X-22250Y1900
X-31250Y-14300
X-22250Y-12500
X-15050Y-14300
X-33050Y3700
X-29450Y-14300
X-15000Y21750
X-12750Y26500
X-14000Y14250
X-2000Y34250
X17250Y3750
X-14000Y9750
X500Y34750
X3000Y5000
X-15050Y1900
X5500Y5000
X6500Y-11000
X6500Y-6500
X33000Y7000
X19000Y-10000
X-6500Y17250
X8500Y12250
X2500Y9000
X3750Y26000
X13000Y16750
X-11250Y9750
X-14000Y28250
X3355Y22645
X-15000Y24250
X6000Y7500
X-14000Y12000
X21000Y7500
X-25850Y5500
X-4750Y7750
X10250Y9750
X-2500Y5000
X12250Y-17450
X8650Y-17450
X3250Y-17450
X12250Y-19250
X8650Y-19250
X6850Y-19250
X12250Y-21050
X10450Y-21050
X6850Y-21050
X10450Y-22850
X1450Y-22850
X6850Y-22850
X-350Y-22850
X-2150Y-22850
X6850Y-17450
X-3950Y-22850
X8650Y-21050
X-7550Y-22850
X12250Y-24650
X5050Y-24650
X-7550Y-24650
X5050Y-26450
X6850Y-24650
X1450Y-26450
X-350Y-26450
X3250Y-15650
X-7550Y-30050
X-7550Y-26450
X-7550Y-28250
X10450Y-17450
X12250Y-30050
X1450Y-30050
X8650Y-26450
X8650Y-30050
X6850Y-26450
X3250Y-26450
X12250Y-22850
X6850Y-30050
X5050Y-30050
X3250Y-30050
X-350Y-30050
X8650Y-22850
X8650Y-24650
X10450Y-19250
X2250Y24000
X-31250Y3700
X-15050Y3700
X-11450Y3700
X-33050Y5500
X-31250Y5500
X-250Y24000
X-3500Y19250
X3000Y35250
X7500Y5000
X10250Y13500
X-2304Y-4554
X-7500Y15250
X14750Y-12250
X14750Y22250
X-29450Y5500
X-20450Y5500
X-18650Y5500
X13250Y-700
X6050Y-4300
X7850Y-4300
X9650Y-4300
X6050Y-700
X11450Y-4300
X2450Y-700
X4250Y-4300
X4250Y-700
X7850Y-700
X9650Y-700
X15050Y-2500
X15050Y-4300
X11450Y-700
X15050Y-700
X1250Y-20750
X1250Y-18500
X17250Y1250
T5
X12707Y-8500
X14307Y-8500
X13507Y-9300
X13507Y-7700
X-185Y16410
X1290Y14935
X1290Y16410
X1290Y17885
X2765Y16410
M30