G04 EAGLE Gerber RS-274X export*
G75*
%MOMM*%
%FSLAX34Y34*%
%LPD*%
%INTop Copper*%
%IPPOS*%
%AMOC8*
5,1,8,0,0,1.08239X$1,22.5*%
G01*
G04 Define Apertures*
%ADD10R,0.560000X0.629100*%
%ADD11R,0.629100X0.560000*%
%ADD12R,0.457200X1.358900*%
%ADD13R,4.700000X2.500000*%
%ADD14R,0.864000X0.864000*%
%ADD15C,1.524000*%
%ADD16R,0.729100X0.560000*%
%ADD17R,0.560000X0.729100*%
%ADD18R,0.535100X0.644000*%
%ADD19R,0.644000X0.535100*%
%ADD20R,0.800000X1.800000*%
%ADD21R,1.800000X0.800000*%
%ADD22R,0.304800X0.736600*%
%ADD23R,0.736600X0.355600*%
%ADD24C,0.240000*%
%ADD25R,3.450000X3.450000*%
%ADD26C,0.711200*%
%ADD27R,0.300000X0.750000*%
%ADD28R,0.750000X0.300000*%
%ADD29R,2.100000X2.100000*%
%ADD30R,1.200000X1.800000*%
%ADD31C,3.716000*%
%ADD32C,2.400000*%
%ADD33R,1.270000X3.600000*%
%ADD34R,1.350000X4.200000*%
%ADD35R,2.410000X0.760000*%
%ADD36R,2.540000X5.840000*%
%ADD37R,3.600000X1.270000*%
%ADD38R,4.200000X1.350000*%
%ADD39R,0.900000X0.970200*%
%ADD40R,0.932600X0.970200*%
%ADD41C,0.254000*%
%ADD42C,0.756400*%
%ADD43C,0.152400*%
%ADD44C,0.685800*%
%ADD45C,0.609600*%
%ADD46C,0.304800*%
G36*
X37316Y-355423D02*
X40Y-357377D01*
X-40Y-357377D01*
X-37316Y-355423D01*
X-37396Y-355415D01*
X-57006Y-352309D01*
X-57408Y-352112D01*
X-57584Y-351865D01*
X-57649Y-351569D01*
X-57593Y-351271D01*
X-57426Y-351018D01*
X-56460Y-350052D01*
X-56460Y-328762D01*
X-75040Y-328762D01*
X-75040Y-348379D01*
X-75060Y-348553D01*
X-75187Y-348828D01*
X-75411Y-349033D01*
X-75697Y-349134D01*
X-75999Y-349115D01*
X-110398Y-339898D01*
X-110473Y-339873D01*
X-145322Y-326496D01*
X-145395Y-326464D01*
X-178654Y-309517D01*
X-178723Y-309478D01*
X-210029Y-289147D01*
X-210093Y-289101D01*
X-239102Y-265610D01*
X-239162Y-265556D01*
X-265556Y-239162D01*
X-265610Y-239102D01*
X-289101Y-210093D01*
X-289147Y-210029D01*
X-309478Y-178723D01*
X-309517Y-178654D01*
X-326464Y-145395D01*
X-326496Y-145322D01*
X-339873Y-110473D01*
X-339898Y-110398D01*
X-344727Y-92376D01*
X-344752Y-92215D01*
X-344706Y-91916D01*
X-344547Y-91658D01*
X-344299Y-91482D01*
X-344003Y-91417D01*
X-343705Y-91473D01*
X-343452Y-91640D01*
X-342552Y-92540D01*
X-321262Y-92540D01*
X-321262Y-84012D01*
X-344040Y-84012D01*
X-344040Y-89152D01*
X-344125Y-89501D01*
X-344314Y-89737D01*
X-344581Y-89881D01*
X-344883Y-89909D01*
X-345172Y-89817D01*
X-345403Y-89620D01*
X-345538Y-89349D01*
X-349559Y-74342D01*
X-349576Y-74264D01*
X-355415Y-37396D01*
X-355423Y-37316D01*
X-357377Y-40D01*
X-357377Y40D01*
X-355423Y37316D01*
X-355415Y37396D01*
X-349576Y74264D01*
X-349559Y74342D01*
X-339898Y110398D01*
X-339873Y110473D01*
X-326496Y145322D01*
X-326464Y145395D01*
X-309517Y178654D01*
X-309478Y178723D01*
X-289147Y210029D01*
X-289101Y210093D01*
X-265610Y239102D01*
X-265556Y239162D01*
X-239162Y265556D01*
X-239102Y265610D01*
X-210093Y289101D01*
X-210029Y289147D01*
X-178723Y309478D01*
X-178654Y309517D01*
X-145395Y326464D01*
X-145322Y326496D01*
X-110473Y339873D01*
X-110398Y339898D01*
X-74342Y349559D01*
X-74264Y349576D01*
X-37396Y355415D01*
X-37316Y355423D01*
X-40Y357377D01*
X40Y357377D01*
X24303Y356105D01*
X24526Y356060D01*
X24784Y355900D01*
X24960Y355653D01*
X25025Y355357D01*
X24969Y355058D01*
X24802Y354806D01*
X24694Y354698D01*
X24694Y350302D01*
X27802Y347194D01*
X28552Y347194D01*
X28827Y347143D01*
X29082Y346979D01*
X29254Y346729D01*
X29314Y346432D01*
X29314Y330237D01*
X29263Y329962D01*
X29099Y329706D01*
X28849Y329535D01*
X28552Y329475D01*
X27749Y329475D01*
X26856Y328582D01*
X26856Y321968D01*
X27749Y321076D01*
X35451Y321076D01*
X36344Y321968D01*
X36344Y328582D01*
X35451Y329475D01*
X34648Y329475D01*
X34373Y329526D01*
X34118Y329689D01*
X33946Y329939D01*
X33886Y330237D01*
X33886Y348567D01*
X33942Y348853D01*
X34109Y349105D01*
X35306Y350302D01*
X35306Y354726D01*
X35373Y355037D01*
X35549Y355284D01*
X35808Y355442D01*
X36108Y355487D01*
X37316Y355423D01*
X37396Y355415D01*
X74264Y349576D01*
X74342Y349559D01*
X101291Y342338D01*
X101607Y342166D01*
X101786Y341921D01*
X101856Y341626D01*
X101805Y341327D01*
X101641Y341072D01*
X101391Y340900D01*
X101094Y340840D01*
X94648Y340840D01*
X93160Y339352D01*
X93160Y335062D01*
X116240Y335062D01*
X116240Y336551D01*
X116282Y336801D01*
X116437Y337062D01*
X116681Y337242D01*
X116976Y337313D01*
X117275Y337262D01*
X145322Y326496D01*
X145395Y326464D01*
X178654Y309517D01*
X178723Y309478D01*
X210029Y289147D01*
X210093Y289101D01*
X239102Y265610D01*
X239162Y265556D01*
X265556Y239162D01*
X265610Y239102D01*
X289101Y210093D01*
X289147Y210029D01*
X309478Y178723D01*
X309517Y178654D01*
X326464Y145395D01*
X326496Y145322D01*
X336291Y119805D01*
X336342Y119556D01*
X336291Y119257D01*
X336127Y119001D01*
X335877Y118830D01*
X335580Y118770D01*
X329315Y118770D01*
X328439Y117894D01*
X328208Y117736D01*
X327912Y117671D01*
X327614Y117726D01*
X327361Y117894D01*
X326485Y118770D01*
X319623Y118770D01*
X318730Y117877D01*
X318730Y117856D01*
X318679Y117581D01*
X318515Y117326D01*
X318265Y117154D01*
X317968Y117094D01*
X306869Y117094D01*
X306589Y117147D01*
X306335Y117313D01*
X306165Y117564D01*
X305372Y119480D01*
X302800Y122052D01*
X299439Y123444D01*
X280561Y123444D01*
X277200Y122052D01*
X274628Y119480D01*
X273835Y117564D01*
X273678Y117326D01*
X273428Y117154D01*
X273131Y117094D01*
X167173Y117094D01*
X166887Y117150D01*
X166634Y117317D01*
X159098Y124853D01*
X158935Y125095D01*
X158875Y125392D01*
X158875Y132982D01*
X157982Y133875D01*
X156407Y133875D01*
X156132Y133926D01*
X155877Y134090D01*
X155705Y134340D01*
X155645Y134637D01*
X155645Y135883D01*
X155701Y136169D01*
X155868Y136421D01*
X156970Y137523D01*
X156970Y144385D01*
X156812Y144543D01*
X156654Y144773D01*
X156589Y145069D01*
X156645Y145368D01*
X156812Y145620D01*
X157986Y146794D01*
X157986Y149884D01*
X151538Y149884D01*
X151538Y151408D01*
X157986Y151408D01*
X157986Y154498D01*
X156498Y155986D01*
X153534Y155986D01*
X153271Y156033D01*
X153013Y156192D01*
X152837Y156440D01*
X152772Y156736D01*
X152828Y157034D01*
X152995Y157287D01*
X172794Y177086D01*
X172794Y263371D01*
X160628Y275537D01*
X160472Y275762D01*
X160405Y276058D01*
X160458Y276357D01*
X160623Y276611D01*
X160875Y276780D01*
X161314Y276962D01*
X163886Y279534D01*
X165278Y282895D01*
X165278Y286533D01*
X163886Y289894D01*
X161314Y292466D01*
X157953Y293858D01*
X139075Y293858D01*
X135714Y292466D01*
X133142Y289894D01*
X132138Y287470D01*
X131982Y287232D01*
X131731Y287060D01*
X131434Y287000D01*
X121267Y287000D01*
X115387Y281120D01*
X115167Y280967D01*
X114872Y280897D01*
X114573Y280948D01*
X114318Y281111D01*
X114146Y281361D01*
X114086Y281659D01*
X114086Y284938D01*
X109508Y284938D01*
X109508Y280015D01*
X112442Y280015D01*
X112705Y279968D01*
X112963Y279808D01*
X113139Y279561D01*
X113204Y279265D01*
X113148Y278967D01*
X112981Y278714D01*
X101901Y267634D01*
X101660Y267471D01*
X101362Y267411D01*
X97006Y267411D01*
X96731Y267462D01*
X96476Y267626D01*
X96304Y267876D01*
X96244Y268173D01*
X96244Y268432D01*
X95351Y269325D01*
X87649Y269325D01*
X86756Y268432D01*
X86756Y268173D01*
X86705Y267898D01*
X86541Y267643D01*
X86291Y267471D01*
X85994Y267411D01*
X77484Y267411D01*
X77220Y267458D01*
X76962Y267617D01*
X76787Y267865D01*
X76722Y268161D01*
X76777Y268459D01*
X76945Y268712D01*
X80999Y272766D01*
X81240Y272929D01*
X81538Y272989D01*
X85994Y272989D01*
X86269Y272938D01*
X86524Y272774D01*
X86696Y272524D01*
X86756Y272227D01*
X86756Y271968D01*
X87649Y271076D01*
X95351Y271076D01*
X96244Y271968D01*
X96244Y276470D01*
X96300Y276756D01*
X96467Y277009D01*
X100265Y280807D01*
X100507Y280970D01*
X100804Y281031D01*
X102485Y281031D01*
X102643Y281188D01*
X102873Y281346D01*
X103169Y281411D01*
X103468Y281356D01*
X103720Y281188D01*
X104894Y280015D01*
X107984Y280015D01*
X107984Y291386D01*
X104894Y291386D01*
X103720Y290212D01*
X103490Y290054D01*
X103194Y289989D01*
X102896Y290045D01*
X102643Y290212D01*
X102485Y290370D01*
X102102Y290370D01*
X101827Y290421D01*
X101572Y290584D01*
X101400Y290834D01*
X101340Y291132D01*
X101340Y292391D01*
X101396Y292677D01*
X101563Y292930D01*
X102186Y293553D01*
X102427Y293716D01*
X102725Y293776D01*
X114331Y293776D01*
X115224Y294669D01*
X115224Y303931D01*
X114331Y304824D01*
X95069Y304824D01*
X94176Y303931D01*
X94176Y294669D01*
X95069Y293776D01*
X96006Y293776D01*
X96281Y293725D01*
X96536Y293561D01*
X96708Y293311D01*
X96768Y293014D01*
X96768Y291132D01*
X96717Y290857D01*
X96553Y290601D01*
X96303Y290430D01*
X96006Y290370D01*
X95623Y290370D01*
X94730Y289477D01*
X94730Y282054D01*
X94674Y281768D01*
X94507Y281515D01*
X92690Y279698D01*
X92448Y279535D01*
X92151Y279475D01*
X87649Y279475D01*
X86756Y278582D01*
X86756Y278323D01*
X86705Y278048D01*
X86541Y277793D01*
X86291Y277621D01*
X85994Y277561D01*
X79328Y277561D01*
X44666Y242899D01*
X44666Y230025D01*
X44610Y229739D01*
X44443Y229486D01*
X40161Y225204D01*
X39941Y225051D01*
X39646Y224981D01*
X39347Y225032D01*
X39092Y225196D01*
X38920Y225446D01*
X38860Y225743D01*
X38860Y228644D01*
X35752Y231752D01*
X31356Y231752D01*
X28248Y228644D01*
X28248Y224248D01*
X31356Y221140D01*
X31710Y221140D01*
X31985Y221089D01*
X32240Y220925D01*
X32412Y220675D01*
X32472Y220378D01*
X32472Y220331D01*
X32416Y220045D01*
X32249Y219792D01*
X26087Y213630D01*
X25867Y213477D01*
X25572Y213407D01*
X25273Y213458D01*
X25018Y213622D01*
X24846Y213872D01*
X24786Y214169D01*
X24786Y234467D01*
X24842Y234753D01*
X25009Y235005D01*
X27806Y237802D01*
X27806Y242198D01*
X24698Y245306D01*
X20302Y245306D01*
X17194Y242198D01*
X17194Y237802D01*
X19991Y235005D01*
X20154Y234764D01*
X20214Y234467D01*
X20214Y212384D01*
X20158Y212098D01*
X19991Y211845D01*
X17470Y209324D01*
X17251Y209171D01*
X16956Y209102D01*
X16657Y209152D01*
X16401Y209316D01*
X16230Y209566D01*
X16170Y209863D01*
X16170Y216285D01*
X16012Y216443D01*
X15854Y216673D01*
X15789Y216969D01*
X15845Y217268D01*
X16012Y217520D01*
X17186Y218694D01*
X17186Y221784D01*
X10738Y221784D01*
X10738Y227886D01*
X8048Y227886D01*
X7773Y227937D01*
X7518Y228101D01*
X7346Y228351D01*
X7286Y228648D01*
X7286Y236237D01*
X7342Y236523D01*
X7509Y236776D01*
X23224Y252491D01*
X23465Y252654D01*
X23763Y252714D01*
X33447Y252714D01*
X35204Y254471D01*
X35445Y254634D01*
X35743Y254694D01*
X39698Y254694D01*
X42806Y257802D01*
X42806Y262198D01*
X39698Y265306D01*
X35302Y265306D01*
X32194Y262198D01*
X32194Y258243D01*
X32138Y257957D01*
X31971Y257704D01*
X31776Y257509D01*
X31535Y257346D01*
X31237Y257286D01*
X21553Y257286D01*
X4107Y239840D01*
X3887Y239687D01*
X3592Y239617D01*
X3293Y239668D01*
X3038Y239831D01*
X2866Y240081D01*
X2806Y240379D01*
X2806Y242198D01*
X9Y244995D01*
X-154Y245236D01*
X-214Y245533D01*
X-214Y246683D01*
X-158Y246969D01*
X9Y247222D01*
X25902Y273115D01*
X26132Y273273D01*
X26429Y273338D01*
X26727Y273282D01*
X26979Y273115D01*
X27420Y272674D01*
X30781Y271282D01*
X34419Y271282D01*
X37780Y272674D01*
X40352Y275246D01*
X41744Y278607D01*
X41744Y297485D01*
X40352Y300846D01*
X37780Y303418D01*
X34356Y304836D01*
X34118Y304993D01*
X33946Y305243D01*
X33886Y305540D01*
X33886Y310164D01*
X33937Y310438D01*
X34101Y310694D01*
X34351Y310865D01*
X34648Y310926D01*
X35451Y310926D01*
X36344Y311818D01*
X36344Y318432D01*
X35451Y319325D01*
X27749Y319325D01*
X26856Y318432D01*
X26856Y311818D01*
X27749Y310926D01*
X28552Y310926D01*
X28827Y310874D01*
X29082Y310711D01*
X29254Y310461D01*
X29314Y310164D01*
X29314Y304711D01*
X29261Y304431D01*
X29095Y304177D01*
X28844Y304007D01*
X27420Y303418D01*
X24848Y300846D01*
X23456Y297485D01*
X23456Y278607D01*
X23692Y278037D01*
X23750Y277757D01*
X23695Y277459D01*
X23527Y277206D01*
X-4786Y248893D01*
X-4786Y245533D01*
X-4842Y245247D01*
X-5009Y244995D01*
X-7806Y242198D01*
X-7806Y237802D01*
X-4698Y234694D01*
X-302Y234694D01*
X1413Y236409D01*
X1633Y236562D01*
X1928Y236632D01*
X2227Y236581D01*
X2482Y236418D01*
X2654Y236168D01*
X2714Y235871D01*
X2714Y227309D01*
X2667Y227046D01*
X2508Y226788D01*
X2260Y226612D01*
X1964Y226547D01*
X1666Y226603D01*
X1413Y226770D01*
X1128Y227055D01*
X-2307Y227055D01*
X-2307Y220953D01*
X-3831Y220953D01*
X-3831Y227055D01*
X-7267Y227055D01*
X-8913Y225409D01*
X-9133Y225256D01*
X-9428Y225186D01*
X-9727Y225237D01*
X-9982Y225400D01*
X-10154Y225650D01*
X-10214Y225947D01*
X-10214Y267083D01*
X-10158Y267369D01*
X-9991Y267622D01*
X-1890Y275723D01*
X-1665Y275879D01*
X-1369Y275946D01*
X-1071Y275893D01*
X-817Y275728D01*
X-647Y275476D01*
X-552Y275246D01*
X2020Y272674D01*
X5381Y271282D01*
X9019Y271282D01*
X12380Y272674D01*
X14952Y275246D01*
X16344Y278607D01*
X16344Y297485D01*
X14952Y300846D01*
X12380Y303418D01*
X9956Y304422D01*
X9718Y304578D01*
X9546Y304828D01*
X9486Y305126D01*
X9486Y310570D01*
X9542Y310856D01*
X9709Y311108D01*
X10419Y311818D01*
X10419Y318432D01*
X9526Y319325D01*
X1824Y319325D01*
X931Y318432D01*
X931Y311818D01*
X1824Y310926D01*
X4152Y310926D01*
X4427Y310874D01*
X4682Y310711D01*
X4854Y310461D01*
X4914Y310164D01*
X4914Y305126D01*
X4861Y304845D01*
X4695Y304591D01*
X4444Y304422D01*
X2020Y303418D01*
X-552Y300846D01*
X-1944Y297485D01*
X-1944Y282451D01*
X-2000Y282165D01*
X-2167Y281912D01*
X-8882Y275197D01*
X-9096Y275047D01*
X-9390Y274975D01*
X-9689Y275023D01*
X-9946Y275185D01*
X-10120Y275433D01*
X-10182Y275730D01*
X-10124Y276028D01*
X-9056Y278607D01*
X-9056Y297485D01*
X-10448Y300846D01*
X-13020Y303418D01*
X-16487Y304854D01*
X-16527Y304861D01*
X-16782Y305025D01*
X-16954Y305275D01*
X-17014Y305572D01*
X-17014Y310164D01*
X-16963Y310438D01*
X-16799Y310694D01*
X-16549Y310865D01*
X-16252Y310926D01*
X-15449Y310926D01*
X-14556Y311818D01*
X-14556Y318432D01*
X-15449Y319325D01*
X-23151Y319325D01*
X-24044Y318432D01*
X-24044Y311818D01*
X-23151Y310926D01*
X-22348Y310926D01*
X-22073Y310874D01*
X-21818Y310711D01*
X-21646Y310461D01*
X-21586Y310164D01*
X-21586Y304670D01*
X-21639Y304390D01*
X-21805Y304136D01*
X-22056Y303966D01*
X-23380Y303418D01*
X-25952Y300846D01*
X-27344Y297485D01*
X-27344Y278607D01*
X-25952Y275246D01*
X-23380Y272674D01*
X-20956Y271670D01*
X-20718Y271514D01*
X-20546Y271264D01*
X-20486Y270966D01*
X-20486Y207253D01*
X-7509Y194276D01*
X-7346Y194035D01*
X-7286Y193737D01*
X-7286Y191382D01*
X-7324Y191187D01*
X-7324Y185086D01*
X-7375Y184811D01*
X-7539Y184556D01*
X-7789Y184384D01*
X-8086Y184324D01*
X-13275Y184324D01*
X-13561Y184380D01*
X-13814Y184547D01*
X-14991Y185724D01*
X-15154Y185965D01*
X-15214Y186263D01*
X-15214Y198447D01*
X-59053Y242286D01*
X-62474Y242286D01*
X-62749Y242337D01*
X-63004Y242501D01*
X-63176Y242751D01*
X-63236Y243048D01*
X-63236Y244519D01*
X-64628Y247880D01*
X-67200Y250452D01*
X-70561Y251844D01*
X-89439Y251844D01*
X-92800Y250452D01*
X-95372Y247880D01*
X-96376Y245456D01*
X-96532Y245218D01*
X-96782Y245046D01*
X-97080Y244986D01*
X-111664Y244986D01*
X-111938Y245037D01*
X-112194Y245201D01*
X-112365Y245451D01*
X-112426Y245748D01*
X-112426Y246551D01*
X-113318Y247444D01*
X-119932Y247444D01*
X-120825Y246551D01*
X-120825Y238849D01*
X-119932Y237956D01*
X-113318Y237956D01*
X-112426Y238849D01*
X-112426Y239652D01*
X-112374Y239927D01*
X-112211Y240182D01*
X-111961Y240354D01*
X-111664Y240414D01*
X-97080Y240414D01*
X-96799Y240361D01*
X-96545Y240195D01*
X-96376Y239944D01*
X-95372Y237520D01*
X-92800Y234948D01*
X-89439Y233556D01*
X-70561Y233556D01*
X-67200Y234948D01*
X-64658Y237491D01*
X-64416Y237654D01*
X-64119Y237714D01*
X-61263Y237714D01*
X-60977Y237658D01*
X-60724Y237491D01*
X-44120Y220887D01*
X-43967Y220667D01*
X-43897Y220372D01*
X-43948Y220073D01*
X-44111Y219818D01*
X-44361Y219646D01*
X-44659Y219586D01*
X-62920Y219586D01*
X-63201Y219639D01*
X-63455Y219805D01*
X-63624Y220056D01*
X-64628Y222480D01*
X-67200Y225052D01*
X-70561Y226444D01*
X-89439Y226444D01*
X-92800Y225052D01*
X-95372Y222480D01*
X-96376Y220056D01*
X-96532Y219818D01*
X-96782Y219646D01*
X-97080Y219586D01*
X-109964Y219586D01*
X-110238Y219637D01*
X-110494Y219801D01*
X-110665Y220051D01*
X-110726Y220348D01*
X-110726Y221551D01*
X-111618Y222444D01*
X-118232Y222444D01*
X-119125Y221551D01*
X-119125Y213849D01*
X-118232Y212956D01*
X-111618Y212956D01*
X-110726Y213849D01*
X-110726Y214252D01*
X-110674Y214527D01*
X-110511Y214782D01*
X-110261Y214954D01*
X-109964Y215014D01*
X-97080Y215014D01*
X-96799Y214961D01*
X-96545Y214795D01*
X-96376Y214544D01*
X-95372Y212120D01*
X-92800Y209548D01*
X-89439Y208156D01*
X-70561Y208156D01*
X-67200Y209548D01*
X-64628Y212120D01*
X-63624Y214544D01*
X-63468Y214782D01*
X-63218Y214954D01*
X-62920Y215014D01*
X-46063Y215014D01*
X-45777Y214958D01*
X-45524Y214791D01*
X-25009Y194276D01*
X-24846Y194035D01*
X-24786Y193737D01*
X-24786Y182359D01*
X-24833Y182095D01*
X-24992Y181837D01*
X-25240Y181662D01*
X-25536Y181597D01*
X-25834Y181652D01*
X-26087Y181820D01*
X-31593Y187326D01*
X-31751Y187556D01*
X-31816Y187852D01*
X-31760Y188151D01*
X-31593Y188403D01*
X-29694Y190302D01*
X-29694Y194698D01*
X-32802Y197806D01*
X-37198Y197806D01*
X-40306Y194698D01*
X-40306Y190302D01*
X-37509Y187505D01*
X-37346Y187264D01*
X-37286Y186967D01*
X-37286Y186553D01*
X-26903Y176170D01*
X-26750Y175951D01*
X-26680Y175656D01*
X-26731Y175357D01*
X-26895Y175101D01*
X-27145Y174930D01*
X-27442Y174870D01*
X-32185Y174870D01*
X-32343Y174712D01*
X-32573Y174554D01*
X-32869Y174489D01*
X-33168Y174545D01*
X-33420Y174712D01*
X-34594Y175886D01*
X-37684Y175886D01*
X-37684Y164515D01*
X-35758Y164515D01*
X-35495Y164468D01*
X-35237Y164308D01*
X-35061Y164061D01*
X-34996Y163765D01*
X-35052Y163467D01*
X-35219Y163214D01*
X-35724Y162709D01*
X-35965Y162546D01*
X-36263Y162486D01*
X-42568Y162486D01*
X-42843Y162537D01*
X-43098Y162701D01*
X-43270Y162951D01*
X-43330Y163248D01*
X-43330Y163753D01*
X-43279Y164027D01*
X-43115Y164283D01*
X-42865Y164454D01*
X-42568Y164515D01*
X-39208Y164515D01*
X-39208Y169438D01*
X-43786Y169438D01*
X-43786Y165888D01*
X-43731Y165656D01*
X-43782Y165357D01*
X-43945Y165101D01*
X-44196Y164930D01*
X-44493Y164870D01*
X-48775Y164870D01*
X-49061Y164925D01*
X-49314Y165093D01*
X-59007Y174786D01*
X-59467Y174786D01*
X-59753Y174842D01*
X-60005Y175009D01*
X-62802Y177806D01*
X-67198Y177806D01*
X-69995Y175009D01*
X-70236Y174846D01*
X-70533Y174786D01*
X-75947Y174786D01*
X-91886Y158847D01*
X-91886Y129599D01*
X-89493Y127206D01*
X-89330Y126964D01*
X-89270Y126667D01*
X-89270Y122115D01*
X-89112Y121957D01*
X-88954Y121727D01*
X-88889Y121431D01*
X-88945Y121132D01*
X-89112Y120880D01*
X-90286Y119706D01*
X-90286Y116616D01*
X-78915Y116616D01*
X-78915Y119706D01*
X-80088Y120880D01*
X-80246Y121110D01*
X-80311Y121406D01*
X-80256Y121704D01*
X-80088Y121957D01*
X-79931Y122115D01*
X-79931Y122498D01*
X-79879Y122773D01*
X-79716Y123028D01*
X-79466Y123200D01*
X-79169Y123260D01*
X-72930Y123260D01*
X-72644Y123204D01*
X-72392Y123037D01*
X-72312Y122957D01*
X-72154Y122727D01*
X-72089Y122431D01*
X-72145Y122132D01*
X-72312Y121880D01*
X-73486Y120706D01*
X-73486Y117616D01*
X-62115Y117616D01*
X-62115Y120706D01*
X-63288Y121880D01*
X-63446Y122110D01*
X-63511Y122406D01*
X-63456Y122704D01*
X-63288Y122957D01*
X-63131Y123115D01*
X-63131Y123498D01*
X-63079Y123773D01*
X-62916Y124028D01*
X-62666Y124200D01*
X-62369Y124260D01*
X-60737Y124260D01*
X-60462Y124209D01*
X-60206Y124045D01*
X-60035Y123795D01*
X-59975Y123498D01*
X-59975Y122849D01*
X-59082Y121956D01*
X-58823Y121956D01*
X-58548Y121905D01*
X-58293Y121741D01*
X-58121Y121491D01*
X-58061Y121194D01*
X-58061Y116401D01*
X-58117Y116115D01*
X-58284Y115863D01*
X-58670Y115477D01*
X-58670Y107923D01*
X-57777Y107031D01*
X-50915Y107031D01*
X-50039Y107906D01*
X-49808Y108064D01*
X-49512Y108130D01*
X-49214Y108074D01*
X-48961Y107906D01*
X-48085Y107031D01*
X-41853Y107031D01*
X-41578Y106979D01*
X-41322Y106816D01*
X-41151Y106566D01*
X-41091Y106269D01*
X-41091Y105973D01*
X-39603Y104485D01*
X-36637Y104485D01*
X-36637Y116005D01*
X-39603Y116005D01*
X-39692Y115916D01*
X-39922Y115758D01*
X-40218Y115693D01*
X-40516Y115749D01*
X-40769Y115916D01*
X-41223Y116370D01*
X-41606Y116370D01*
X-41881Y116421D01*
X-42136Y116584D01*
X-42308Y116834D01*
X-42368Y117132D01*
X-42368Y121591D01*
X-42312Y121877D01*
X-42145Y122129D01*
X-41426Y122849D01*
X-41426Y122939D01*
X-41379Y123202D01*
X-41219Y123460D01*
X-40972Y123636D01*
X-40676Y123701D01*
X-40378Y123645D01*
X-40125Y123478D01*
X-39077Y122431D01*
X-32215Y122431D01*
X-31339Y123306D01*
X-31108Y123464D01*
X-30812Y123530D01*
X-30514Y123474D01*
X-30261Y123306D01*
X-29385Y122431D01*
X-22523Y122431D01*
X-21630Y123323D01*
X-21630Y123498D01*
X-21579Y123773D01*
X-21415Y124028D01*
X-21165Y124200D01*
X-20868Y124260D01*
X-19132Y124260D01*
X-18857Y124209D01*
X-18601Y124045D01*
X-18430Y123795D01*
X-18370Y123498D01*
X-18370Y123115D01*
X-17494Y122239D01*
X-17336Y122008D01*
X-17271Y121712D01*
X-17326Y121414D01*
X-17494Y121161D01*
X-18370Y120285D01*
X-18370Y113801D01*
X-18421Y113526D01*
X-18584Y113271D01*
X-18834Y113099D01*
X-19132Y113039D01*
X-20764Y113039D01*
X-21038Y113090D01*
X-21294Y113254D01*
X-21465Y113504D01*
X-21526Y113801D01*
X-21526Y114096D01*
X-22418Y114989D01*
X-29032Y114989D01*
X-29543Y114478D01*
X-29773Y114320D01*
X-30069Y114255D01*
X-30368Y114311D01*
X-30620Y114478D01*
X-32147Y116005D01*
X-35113Y116005D01*
X-35113Y104485D01*
X-32147Y104485D01*
X-30620Y106012D01*
X-30390Y106170D01*
X-30094Y106235D01*
X-29796Y106180D01*
X-29543Y106012D01*
X-29032Y105501D01*
X-22418Y105501D01*
X-21526Y106394D01*
X-21526Y106689D01*
X-21474Y106964D01*
X-21311Y107219D01*
X-21061Y107391D01*
X-20764Y107451D01*
X-19606Y107451D01*
X-19331Y107400D01*
X-19076Y107236D01*
X-18904Y106986D01*
X-18844Y106689D01*
X-18844Y103468D01*
X-17951Y102576D01*
X-10249Y102576D01*
X-9356Y103468D01*
X-9356Y110082D01*
X-10249Y110975D01*
X-10544Y110975D01*
X-10819Y111026D01*
X-11074Y111189D01*
X-11246Y111439D01*
X-11306Y111737D01*
X-11306Y111768D01*
X-11255Y112043D01*
X-11091Y112298D01*
X-10841Y112470D01*
X-10544Y112530D01*
X-9923Y112530D01*
X-9031Y113423D01*
X-9031Y120285D01*
X-9906Y121161D01*
X-10064Y121392D01*
X-10130Y121688D01*
X-10074Y121986D01*
X-9906Y122239D01*
X-9031Y123115D01*
X-9031Y127667D01*
X-8975Y127953D01*
X-8807Y128206D01*
X-3187Y133826D01*
X-2967Y133979D01*
X-2672Y134049D01*
X-2373Y133998D01*
X-2118Y133835D01*
X-1946Y133585D01*
X-1886Y133287D01*
X-1886Y89484D01*
X-1933Y89220D01*
X-2092Y88962D01*
X-2340Y88787D01*
X-2636Y88722D01*
X-2934Y88777D01*
X-3187Y88945D01*
X-9133Y94891D01*
X-9296Y95132D01*
X-9356Y95430D01*
X-9356Y99932D01*
X-10249Y100825D01*
X-17951Y100825D01*
X-18844Y99932D01*
X-18844Y97756D01*
X-18895Y97481D01*
X-19059Y97226D01*
X-19309Y97054D01*
X-19606Y96994D01*
X-19864Y96994D01*
X-20138Y97045D01*
X-20394Y97209D01*
X-20565Y97459D01*
X-20626Y97756D01*
X-20626Y98051D01*
X-21518Y98944D01*
X-28132Y98944D01*
X-28643Y98433D01*
X-28873Y98275D01*
X-29169Y98210D01*
X-29468Y98266D01*
X-29720Y98433D01*
X-31247Y99960D01*
X-34213Y99960D01*
X-34213Y88440D01*
X-31247Y88440D01*
X-29720Y89967D01*
X-29490Y90125D01*
X-29194Y90190D01*
X-28896Y90135D01*
X-28643Y89967D01*
X-28132Y89456D01*
X-21518Y89456D01*
X-20626Y90349D01*
X-20626Y90644D01*
X-20574Y90919D01*
X-20411Y91174D01*
X-20161Y91346D01*
X-19864Y91406D01*
X-15127Y91406D01*
X-13723Y92216D01*
X-13354Y92318D01*
X-13056Y92263D01*
X-12803Y92095D01*
X-7509Y86801D01*
X-7346Y86560D01*
X-7286Y86262D01*
X-7286Y65478D01*
X-6165Y64356D01*
X-6002Y64115D01*
X-5942Y63817D01*
X-5942Y61524D01*
X-5993Y61249D01*
X-6156Y60994D01*
X-6316Y60885D01*
X-6316Y57206D01*
X-855Y57206D01*
X-855Y58349D01*
X-803Y58624D01*
X-640Y58879D01*
X-390Y59051D01*
X-93Y59111D01*
X4462Y59111D01*
X4594Y59140D01*
X4750Y59111D01*
X9306Y59111D01*
X9580Y59060D01*
X9836Y58896D01*
X10007Y58646D01*
X10068Y58349D01*
X10068Y57206D01*
X15529Y57206D01*
X15529Y60886D01*
X15386Y60977D01*
X15215Y61227D01*
X15155Y61524D01*
X15155Y68632D01*
X14262Y69525D01*
X13888Y69525D01*
X13602Y69581D01*
X13349Y69748D01*
X12909Y70188D01*
X12746Y70430D01*
X12686Y70727D01*
X12686Y119387D01*
X12733Y119651D01*
X12892Y119909D01*
X13140Y120084D01*
X13436Y120149D01*
X13734Y120094D01*
X13987Y119926D01*
X15707Y118206D01*
X15870Y117964D01*
X15931Y117667D01*
X15931Y113115D01*
X16088Y112957D01*
X16246Y112727D01*
X16311Y112431D01*
X16256Y112132D01*
X16088Y111880D01*
X14915Y110706D01*
X14915Y107616D01*
X21362Y107616D01*
X21362Y101514D01*
X24798Y101514D01*
X24945Y101661D01*
X25164Y101814D01*
X25459Y101884D01*
X25758Y101833D01*
X26014Y101670D01*
X26185Y101420D01*
X26246Y101122D01*
X26246Y99370D01*
X26190Y99084D01*
X26022Y98831D01*
X22711Y95520D01*
X22658Y95247D01*
X22491Y94995D01*
X19694Y92198D01*
X19694Y87802D01*
X22802Y84694D01*
X27198Y84694D01*
X30306Y87802D01*
X30306Y92198D01*
X28619Y93884D01*
X28461Y94115D01*
X28396Y94411D01*
X28452Y94709D01*
X28619Y94962D01*
X30818Y97160D01*
X30818Y100689D01*
X30864Y100953D01*
X31024Y101211D01*
X31271Y101386D01*
X31567Y101451D01*
X31865Y101396D01*
X32118Y101228D01*
X33102Y100244D01*
X36538Y100244D01*
X36538Y106346D01*
X38062Y106346D01*
X38062Y100244D01*
X41498Y100244D01*
X42986Y101732D01*
X42986Y103010D01*
X43032Y103273D01*
X43192Y103531D01*
X43439Y103706D01*
X43735Y103772D01*
X44033Y103716D01*
X44286Y103548D01*
X47307Y100527D01*
X47470Y100286D01*
X47531Y99989D01*
X47531Y94923D01*
X48423Y94030D01*
X55977Y94030D01*
X56870Y94923D01*
X56870Y101785D01*
X55994Y102661D01*
X55836Y102892D01*
X55771Y103188D01*
X55826Y103486D01*
X55994Y103739D01*
X56870Y104615D01*
X56870Y111477D01*
X55977Y112370D01*
X55548Y112370D01*
X55273Y112421D01*
X55018Y112585D01*
X54846Y112835D01*
X54786Y113132D01*
X54786Y118947D01*
X33347Y140386D01*
X33184Y140627D01*
X33124Y140925D01*
X33124Y143114D01*
X33175Y143389D01*
X33339Y143644D01*
X33589Y143816D01*
X33886Y143876D01*
X36075Y143876D01*
X36361Y143820D01*
X36614Y143653D01*
X60007Y120260D01*
X60369Y120260D01*
X60643Y120209D01*
X60899Y120045D01*
X61070Y119795D01*
X61131Y119498D01*
X61131Y119115D01*
X61288Y118957D01*
X61446Y118727D01*
X61511Y118431D01*
X61456Y118132D01*
X61288Y117880D01*
X60115Y116706D01*
X60115Y113616D01*
X71486Y113616D01*
X71486Y116706D01*
X70312Y117880D01*
X70154Y118110D01*
X70089Y118406D01*
X70145Y118704D01*
X70312Y118957D01*
X70509Y119154D01*
X70521Y119219D01*
X70684Y119474D01*
X70934Y119646D01*
X71232Y119706D01*
X79975Y119706D01*
X80261Y119650D01*
X80513Y119483D01*
X82802Y117194D01*
X87198Y117194D01*
X89487Y119483D01*
X89728Y119646D01*
X90025Y119706D01*
X133469Y119706D01*
X134665Y120902D01*
X134907Y121065D01*
X135204Y121125D01*
X142606Y121125D01*
X143499Y122018D01*
X143499Y132982D01*
X142606Y133875D01*
X140868Y133875D01*
X140593Y133926D01*
X140338Y134090D01*
X140166Y134340D01*
X140106Y134637D01*
X140106Y137368D01*
X140157Y137643D01*
X140321Y137898D01*
X140571Y138070D01*
X140628Y138081D01*
X141570Y139023D01*
X141570Y142857D01*
X141625Y143143D01*
X141793Y143395D01*
X141932Y143535D01*
X142174Y143698D01*
X142332Y143730D01*
X145466Y146864D01*
X145697Y147022D01*
X145993Y147087D01*
X146291Y147032D01*
X146544Y146864D01*
X147788Y145620D01*
X147946Y145390D01*
X148011Y145094D01*
X147956Y144796D01*
X147788Y144543D01*
X147631Y144385D01*
X147631Y137523D01*
X148523Y136630D01*
X149295Y136630D01*
X149570Y136579D01*
X149825Y136415D01*
X149997Y136165D01*
X150057Y135868D01*
X150057Y134637D01*
X150006Y134362D01*
X149842Y134107D01*
X149592Y133935D01*
X149295Y133875D01*
X147720Y133875D01*
X146827Y132982D01*
X146827Y122018D01*
X147720Y121125D01*
X150194Y121125D01*
X150469Y121074D01*
X150724Y120910D01*
X150896Y120660D01*
X150956Y120363D01*
X150956Y115223D01*
X150900Y114937D01*
X150733Y114684D01*
X136566Y100517D01*
X136324Y100354D01*
X136027Y100294D01*
X107525Y100294D01*
X107239Y100350D01*
X106987Y100517D01*
X104698Y102806D01*
X100302Y102806D01*
X97194Y99698D01*
X97194Y95302D01*
X100302Y92194D01*
X104698Y92194D01*
X106987Y94483D01*
X107228Y94646D01*
X107525Y94706D01*
X138657Y94706D01*
X156544Y112593D01*
X156544Y117665D01*
X156591Y117928D01*
X156750Y118186D01*
X156998Y118362D01*
X157294Y118427D01*
X157592Y118371D01*
X157845Y118204D01*
X164543Y111506D01*
X273131Y111506D01*
X273411Y111453D01*
X273665Y111287D01*
X273835Y111036D01*
X274628Y109120D01*
X277200Y106548D01*
X280561Y105156D01*
X299439Y105156D01*
X302800Y106548D01*
X305372Y109120D01*
X306165Y111036D01*
X306322Y111274D01*
X306572Y111446D01*
X306869Y111506D01*
X316429Y111506D01*
X316703Y111455D01*
X316959Y111291D01*
X317130Y111041D01*
X317191Y110744D01*
X317191Y105709D01*
X317139Y105434D01*
X316976Y105178D01*
X316726Y105007D01*
X316429Y104947D01*
X315700Y104947D01*
X314807Y104054D01*
X314807Y97191D01*
X314965Y97034D01*
X315123Y96803D01*
X315188Y96507D01*
X315132Y96209D01*
X314965Y95956D01*
X313791Y94783D01*
X313791Y91693D01*
X325162Y91693D01*
X325162Y94783D01*
X323989Y95956D01*
X323831Y96187D01*
X323765Y96483D01*
X323821Y96781D01*
X323989Y97034D01*
X324146Y97191D01*
X324146Y104054D01*
X323253Y104947D01*
X322525Y104947D01*
X322250Y104998D01*
X321994Y105161D01*
X321823Y105411D01*
X321763Y105709D01*
X321763Y107669D01*
X321814Y107943D01*
X321977Y108199D01*
X322227Y108370D01*
X322525Y108431D01*
X326485Y108431D01*
X327361Y109306D01*
X327592Y109464D01*
X327888Y109530D01*
X328186Y109474D01*
X328439Y109306D01*
X329315Y108431D01*
X331552Y108431D01*
X331827Y108379D01*
X332082Y108216D01*
X332254Y107966D01*
X332314Y107669D01*
X332314Y106432D01*
X332263Y106157D01*
X332099Y105902D01*
X331849Y105730D01*
X331552Y105670D01*
X330823Y105670D01*
X329931Y104777D01*
X329931Y97915D01*
X330088Y97757D01*
X330246Y97527D01*
X330311Y97231D01*
X330256Y96932D01*
X330088Y96680D01*
X328915Y95506D01*
X328915Y92416D01*
X335362Y92416D01*
X335362Y86314D01*
X338741Y86314D01*
X339005Y86267D01*
X339263Y86108D01*
X339438Y85860D01*
X339503Y85564D01*
X339448Y85266D01*
X339280Y85013D01*
X329796Y75529D01*
X329555Y75366D01*
X329257Y75306D01*
X327802Y75306D01*
X324694Y72198D01*
X324694Y67802D01*
X327802Y64694D01*
X332198Y64694D01*
X335306Y67802D01*
X335306Y72198D01*
X334657Y72847D01*
X334499Y73077D01*
X334434Y73373D01*
X334490Y73671D01*
X334657Y73924D01*
X344786Y84053D01*
X344786Y86367D01*
X344871Y86716D01*
X345060Y86953D01*
X345327Y87097D01*
X345629Y87125D01*
X345918Y87033D01*
X346149Y86836D01*
X346284Y86565D01*
X349559Y74342D01*
X349576Y74264D01*
X355415Y37396D01*
X355423Y37316D01*
X357377Y40D01*
X357377Y-40D01*
X355423Y-37316D01*
X355415Y-37396D01*
X349576Y-74264D01*
X349559Y-74342D01*
X339898Y-110398D01*
X339873Y-110473D01*
X326496Y-145322D01*
X326464Y-145395D01*
X309517Y-178654D01*
X309478Y-178723D01*
X289147Y-210029D01*
X289101Y-210093D01*
X265610Y-239102D01*
X265556Y-239162D01*
X239162Y-265556D01*
X239102Y-265610D01*
X210093Y-289101D01*
X210029Y-289147D01*
X178723Y-309478D01*
X178654Y-309517D01*
X168806Y-314535D01*
X168490Y-314618D01*
X168191Y-314569D01*
X167934Y-314408D01*
X167761Y-314159D01*
X167698Y-313862D01*
X167756Y-313565D01*
X169940Y-308292D01*
X169940Y-306162D01*
X156162Y-306162D01*
X156162Y-320321D01*
X155681Y-320321D01*
X155692Y-320335D01*
X155783Y-320624D01*
X155753Y-320926D01*
X155608Y-321192D01*
X155371Y-321381D01*
X145395Y-326464D01*
X145322Y-326496D01*
X110473Y-339873D01*
X110398Y-339898D01*
X74342Y-349559D01*
X74264Y-349576D01*
X37396Y-355415D01*
X37316Y-355423D01*
G37*
%LPC*%
G36*
X1824Y321076D02*
X9526Y321076D01*
X10419Y321968D01*
X10419Y328582D01*
X9526Y329475D01*
X8723Y329475D01*
X8448Y329526D01*
X8193Y329689D01*
X8021Y329939D01*
X7961Y330237D01*
X7961Y342642D01*
X8017Y342928D01*
X8184Y343180D01*
X10306Y345302D01*
X10306Y349698D01*
X7198Y352806D01*
X2802Y352806D01*
X-306Y349698D01*
X-306Y345302D01*
X2842Y342154D01*
X2902Y342143D01*
X3157Y341979D01*
X3329Y341729D01*
X3389Y341432D01*
X3389Y330237D01*
X3338Y329962D01*
X3174Y329706D01*
X2924Y329535D01*
X2627Y329475D01*
X1824Y329475D01*
X931Y328582D01*
X931Y321968D01*
X1824Y321076D01*
G37*
G36*
X-23151Y321076D02*
X-15449Y321076D01*
X-14556Y321968D01*
X-14556Y328582D01*
X-15449Y329475D01*
X-16952Y329475D01*
X-17227Y329526D01*
X-17482Y329689D01*
X-17654Y329939D01*
X-17714Y330237D01*
X-17714Y336967D01*
X-17658Y337253D01*
X-17491Y337505D01*
X-14694Y340302D01*
X-14694Y344698D01*
X-17802Y347806D01*
X-22198Y347806D01*
X-25306Y344698D01*
X-25306Y340302D01*
X-22509Y337505D01*
X-22346Y337264D01*
X-22286Y336967D01*
X-22286Y330237D01*
X-22337Y329962D01*
X-22501Y329706D01*
X-22751Y329535D01*
X-23048Y329475D01*
X-23151Y329475D01*
X-24044Y328582D01*
X-24044Y321968D01*
X-23151Y321076D01*
G37*
G36*
X-142198Y277194D02*
X-137802Y277194D01*
X-134694Y280302D01*
X-134694Y284698D01*
X-137491Y287495D01*
X-137654Y287736D01*
X-137714Y288033D01*
X-137714Y307012D01*
X-137658Y307298D01*
X-137491Y307551D01*
X-128309Y316733D01*
X-128068Y316896D01*
X-127770Y316956D01*
X-123268Y316956D01*
X-122376Y317849D01*
X-122376Y322351D01*
X-122320Y322637D01*
X-122152Y322890D01*
X-121925Y323117D01*
X-121706Y323270D01*
X-121411Y323340D01*
X-121112Y323289D01*
X-120856Y323125D01*
X-120685Y322875D01*
X-120625Y322578D01*
X-120625Y317849D01*
X-119732Y316956D01*
X-113118Y316956D01*
X-112226Y317849D01*
X-112226Y325551D01*
X-113118Y326444D01*
X-116758Y326444D01*
X-117022Y326491D01*
X-117280Y326650D01*
X-117455Y326898D01*
X-117520Y327194D01*
X-117465Y327492D01*
X-117297Y327745D01*
X-115051Y329991D01*
X-114810Y330154D01*
X-114512Y330214D01*
X-106263Y330214D01*
X-105977Y330158D01*
X-105724Y329991D01*
X-96977Y321244D01*
X-96812Y320997D01*
X-95372Y317520D01*
X-92800Y314948D01*
X-89439Y313556D01*
X-70561Y313556D01*
X-67200Y314948D01*
X-64628Y317520D01*
X-63236Y320881D01*
X-63236Y324519D01*
X-64628Y327880D01*
X-67200Y330452D01*
X-70561Y331844D01*
X-89439Y331844D01*
X-92800Y330452D01*
X-95372Y327880D01*
X-95455Y327678D01*
X-95604Y327449D01*
X-95851Y327273D01*
X-96147Y327208D01*
X-96445Y327264D01*
X-96698Y327431D01*
X-104053Y334786D01*
X-116722Y334786D01*
X-124841Y326667D01*
X-125082Y326504D01*
X-125380Y326444D01*
X-129882Y326444D01*
X-130775Y325551D01*
X-130775Y321049D01*
X-130830Y320763D01*
X-130998Y320510D01*
X-142286Y309222D01*
X-142286Y288033D01*
X-142342Y287747D01*
X-142509Y287495D01*
X-145306Y284698D01*
X-145306Y280302D01*
X-142198Y277194D01*
G37*
G36*
X105462Y327760D02*
X114752Y327760D01*
X116240Y329248D01*
X116240Y333538D01*
X105462Y333538D01*
X105462Y327760D01*
G37*
G36*
X94648Y327760D02*
X103938Y327760D01*
X103938Y333538D01*
X93160Y333538D01*
X93160Y329248D01*
X94648Y327760D01*
G37*
G36*
X-89439Y288156D02*
X-70561Y288156D01*
X-67200Y289548D01*
X-64628Y292120D01*
X-63236Y295481D01*
X-63236Y299119D01*
X-64628Y302480D01*
X-67200Y305052D01*
X-70561Y306444D01*
X-89439Y306444D01*
X-92800Y305052D01*
X-95372Y302480D01*
X-96764Y299119D01*
X-96764Y298248D01*
X-96815Y297973D01*
X-96979Y297718D01*
X-97229Y297546D01*
X-97526Y297486D01*
X-110764Y297486D01*
X-111038Y297537D01*
X-111294Y297701D01*
X-111465Y297951D01*
X-111526Y298248D01*
X-111526Y299051D01*
X-112418Y299944D01*
X-119032Y299944D01*
X-119925Y299051D01*
X-119925Y291349D01*
X-119032Y290456D01*
X-112418Y290456D01*
X-111526Y291349D01*
X-111526Y292152D01*
X-111474Y292427D01*
X-111311Y292682D01*
X-111061Y292854D01*
X-110764Y292914D01*
X-96210Y292914D01*
X-95929Y292861D01*
X-95675Y292695D01*
X-95506Y292444D01*
X-95372Y292120D01*
X-92800Y289548D01*
X-89439Y288156D01*
G37*
G36*
X-129698Y259694D02*
X-125302Y259694D01*
X-122194Y262802D01*
X-122194Y267198D01*
X-124991Y269995D01*
X-125154Y270236D01*
X-125214Y270533D01*
X-125214Y289694D01*
X-125163Y289969D01*
X-124999Y290224D01*
X-124749Y290396D01*
X-124452Y290456D01*
X-122568Y290456D01*
X-121676Y291349D01*
X-121676Y299051D01*
X-122568Y299944D01*
X-129182Y299944D01*
X-130075Y299051D01*
X-130075Y291349D01*
X-130009Y291283D01*
X-129846Y291042D01*
X-129786Y290745D01*
X-129786Y270533D01*
X-129842Y270247D01*
X-130009Y269995D01*
X-132806Y267198D01*
X-132806Y262802D01*
X-129698Y259694D01*
G37*
G36*
X109508Y286462D02*
X114086Y286462D01*
X114086Y289898D01*
X112598Y291386D01*
X109508Y291386D01*
X109508Y286462D01*
G37*
G36*
X-152198Y237194D02*
X-147802Y237194D01*
X-145005Y239991D01*
X-144764Y240154D01*
X-144467Y240214D01*
X-131737Y240214D01*
X-131462Y240163D01*
X-131206Y239999D01*
X-131035Y239749D01*
X-130975Y239452D01*
X-130975Y238849D01*
X-130082Y237956D01*
X-123468Y237956D01*
X-122576Y238849D01*
X-122576Y246551D01*
X-123468Y247444D01*
X-130082Y247444D01*
X-130975Y246551D01*
X-130975Y245548D01*
X-131026Y245273D01*
X-131189Y245018D01*
X-131439Y244846D01*
X-131737Y244786D01*
X-144467Y244786D01*
X-144753Y244842D01*
X-145005Y245009D01*
X-147802Y247806D01*
X-152198Y247806D01*
X-155306Y244698D01*
X-155306Y240302D01*
X-152198Y237194D01*
G37*
G36*
X-219899Y195796D02*
X-211901Y195796D01*
X-204512Y198857D01*
X-198857Y204512D01*
X-195796Y211901D01*
X-195796Y219899D01*
X-198857Y227288D01*
X-204512Y232943D01*
X-211901Y236004D01*
X-219899Y236004D01*
X-227288Y232943D01*
X-232943Y227288D01*
X-236004Y219899D01*
X-236004Y211901D01*
X-232943Y204512D01*
X-227288Y198857D01*
X-219899Y195796D01*
G37*
G36*
X211901Y195796D02*
X219899Y195796D01*
X227288Y198857D01*
X232943Y204512D01*
X236004Y211901D01*
X236004Y219899D01*
X232943Y227288D01*
X227288Y232943D01*
X219899Y236004D01*
X211901Y236004D01*
X204512Y232943D01*
X198857Y227288D01*
X195796Y219899D01*
X195796Y211901D01*
X198857Y204512D01*
X204512Y198857D01*
X211901Y195796D01*
G37*
G36*
X12262Y223308D02*
X17186Y223308D01*
X17186Y226398D01*
X15698Y227886D01*
X12262Y227886D01*
X12262Y223308D01*
G37*
G36*
X-152198Y212194D02*
X-147802Y212194D01*
X-144805Y215191D01*
X-144564Y215354D01*
X-144267Y215414D01*
X-130037Y215414D01*
X-129762Y215363D01*
X-129506Y215199D01*
X-129335Y214949D01*
X-129275Y214652D01*
X-129275Y213849D01*
X-128382Y212956D01*
X-121768Y212956D01*
X-120876Y213849D01*
X-120876Y221551D01*
X-121768Y222444D01*
X-128382Y222444D01*
X-129275Y221551D01*
X-129275Y220748D01*
X-129326Y220473D01*
X-129489Y220218D01*
X-129739Y220046D01*
X-130037Y219986D01*
X-144667Y219986D01*
X-144953Y220042D01*
X-145205Y220209D01*
X-147802Y222806D01*
X-152198Y222806D01*
X-155306Y219698D01*
X-155306Y215302D01*
X-152198Y212194D01*
G37*
G36*
X-240951Y6576D02*
X-233249Y6576D01*
X-232356Y7468D01*
X-232356Y14082D01*
X-233249Y14975D01*
X-233544Y14975D01*
X-233819Y15026D01*
X-234074Y15189D01*
X-234246Y15439D01*
X-234306Y15737D01*
X-234306Y27297D01*
X-234255Y27572D01*
X-234091Y27827D01*
X-233841Y27999D01*
X-233544Y28059D01*
X-232169Y28059D01*
X-231276Y28952D01*
X-231276Y39840D01*
X-231220Y40126D01*
X-231053Y40379D01*
X-196949Y74483D01*
X-196707Y74646D01*
X-196410Y74706D01*
X-52525Y74706D01*
X-52239Y74650D01*
X-51987Y74483D01*
X-49698Y72194D01*
X-45302Y72194D01*
X-42194Y75302D01*
X-42194Y79698D01*
X-45302Y82806D01*
X-49698Y82806D01*
X-51987Y80517D01*
X-52228Y80354D01*
X-52525Y80294D01*
X-199040Y80294D01*
X-230659Y48675D01*
X-230890Y48517D01*
X-231186Y48452D01*
X-231484Y48508D01*
X-231737Y48675D01*
X-232169Y49107D01*
X-233244Y49107D01*
X-233519Y49158D01*
X-233774Y49322D01*
X-233946Y49572D01*
X-234006Y49869D01*
X-234006Y87957D01*
X-277783Y131734D01*
X-277946Y131976D01*
X-278006Y132273D01*
X-278006Y147297D01*
X-277955Y147572D01*
X-277791Y147827D01*
X-277541Y147999D01*
X-277244Y148059D01*
X-276169Y148059D01*
X-275839Y148389D01*
X-275608Y148547D01*
X-275312Y148612D01*
X-275014Y148556D01*
X-274761Y148389D01*
X-274431Y148059D01*
X-272848Y148059D01*
X-272573Y148008D01*
X-272318Y147844D01*
X-272146Y147594D01*
X-272086Y147297D01*
X-272086Y128853D01*
X-238447Y95214D01*
X-145533Y95214D01*
X-145247Y95158D01*
X-144995Y94991D01*
X-142198Y92194D01*
X-137802Y92194D01*
X-134694Y95302D01*
X-134694Y99698D01*
X-137802Y102806D01*
X-142198Y102806D01*
X-144995Y100009D01*
X-145236Y99846D01*
X-145533Y99786D01*
X-236237Y99786D01*
X-236523Y99842D01*
X-236776Y100009D01*
X-267291Y130524D01*
X-267454Y130765D01*
X-267514Y131063D01*
X-267514Y147297D01*
X-267463Y147572D01*
X-267299Y147827D01*
X-267049Y147999D01*
X-266752Y148059D01*
X-265169Y148059D01*
X-264839Y148389D01*
X-264608Y148547D01*
X-264312Y148612D01*
X-264014Y148556D01*
X-263761Y148389D01*
X-263431Y148059D01*
X-261848Y148059D01*
X-261573Y148008D01*
X-261318Y147844D01*
X-261146Y147594D01*
X-261086Y147297D01*
X-261086Y140353D01*
X-238447Y117714D01*
X-145533Y117714D01*
X-145247Y117658D01*
X-144995Y117491D01*
X-142198Y114694D01*
X-137802Y114694D01*
X-134694Y117802D01*
X-134694Y122198D01*
X-137802Y125306D01*
X-142198Y125306D01*
X-144995Y122509D01*
X-145236Y122346D01*
X-145533Y122286D01*
X-236237Y122286D01*
X-236523Y122342D01*
X-236776Y122509D01*
X-256291Y142024D01*
X-256454Y142265D01*
X-256514Y142563D01*
X-256514Y147297D01*
X-256463Y147572D01*
X-256299Y147827D01*
X-256049Y147999D01*
X-255752Y148059D01*
X-254169Y148059D01*
X-253839Y148389D01*
X-253608Y148547D01*
X-253312Y148612D01*
X-253014Y148556D01*
X-252761Y148389D01*
X-252431Y148059D01*
X-248557Y148059D01*
X-248271Y148003D01*
X-248019Y147836D01*
X-240397Y140214D01*
X-145533Y140214D01*
X-145247Y140158D01*
X-144995Y139991D01*
X-142198Y137194D01*
X-137802Y137194D01*
X-134694Y140302D01*
X-134694Y144698D01*
X-137802Y147806D01*
X-142198Y147806D01*
X-144995Y145009D01*
X-145236Y144846D01*
X-145533Y144786D01*
X-238187Y144786D01*
X-238473Y144842D01*
X-238726Y145009D01*
X-240475Y146758D01*
X-240628Y146978D01*
X-240698Y147273D01*
X-240647Y147572D01*
X-240484Y147827D01*
X-240234Y147999D01*
X-239936Y148059D01*
X-232169Y148059D01*
X-231276Y148952D01*
X-231276Y160558D01*
X-231220Y160844D01*
X-231053Y161097D01*
X-214659Y177491D01*
X-214418Y177654D01*
X-214120Y177714D01*
X-146263Y177714D01*
X-145977Y177658D01*
X-145724Y177491D01*
X-115009Y146776D01*
X-114846Y146535D01*
X-114786Y146237D01*
X-114786Y103033D01*
X-114842Y102747D01*
X-115009Y102495D01*
X-117806Y99698D01*
X-117806Y95302D01*
X-114698Y92194D01*
X-110302Y92194D01*
X-107194Y95302D01*
X-107194Y99698D01*
X-109991Y102495D01*
X-110154Y102736D01*
X-110214Y103033D01*
X-110214Y148447D01*
X-144053Y182286D01*
X-216330Y182286D01*
X-230300Y168316D01*
X-230530Y168158D01*
X-230827Y168093D01*
X-231125Y168148D01*
X-231378Y168316D01*
X-232169Y169107D01*
X-241431Y169107D01*
X-241761Y168777D01*
X-241992Y168619D01*
X-242288Y168554D01*
X-242586Y168610D01*
X-242839Y168777D01*
X-243169Y169107D01*
X-252431Y169107D01*
X-252761Y168777D01*
X-252992Y168619D01*
X-253288Y168554D01*
X-253586Y168610D01*
X-253839Y168777D01*
X-254169Y169107D01*
X-263431Y169107D01*
X-263761Y168777D01*
X-263992Y168619D01*
X-264288Y168554D01*
X-264586Y168610D01*
X-264839Y168777D01*
X-265169Y169107D01*
X-274431Y169107D01*
X-274761Y168777D01*
X-274992Y168619D01*
X-275288Y168554D01*
X-275586Y168610D01*
X-275839Y168777D01*
X-276169Y169107D01*
X-285431Y169107D01*
X-285761Y168777D01*
X-285992Y168619D01*
X-286288Y168554D01*
X-286586Y168610D01*
X-286839Y168777D01*
X-287169Y169107D01*
X-296416Y169107D01*
X-296702Y169163D01*
X-296955Y169330D01*
X-297748Y170123D01*
X-302038Y170123D01*
X-302038Y147043D01*
X-297748Y147043D01*
X-296955Y147836D01*
X-296714Y147999D01*
X-296416Y148059D01*
X-287169Y148059D01*
X-286839Y148389D01*
X-286608Y148547D01*
X-286312Y148612D01*
X-286014Y148556D01*
X-285761Y148389D01*
X-285431Y148059D01*
X-284356Y148059D01*
X-284081Y148008D01*
X-283826Y147844D01*
X-283654Y147594D01*
X-283594Y147297D01*
X-283594Y129643D01*
X-239817Y85866D01*
X-239654Y85624D01*
X-239594Y85327D01*
X-239594Y49869D01*
X-239645Y49594D01*
X-239809Y49339D01*
X-240059Y49167D01*
X-240356Y49107D01*
X-241431Y49107D01*
X-241761Y48777D01*
X-241992Y48619D01*
X-242288Y48554D01*
X-242586Y48610D01*
X-242839Y48777D01*
X-243169Y49107D01*
X-252431Y49107D01*
X-252761Y48777D01*
X-252992Y48619D01*
X-253288Y48554D01*
X-253586Y48610D01*
X-253839Y48777D01*
X-254169Y49107D01*
X-263431Y49107D01*
X-263761Y48777D01*
X-263992Y48619D01*
X-264288Y48554D01*
X-264586Y48610D01*
X-264839Y48777D01*
X-265169Y49107D01*
X-274431Y49107D01*
X-274761Y48777D01*
X-274992Y48619D01*
X-275288Y48554D01*
X-275586Y48610D01*
X-275839Y48777D01*
X-276169Y49107D01*
X-285416Y49107D01*
X-285702Y49163D01*
X-285955Y49330D01*
X-286748Y50123D01*
X-291038Y50123D01*
X-291038Y27043D01*
X-286748Y27043D01*
X-285955Y27836D01*
X-285714Y27999D01*
X-285416Y28059D01*
X-276169Y28059D01*
X-275839Y28389D01*
X-275608Y28547D01*
X-275312Y28612D01*
X-275014Y28556D01*
X-274761Y28389D01*
X-274431Y28059D01*
X-265169Y28059D01*
X-264839Y28389D01*
X-264608Y28547D01*
X-264312Y28612D01*
X-264014Y28556D01*
X-263761Y28389D01*
X-263431Y28059D01*
X-254169Y28059D01*
X-253839Y28389D01*
X-253608Y28547D01*
X-253312Y28612D01*
X-253014Y28556D01*
X-252761Y28389D01*
X-252431Y28059D01*
X-243169Y28059D01*
X-242839Y28389D01*
X-242608Y28547D01*
X-242312Y28612D01*
X-242014Y28556D01*
X-241761Y28389D01*
X-241431Y28059D01*
X-240656Y28059D01*
X-240381Y28008D01*
X-240126Y27844D01*
X-239954Y27594D01*
X-239894Y27297D01*
X-239894Y15737D01*
X-239945Y15462D01*
X-240109Y15206D01*
X-240359Y15035D01*
X-240656Y14975D01*
X-240951Y14975D01*
X-241844Y14082D01*
X-241844Y7468D01*
X-240951Y6576D01*
G37*
G36*
X-43786Y170962D02*
X-39208Y170962D01*
X-39208Y175886D01*
X-42298Y175886D01*
X-43786Y174398D01*
X-43786Y170962D01*
G37*
G36*
X-162038Y159345D02*
X-156260Y159345D01*
X-156260Y168635D01*
X-157748Y170123D01*
X-162038Y170123D01*
X-162038Y159345D01*
G37*
G36*
X-167852Y147043D02*
X-163562Y147043D01*
X-163562Y170123D01*
X-167852Y170123D01*
X-168645Y169330D01*
X-168887Y169167D01*
X-169184Y169107D01*
X-178431Y169107D01*
X-178761Y168777D01*
X-178992Y168619D01*
X-179288Y168554D01*
X-179586Y168610D01*
X-179839Y168777D01*
X-180169Y169107D01*
X-189431Y169107D01*
X-189761Y168777D01*
X-189992Y168619D01*
X-190288Y168554D01*
X-190586Y168610D01*
X-190839Y168777D01*
X-191169Y169107D01*
X-200431Y169107D01*
X-200761Y168777D01*
X-200992Y168619D01*
X-201288Y168554D01*
X-201586Y168610D01*
X-201839Y168777D01*
X-202169Y169107D01*
X-211431Y169107D01*
X-212324Y168214D01*
X-212324Y148952D01*
X-211431Y148059D01*
X-202169Y148059D01*
X-201839Y148389D01*
X-201608Y148547D01*
X-201312Y148612D01*
X-201014Y148556D01*
X-200761Y148389D01*
X-200431Y148059D01*
X-191169Y148059D01*
X-190839Y148389D01*
X-190608Y148547D01*
X-190312Y148612D01*
X-190014Y148556D01*
X-189761Y148389D01*
X-189431Y148059D01*
X-180169Y148059D01*
X-179839Y148389D01*
X-179608Y148547D01*
X-179312Y148612D01*
X-179014Y148556D01*
X-178761Y148389D01*
X-178431Y148059D01*
X-169184Y148059D01*
X-168898Y148003D01*
X-168645Y147836D01*
X-167852Y147043D01*
G37*
G36*
X-309340Y159345D02*
X-303562Y159345D01*
X-303562Y170123D01*
X-307852Y170123D01*
X-309340Y168635D01*
X-309340Y159345D01*
G37*
G36*
X-307852Y147043D02*
X-303562Y147043D01*
X-303562Y157821D01*
X-309340Y157821D01*
X-309340Y148531D01*
X-307852Y147043D01*
G37*
G36*
X-162038Y147043D02*
X-157748Y147043D01*
X-156260Y148531D01*
X-156260Y157821D01*
X-162038Y157821D01*
X-162038Y147043D01*
G37*
G36*
X272220Y140462D02*
X289238Y140462D01*
X289238Y149860D01*
X280359Y149860D01*
X276625Y148313D01*
X273767Y145455D01*
X272220Y141721D01*
X272220Y140462D01*
G37*
G36*
X290762Y140462D02*
X307780Y140462D01*
X307780Y141721D01*
X306233Y145455D01*
X303375Y148313D01*
X299641Y149860D01*
X290762Y149860D01*
X290762Y140462D01*
G37*
G36*
X290762Y129540D02*
X299641Y129540D01*
X303375Y131087D01*
X306233Y133945D01*
X307780Y137679D01*
X307780Y138938D01*
X290762Y138938D01*
X290762Y129540D01*
G37*
G36*
X280359Y129540D02*
X289238Y129540D01*
X289238Y138938D01*
X272220Y138938D01*
X272220Y137679D01*
X273767Y133945D01*
X276625Y131087D01*
X280359Y129540D01*
G37*
G36*
X-67038Y111514D02*
X-63602Y111514D01*
X-62115Y113002D01*
X-62115Y116092D01*
X-67038Y116092D01*
X-67038Y111514D01*
G37*
G36*
X-71998Y111514D02*
X-68562Y111514D01*
X-68562Y116092D01*
X-73486Y116092D01*
X-73486Y113002D01*
X-71998Y111514D01*
G37*
G36*
X-88798Y110514D02*
X-85362Y110514D01*
X-85362Y115092D01*
X-90286Y115092D01*
X-90286Y112002D01*
X-88798Y110514D01*
G37*
G36*
X-83838Y110514D02*
X-80402Y110514D01*
X-78915Y112002D01*
X-78915Y115092D01*
X-83838Y115092D01*
X-83838Y110514D01*
G37*
G36*
X66562Y107514D02*
X69998Y107514D01*
X71486Y109002D01*
X71486Y112092D01*
X66562Y112092D01*
X66562Y107514D01*
G37*
G36*
X61602Y107514D02*
X65038Y107514D01*
X65038Y112092D01*
X60115Y112092D01*
X60115Y109002D01*
X61602Y107514D01*
G37*
G36*
X16402Y101514D02*
X19838Y101514D01*
X19838Y106092D01*
X14915Y106092D01*
X14915Y103002D01*
X16402Y101514D01*
G37*
G36*
X-40191Y94962D02*
X-35737Y94962D01*
X-35737Y99960D01*
X-38703Y99960D01*
X-40191Y98472D01*
X-40191Y94962D01*
G37*
G36*
X280561Y79756D02*
X299439Y79756D01*
X302800Y81148D01*
X305372Y83720D01*
X306764Y87081D01*
X306764Y90719D01*
X305372Y94080D01*
X302800Y96652D01*
X299439Y98044D01*
X280561Y98044D01*
X277200Y96652D01*
X274628Y94080D01*
X273236Y90719D01*
X273236Y87081D01*
X274628Y83720D01*
X277200Y81148D01*
X280561Y79756D01*
G37*
G36*
X-38703Y88440D02*
X-35737Y88440D01*
X-35737Y93438D01*
X-40191Y93438D01*
X-40191Y89928D01*
X-38703Y88440D01*
G37*
G36*
X330402Y86314D02*
X333838Y86314D01*
X333838Y90892D01*
X328915Y90892D01*
X328915Y87802D01*
X330402Y86314D01*
G37*
G36*
X315279Y85591D02*
X318715Y85591D01*
X318715Y90169D01*
X313791Y90169D01*
X313791Y87078D01*
X315279Y85591D01*
G37*
G36*
X320239Y85591D02*
X323674Y85591D01*
X325162Y87078D01*
X325162Y90169D01*
X320239Y90169D01*
X320239Y85591D01*
G37*
G36*
X57802Y69694D02*
X62198Y69694D01*
X64995Y72491D01*
X65236Y72654D01*
X65533Y72714D01*
X204467Y72714D01*
X204753Y72658D01*
X205005Y72491D01*
X207802Y69694D01*
X212198Y69694D01*
X215306Y72802D01*
X215306Y77198D01*
X212198Y80306D01*
X207802Y80306D01*
X205005Y77509D01*
X204764Y77346D01*
X204467Y77286D01*
X65533Y77286D01*
X65247Y77342D01*
X64995Y77509D01*
X62198Y80306D01*
X57802Y80306D01*
X54694Y77198D01*
X54694Y72802D01*
X57802Y69694D01*
G37*
G36*
X280561Y54356D02*
X299439Y54356D01*
X302800Y55748D01*
X305372Y58320D01*
X306764Y61681D01*
X306764Y65319D01*
X305372Y68680D01*
X302800Y71252D01*
X299439Y72644D01*
X280561Y72644D01*
X277200Y71252D01*
X274628Y68680D01*
X273236Y65319D01*
X273236Y61681D01*
X274628Y58320D01*
X277200Y55748D01*
X280561Y54356D01*
G37*
G36*
X-135017Y17159D02*
X-129183Y17159D01*
X-128290Y18051D01*
X-128290Y22367D01*
X-128221Y22683D01*
X-128043Y22929D01*
X-127761Y23188D01*
X-127292Y26452D01*
X-128181Y27925D01*
X-128290Y28319D01*
X-128290Y31890D01*
X-128239Y32165D01*
X-128075Y32420D01*
X-127825Y32592D01*
X-127528Y32652D01*
X-125812Y32652D01*
X-125757Y32661D01*
X-125756Y32664D01*
X-125750Y32704D01*
X-125750Y38686D01*
X-125759Y38741D01*
X-125762Y38742D01*
X-125802Y38748D01*
X-127528Y38748D01*
X-127803Y38799D01*
X-128058Y38963D01*
X-128230Y39213D01*
X-128290Y39510D01*
X-128290Y42952D01*
X-128234Y43238D01*
X-128067Y43490D01*
X-127528Y44029D01*
X-127528Y50130D01*
X-128232Y51829D01*
X-128290Y52121D01*
X-128290Y53349D01*
X-129158Y54217D01*
X-129323Y54464D01*
X-130748Y57903D01*
X-136697Y63852D01*
X-144470Y67072D01*
X-163654Y67072D01*
X-170407Y64275D01*
X-175575Y59107D01*
X-178372Y52354D01*
X-178372Y50587D01*
X-178419Y50323D01*
X-178578Y50065D01*
X-178826Y49890D01*
X-179122Y49825D01*
X-179420Y49880D01*
X-179673Y50048D01*
X-179748Y50123D01*
X-184038Y50123D01*
X-184038Y27043D01*
X-179748Y27043D01*
X-178955Y27836D01*
X-178714Y27999D01*
X-178416Y28059D01*
X-169184Y28059D01*
X-168898Y28003D01*
X-168645Y27836D01*
X-167852Y27043D01*
X-163562Y27043D01*
X-163562Y50123D01*
X-167881Y50123D01*
X-168054Y50143D01*
X-168330Y50270D01*
X-168534Y50494D01*
X-168635Y50780D01*
X-168617Y51082D01*
X-168068Y53130D01*
X-167871Y53472D01*
X-164772Y56571D01*
X-164430Y56768D01*
X-160197Y57902D01*
X-160000Y57928D01*
X-148677Y57928D01*
X-148480Y57902D01*
X-142858Y56396D01*
X-142517Y56199D01*
X-138401Y52083D01*
X-138204Y51742D01*
X-136698Y46120D01*
X-136672Y45923D01*
X-136672Y44029D01*
X-136133Y43490D01*
X-135970Y43249D01*
X-135910Y42952D01*
X-135910Y39510D01*
X-135961Y39235D01*
X-136125Y38980D01*
X-136375Y38808D01*
X-136672Y38748D01*
X-138388Y38748D01*
X-138443Y38739D01*
X-138444Y38736D01*
X-138450Y38696D01*
X-138450Y32714D01*
X-138441Y32659D01*
X-138438Y32658D01*
X-138398Y32652D01*
X-136672Y32652D01*
X-136397Y32601D01*
X-136142Y32437D01*
X-135970Y32187D01*
X-135910Y31890D01*
X-135910Y29906D01*
X-135933Y29721D01*
X-136064Y29447D01*
X-136291Y29247D01*
X-137950Y28289D01*
X-140091Y24580D01*
X-140091Y22571D01*
X-138936Y19334D01*
X-136113Y17631D01*
X-135945Y17655D01*
X-135551Y17607D01*
X-135298Y17439D01*
X-135017Y17159D01*
G37*
G36*
X-13301Y57206D02*
X-7840Y57206D01*
X-7840Y60762D01*
X-11813Y60762D01*
X-13301Y59274D01*
X-13301Y57206D01*
G37*
G36*
X17053Y57206D02*
X22514Y57206D01*
X22514Y59274D01*
X21026Y60762D01*
X17053Y60762D01*
X17053Y57206D01*
G37*
G36*
X-11813Y52126D02*
X-7840Y52126D01*
X-7840Y55682D01*
X-13301Y55682D01*
X-13301Y53614D01*
X-11813Y52126D01*
G37*
G36*
X-2896Y22561D02*
X7006Y22561D01*
X7899Y23454D01*
X7899Y33356D01*
X7006Y34249D01*
X6310Y34249D01*
X6035Y34300D01*
X5780Y34464D01*
X5608Y34714D01*
X5548Y35011D01*
X5548Y42601D01*
X5599Y42876D01*
X5763Y43131D01*
X6013Y43303D01*
X6310Y43363D01*
X8199Y43363D01*
X8485Y43307D01*
X8738Y43140D01*
X9530Y42347D01*
X11345Y42347D01*
X11345Y49332D01*
X16171Y49332D01*
X16171Y51364D01*
X16222Y51639D01*
X16290Y51745D01*
X15529Y51745D01*
X15529Y55682D01*
X10068Y55682D01*
X10068Y55555D01*
X10016Y55280D01*
X9853Y55025D01*
X9603Y54853D01*
X9588Y54850D01*
X8738Y54000D01*
X8496Y53837D01*
X8199Y53777D01*
X4751Y53777D01*
X4619Y53748D01*
X4463Y53777D01*
X1014Y53777D01*
X728Y53833D01*
X475Y54000D01*
X-371Y54847D01*
X-623Y55008D01*
X-794Y55258D01*
X-855Y55555D01*
X-855Y55682D01*
X-6316Y55682D01*
X-6316Y51745D01*
X-7075Y51745D01*
X-7018Y51661D01*
X-6958Y51364D01*
X-6958Y49332D01*
X-2132Y49332D01*
X-2132Y42347D01*
X-1310Y42347D01*
X-1035Y42296D01*
X-780Y42132D01*
X-608Y41882D01*
X-548Y41585D01*
X-548Y35011D01*
X-599Y34736D01*
X-763Y34481D01*
X-1013Y34309D01*
X-1310Y34249D01*
X-2896Y34249D01*
X-3789Y33356D01*
X-3789Y23454D01*
X-2896Y22561D01*
G37*
G36*
X17053Y52126D02*
X21026Y52126D01*
X22514Y53614D01*
X22514Y55682D01*
X17053Y55682D01*
X17053Y52126D01*
G37*
G36*
X-27198Y44694D02*
X-22802Y44694D01*
X-19694Y47802D01*
X-19694Y52198D01*
X-22802Y55306D01*
X-27198Y55306D01*
X-30306Y52198D01*
X-30306Y47802D01*
X-27198Y44694D01*
G37*
G36*
X-280831Y-10724D02*
X-271569Y-10724D01*
X-270676Y-9831D01*
X-270676Y-3294D01*
X-270625Y-3019D01*
X-270461Y-2764D01*
X-270211Y-2592D01*
X-269914Y-2532D01*
X-260132Y-2532D01*
X-259857Y-2583D01*
X-259601Y-2747D01*
X-259430Y-2997D01*
X-259370Y-3294D01*
X-259370Y-3677D01*
X-258477Y-4570D01*
X-250923Y-4570D01*
X-250031Y-3677D01*
X-250031Y-2423D01*
X-249979Y-2148D01*
X-249816Y-1893D01*
X-249566Y-1721D01*
X-249269Y-1661D01*
X-242606Y-1661D01*
X-242331Y-1712D01*
X-242076Y-1876D01*
X-241904Y-2126D01*
X-241844Y-2423D01*
X-241844Y-2682D01*
X-240951Y-3575D01*
X-233249Y-3575D01*
X-232356Y-2682D01*
X-232356Y-2423D01*
X-232305Y-2148D01*
X-232141Y-1893D01*
X-231891Y-1721D01*
X-231594Y-1661D01*
X-226153Y-1661D01*
X-204514Y19978D01*
X-204514Y27297D01*
X-204463Y27572D01*
X-204299Y27827D01*
X-204049Y27999D01*
X-203752Y28059D01*
X-202169Y28059D01*
X-201839Y28389D01*
X-201608Y28547D01*
X-201312Y28612D01*
X-201014Y28556D01*
X-200761Y28389D01*
X-200431Y28059D01*
X-198848Y28059D01*
X-198573Y28008D01*
X-198318Y27844D01*
X-198146Y27594D01*
X-198086Y27297D01*
X-198086Y18837D01*
X-198137Y18562D01*
X-198301Y18306D01*
X-198551Y18135D01*
X-198848Y18075D01*
X-200451Y18075D01*
X-201344Y17182D01*
X-201344Y10568D01*
X-200451Y9676D01*
X-192749Y9676D01*
X-191856Y10568D01*
X-191856Y17182D01*
X-192749Y18075D01*
X-192752Y18075D01*
X-193027Y18126D01*
X-193282Y18289D01*
X-193454Y18539D01*
X-193514Y18837D01*
X-193514Y27297D01*
X-193463Y27572D01*
X-193299Y27827D01*
X-193049Y27999D01*
X-192752Y28059D01*
X-191184Y28059D01*
X-190898Y28003D01*
X-190645Y27836D01*
X-189852Y27043D01*
X-185562Y27043D01*
X-185562Y50123D01*
X-189852Y50123D01*
X-190645Y49330D01*
X-190887Y49167D01*
X-191184Y49107D01*
X-200431Y49107D01*
X-200761Y48777D01*
X-200992Y48619D01*
X-201288Y48554D01*
X-201586Y48610D01*
X-201839Y48777D01*
X-202169Y49107D01*
X-211431Y49107D01*
X-212324Y48214D01*
X-212324Y28952D01*
X-211431Y28059D01*
X-209848Y28059D01*
X-209573Y28008D01*
X-209318Y27844D01*
X-209146Y27594D01*
X-209086Y27297D01*
X-209086Y22188D01*
X-209142Y21902D01*
X-209309Y21649D01*
X-227824Y3134D01*
X-228065Y2971D01*
X-228363Y2911D01*
X-231594Y2911D01*
X-231869Y2962D01*
X-232124Y3126D01*
X-232296Y3376D01*
X-232356Y3673D01*
X-232356Y3932D01*
X-233249Y4825D01*
X-240951Y4825D01*
X-241844Y3932D01*
X-241844Y3673D01*
X-241895Y3398D01*
X-242059Y3143D01*
X-242309Y2971D01*
X-242606Y2911D01*
X-249441Y2911D01*
X-249727Y2967D01*
X-249979Y3134D01*
X-250188Y3343D01*
X-250346Y3573D01*
X-250411Y3869D01*
X-250356Y4168D01*
X-250188Y4420D01*
X-249015Y5594D01*
X-249015Y8684D01*
X-260386Y8684D01*
X-260386Y5594D01*
X-259212Y4420D01*
X-259054Y4190D01*
X-258989Y3894D01*
X-259045Y3596D01*
X-259212Y3343D01*
X-259370Y3185D01*
X-259370Y2802D01*
X-259421Y2527D01*
X-259584Y2272D01*
X-259834Y2100D01*
X-260132Y2040D01*
X-269914Y2040D01*
X-270189Y2091D01*
X-270444Y2255D01*
X-270616Y2505D01*
X-270676Y2802D01*
X-270676Y9431D01*
X-271569Y10324D01*
X-280831Y10324D01*
X-281724Y9431D01*
X-281724Y-9831D01*
X-280831Y-10724D01*
G37*
G36*
X-296852Y27043D02*
X-292562Y27043D01*
X-292562Y50123D01*
X-296852Y50123D01*
X-297645Y49330D01*
X-297887Y49167D01*
X-298184Y49107D01*
X-307431Y49107D01*
X-308324Y48214D01*
X-308324Y28952D01*
X-307431Y28059D01*
X-298184Y28059D01*
X-297898Y28003D01*
X-297645Y27836D01*
X-296852Y27043D01*
G37*
G36*
X-162038Y39345D02*
X-156260Y39345D01*
X-156260Y48635D01*
X-157748Y50123D01*
X-162038Y50123D01*
X-162038Y39345D01*
G37*
G36*
X12869Y42347D02*
X14683Y42347D01*
X16171Y43835D01*
X16171Y47808D01*
X12869Y47808D01*
X12869Y42347D01*
G37*
G36*
X-5470Y42347D02*
X-3656Y42347D01*
X-3656Y47808D01*
X-6958Y47808D01*
X-6958Y43835D01*
X-5470Y42347D01*
G37*
G36*
X280561Y28956D02*
X299439Y28956D01*
X302800Y30348D01*
X305372Y32920D01*
X306764Y36281D01*
X306764Y39919D01*
X305372Y43280D01*
X302800Y45852D01*
X299439Y47244D01*
X280561Y47244D01*
X277200Y45852D01*
X274628Y43280D01*
X273376Y40256D01*
X273219Y40018D01*
X272969Y39846D01*
X272672Y39786D01*
X178033Y39786D01*
X177747Y39842D01*
X177495Y40009D01*
X174698Y42806D01*
X170302Y42806D01*
X167194Y39698D01*
X167194Y35302D01*
X170302Y32194D01*
X174698Y32194D01*
X177495Y34991D01*
X177736Y35154D01*
X178033Y35214D01*
X273169Y35214D01*
X273449Y35161D01*
X273703Y34995D01*
X273873Y34744D01*
X274628Y32920D01*
X277200Y30348D01*
X280561Y28956D01*
G37*
G36*
X-162038Y27043D02*
X-157748Y27043D01*
X-156260Y28531D01*
X-156260Y37821D01*
X-162038Y37821D01*
X-162038Y27043D01*
G37*
G36*
X-16738Y3262D02*
X8924Y3262D01*
X8924Y15445D01*
X8915Y15658D01*
X8892Y15854D01*
X8854Y16048D01*
X8801Y16238D01*
X8733Y16425D01*
X8651Y16605D01*
X8556Y16777D01*
X8446Y16943D01*
X8325Y17099D01*
X8192Y17245D01*
X8047Y17380D01*
X7893Y17504D01*
X7730Y17615D01*
X7558Y17714D01*
X7380Y17799D01*
X7195Y17869D01*
X7005Y17925D01*
X6812Y17966D01*
X6619Y17992D01*
X6362Y18004D01*
X-7584Y18004D01*
X-7859Y18055D01*
X-8114Y18218D01*
X-8286Y18469D01*
X-8346Y18766D01*
X-8346Y32715D01*
X-8355Y32928D01*
X-8378Y33124D01*
X-8416Y33318D01*
X-8469Y33508D01*
X-8537Y33695D01*
X-8619Y33875D01*
X-8714Y34047D01*
X-8824Y34213D01*
X-8945Y34369D01*
X-9078Y34515D01*
X-9223Y34650D01*
X-9377Y34774D01*
X-9540Y34885D01*
X-9712Y34984D01*
X-9890Y35069D01*
X-10075Y35139D01*
X-10265Y35195D01*
X-10458Y35236D01*
X-10651Y35262D01*
X-10908Y35274D01*
X-16738Y35274D01*
X-16738Y3262D01*
G37*
G36*
X-43924Y3262D02*
X-18262Y3262D01*
X-18262Y35274D01*
X-24095Y35274D01*
X-24308Y35265D01*
X-24504Y35242D01*
X-24698Y35204D01*
X-24888Y35151D01*
X-25075Y35083D01*
X-25255Y35001D01*
X-25427Y34906D01*
X-25593Y34796D01*
X-25749Y34675D01*
X-25895Y34542D01*
X-26030Y34397D01*
X-26154Y34243D01*
X-26265Y34080D01*
X-26364Y33908D01*
X-26449Y33730D01*
X-26519Y33545D01*
X-26575Y33355D01*
X-26616Y33162D01*
X-26642Y32969D01*
X-26654Y32712D01*
X-26654Y18766D01*
X-26705Y18491D01*
X-26868Y18236D01*
X-27119Y18064D01*
X-27416Y18004D01*
X-41365Y18004D01*
X-41578Y17995D01*
X-41774Y17972D01*
X-41968Y17934D01*
X-42158Y17881D01*
X-42345Y17813D01*
X-42525Y17731D01*
X-42697Y17636D01*
X-42863Y17526D01*
X-43019Y17405D01*
X-43165Y17272D01*
X-43300Y17127D01*
X-43424Y16973D01*
X-43535Y16810D01*
X-43634Y16638D01*
X-43719Y16460D01*
X-43789Y16275D01*
X-43845Y16085D01*
X-43886Y15892D01*
X-43912Y15699D01*
X-43924Y15442D01*
X-43924Y3262D01*
G37*
G36*
X-60760Y15687D02*
X-49240Y15687D01*
X-49240Y18653D01*
X-50767Y20180D01*
X-50925Y20410D01*
X-50990Y20706D01*
X-50935Y21004D01*
X-50767Y21257D01*
X-50159Y21865D01*
X-50041Y22049D01*
X-49791Y22221D01*
X-49494Y22281D01*
X-42277Y22281D01*
X-41741Y22503D01*
X-41450Y22561D01*
X-32104Y22561D01*
X-31211Y23454D01*
X-31211Y33356D01*
X-32104Y34249D01*
X-42006Y34249D01*
X-42899Y33356D01*
X-42899Y28916D01*
X-43021Y28503D01*
X-43233Y28286D01*
X-43512Y28169D01*
X-44946Y27884D01*
X-45094Y27869D01*
X-49494Y27869D01*
X-49769Y27920D01*
X-50024Y28084D01*
X-50169Y28295D01*
X-51149Y29275D01*
X-58851Y29275D01*
X-59744Y28382D01*
X-59744Y21768D01*
X-59233Y21257D01*
X-59075Y21027D01*
X-59010Y20731D01*
X-59066Y20432D01*
X-59233Y20180D01*
X-60760Y18653D01*
X-60760Y15687D01*
G37*
G36*
X280561Y3556D02*
X299439Y3556D01*
X302800Y4948D01*
X305372Y7520D01*
X306764Y10881D01*
X306764Y14519D01*
X305372Y17880D01*
X302800Y20452D01*
X299439Y21844D01*
X280561Y21844D01*
X277200Y20452D01*
X274628Y17880D01*
X273542Y15256D01*
X273385Y15018D01*
X273135Y14846D01*
X272838Y14786D01*
X178033Y14786D01*
X177747Y14842D01*
X177495Y15009D01*
X174698Y17806D01*
X170302Y17806D01*
X167194Y14698D01*
X167194Y10302D01*
X170302Y7194D01*
X174698Y7194D01*
X177495Y9991D01*
X177736Y10154D01*
X178033Y10214D01*
X273003Y10214D01*
X273284Y10161D01*
X273538Y9995D01*
X273707Y9744D01*
X274628Y7520D01*
X277200Y4948D01*
X280561Y3556D01*
G37*
G36*
X-253938Y10208D02*
X-249015Y10208D01*
X-249015Y13298D01*
X-250502Y14786D01*
X-253938Y14786D01*
X-253938Y10208D01*
G37*
G36*
X-260386Y10208D02*
X-255462Y10208D01*
X-255462Y14786D01*
X-258898Y14786D01*
X-260386Y13298D01*
X-260386Y10208D01*
G37*
G36*
X-59272Y9710D02*
X-55762Y9710D01*
X-55762Y14163D01*
X-60760Y14163D01*
X-60760Y11197D01*
X-59272Y9710D01*
G37*
G36*
X-54238Y9710D02*
X-50728Y9710D01*
X-49240Y11197D01*
X-49240Y14163D01*
X-54238Y14163D01*
X-54238Y9710D01*
G37*
G36*
X-317740Y562D02*
X-311962Y562D01*
X-311962Y11340D01*
X-316252Y11340D01*
X-317740Y9852D01*
X-317740Y562D01*
G37*
G36*
X-310438Y562D02*
X-304660Y562D01*
X-304660Y9852D01*
X-306148Y11340D01*
X-310438Y11340D01*
X-310438Y562D01*
G37*
G36*
X-164238Y-117144D02*
X-151248Y-117144D01*
X-149570Y-115467D01*
X-149340Y-115309D01*
X-149044Y-115243D01*
X-148746Y-115299D01*
X-148493Y-115467D01*
X-147831Y-116128D01*
X-122469Y-116128D01*
X-121576Y-115235D01*
X-121576Y-114360D01*
X-121525Y-114085D01*
X-121361Y-113830D01*
X-121111Y-113658D01*
X-120814Y-113598D01*
X-109843Y-113598D01*
X-109557Y-113654D01*
X-109305Y-113821D01*
X-108851Y-114275D01*
X-101149Y-114275D01*
X-100256Y-113382D01*
X-100256Y-106768D01*
X-100767Y-106257D01*
X-100925Y-106027D01*
X-100990Y-105731D01*
X-100935Y-105432D01*
X-100767Y-105180D01*
X-99240Y-103653D01*
X-99240Y-100687D01*
X-110760Y-100687D01*
X-110760Y-103653D01*
X-109233Y-105180D01*
X-109075Y-105410D01*
X-109010Y-105706D01*
X-109066Y-106004D01*
X-109233Y-106257D01*
X-109744Y-106768D01*
X-109744Y-107248D01*
X-109795Y-107523D01*
X-109959Y-107778D01*
X-110209Y-107950D01*
X-110506Y-108010D01*
X-120814Y-108010D01*
X-121089Y-107959D01*
X-121344Y-107795D01*
X-121516Y-107545D01*
X-121576Y-107248D01*
X-121576Y-106373D01*
X-122238Y-105711D01*
X-122396Y-105481D01*
X-122461Y-105185D01*
X-122405Y-104886D01*
X-122238Y-104634D01*
X-120560Y-102956D01*
X-120560Y-98866D01*
X-135912Y-98866D01*
X-135912Y-97342D01*
X-120560Y-97342D01*
X-120560Y-93252D01*
X-121519Y-92293D01*
X-121677Y-92062D01*
X-121742Y-91766D01*
X-121687Y-91468D01*
X-121519Y-91215D01*
X-120560Y-90256D01*
X-120560Y-86166D01*
X-135912Y-86166D01*
X-135912Y-84642D01*
X-120560Y-84642D01*
X-120560Y-80552D01*
X-121519Y-79593D01*
X-121677Y-79362D01*
X-121742Y-79066D01*
X-121687Y-78768D01*
X-121519Y-78515D01*
X-120560Y-77556D01*
X-120560Y-73466D01*
X-135912Y-73466D01*
X-135912Y-71942D01*
X-120560Y-71942D01*
X-120560Y-67852D01*
X-122238Y-66174D01*
X-122396Y-65944D01*
X-122461Y-65648D01*
X-122405Y-65350D01*
X-122238Y-65097D01*
X-121576Y-64435D01*
X-121576Y-55573D01*
X-122469Y-54680D01*
X-129435Y-54680D01*
X-129710Y-54629D01*
X-129965Y-54465D01*
X-130137Y-54215D01*
X-130197Y-53918D01*
X-130197Y6240D01*
X-130591Y6633D01*
X-130754Y6875D01*
X-130814Y7172D01*
X-130814Y8477D01*
X-131707Y9370D01*
X-138569Y9370D01*
X-139445Y8494D01*
X-139676Y8336D01*
X-139972Y8271D01*
X-140270Y8326D01*
X-140523Y8494D01*
X-141399Y9370D01*
X-148261Y9370D01*
X-149154Y8477D01*
X-149154Y6773D01*
X-149205Y6498D01*
X-149369Y6243D01*
X-149619Y6071D01*
X-149916Y6011D01*
X-191094Y6011D01*
X-191369Y6062D01*
X-191624Y6226D01*
X-191796Y6476D01*
X-191856Y6773D01*
X-191856Y7032D01*
X-192749Y7925D01*
X-200451Y7925D01*
X-201344Y7032D01*
X-201344Y418D01*
X-200675Y-251D01*
X-200517Y-481D01*
X-200452Y-777D01*
X-200508Y-1075D01*
X-200675Y-1328D01*
X-201470Y-2123D01*
X-201470Y-8985D01*
X-201312Y-9143D01*
X-201154Y-9373D01*
X-201089Y-9669D01*
X-201145Y-9968D01*
X-201312Y-10220D01*
X-202486Y-11394D01*
X-202486Y-14484D01*
X-191115Y-14484D01*
X-191115Y-11394D01*
X-192288Y-10220D01*
X-192446Y-9990D01*
X-192511Y-9694D01*
X-192456Y-9396D01*
X-192288Y-9143D01*
X-192131Y-8985D01*
X-192131Y-2123D01*
X-192725Y-1528D01*
X-192883Y-1298D01*
X-192948Y-1002D01*
X-192892Y-704D01*
X-192725Y-451D01*
X-191856Y418D01*
X-191856Y677D01*
X-191805Y952D01*
X-191641Y1207D01*
X-191391Y1379D01*
X-191094Y1439D01*
X-149916Y1439D01*
X-149641Y1388D01*
X-149386Y1224D01*
X-149214Y974D01*
X-149154Y677D01*
X-149154Y-77D01*
X-148261Y-970D01*
X-141397Y-970D01*
X-141184Y-822D01*
X-140889Y-752D01*
X-140590Y-803D01*
X-140335Y-966D01*
X-140163Y-1216D01*
X-140103Y-1513D01*
X-140103Y-53918D01*
X-140154Y-54193D01*
X-140318Y-54448D01*
X-140568Y-54620D01*
X-140865Y-54680D01*
X-147831Y-54680D01*
X-148493Y-55342D01*
X-148723Y-55500D01*
X-149019Y-55565D01*
X-149318Y-55509D01*
X-149570Y-55342D01*
X-151248Y-53664D01*
X-164238Y-53664D01*
X-164238Y-117144D01*
G37*
G36*
X-16738Y-30274D02*
X-10905Y-30274D01*
X-10692Y-30265D01*
X-10496Y-30242D01*
X-10302Y-30204D01*
X-10112Y-30151D01*
X-9925Y-30083D01*
X-9745Y-30001D01*
X-9573Y-29906D01*
X-9407Y-29796D01*
X-9251Y-29675D01*
X-9105Y-29542D01*
X-8970Y-29397D01*
X-8846Y-29243D01*
X-8735Y-29080D01*
X-8636Y-28908D01*
X-8552Y-28730D01*
X-8481Y-28545D01*
X-8425Y-28355D01*
X-8384Y-28162D01*
X-8358Y-27969D01*
X-8346Y-27712D01*
X-8346Y-13766D01*
X-8295Y-13491D01*
X-8132Y-13236D01*
X-7881Y-13064D01*
X-7584Y-13004D01*
X6365Y-13004D01*
X6578Y-12995D01*
X6774Y-12972D01*
X6968Y-12934D01*
X7158Y-12881D01*
X7345Y-12813D01*
X7525Y-12731D01*
X7697Y-12636D01*
X7863Y-12526D01*
X8019Y-12405D01*
X8165Y-12272D01*
X8300Y-12127D01*
X8424Y-11973D01*
X8535Y-11810D01*
X8634Y-11638D01*
X8719Y-11460D01*
X8789Y-11275D01*
X8845Y-11085D01*
X8886Y-10892D01*
X8912Y-10699D01*
X8924Y-10442D01*
X8924Y1738D01*
X-16738Y1738D01*
X-16738Y-30274D01*
G37*
G36*
X-24092Y-30274D02*
X-18262Y-30274D01*
X-18262Y1738D01*
X-43924Y1738D01*
X-43924Y-10445D01*
X-43915Y-10658D01*
X-43892Y-10854D01*
X-43854Y-11048D01*
X-43801Y-11238D01*
X-43733Y-11425D01*
X-43651Y-11605D01*
X-43556Y-11777D01*
X-43446Y-11943D01*
X-43325Y-12099D01*
X-43192Y-12245D01*
X-43047Y-12380D01*
X-42893Y-12504D01*
X-42730Y-12615D01*
X-42558Y-12714D01*
X-42380Y-12799D01*
X-42195Y-12869D01*
X-42005Y-12925D01*
X-41812Y-12966D01*
X-41619Y-12992D01*
X-41362Y-13004D01*
X-27416Y-13004D01*
X-27141Y-13055D01*
X-26886Y-13218D01*
X-26714Y-13469D01*
X-26654Y-13766D01*
X-26654Y-27715D01*
X-26645Y-27928D01*
X-26622Y-28124D01*
X-26584Y-28318D01*
X-26531Y-28508D01*
X-26463Y-28695D01*
X-26381Y-28875D01*
X-26286Y-29047D01*
X-26176Y-29213D01*
X-26055Y-29369D01*
X-25922Y-29515D01*
X-25777Y-29650D01*
X-25623Y-29774D01*
X-25460Y-29885D01*
X-25288Y-29984D01*
X-25110Y-30069D01*
X-24925Y-30139D01*
X-24735Y-30195D01*
X-24542Y-30236D01*
X-24349Y-30262D01*
X-24092Y-30274D01*
G37*
G36*
X-316252Y-11740D02*
X-311962Y-11740D01*
X-311962Y-962D01*
X-317740Y-962D01*
X-317740Y-10252D01*
X-316252Y-11740D01*
G37*
G36*
X-310438Y-11740D02*
X-306148Y-11740D01*
X-304660Y-10252D01*
X-304660Y-962D01*
X-310438Y-962D01*
X-310438Y-11740D01*
G37*
G36*
X280561Y-21844D02*
X299439Y-21844D01*
X302800Y-20452D01*
X305372Y-17880D01*
X306764Y-14519D01*
X306764Y-10881D01*
X305372Y-7520D01*
X302800Y-4948D01*
X299439Y-3556D01*
X280561Y-3556D01*
X277200Y-4948D01*
X274628Y-7520D01*
X273236Y-10881D01*
X273236Y-14519D01*
X274628Y-17880D01*
X277200Y-20452D01*
X280561Y-21844D01*
G37*
G36*
X-200998Y-20586D02*
X-197562Y-20586D01*
X-197562Y-16008D01*
X-202486Y-16008D01*
X-202486Y-19098D01*
X-200998Y-20586D01*
G37*
G36*
X-196038Y-20586D02*
X-192602Y-20586D01*
X-191115Y-19098D01*
X-191115Y-16008D01*
X-196038Y-16008D01*
X-196038Y-20586D01*
G37*
G36*
X-319738Y-25988D02*
X-296960Y-25988D01*
X-296960Y-18948D01*
X-298448Y-17460D01*
X-319738Y-17460D01*
X-319738Y-25988D01*
G37*
G36*
X-344040Y-25988D02*
X-321262Y-25988D01*
X-321262Y-17460D01*
X-342552Y-17460D01*
X-344040Y-18948D01*
X-344040Y-25988D01*
G37*
G36*
X1115Y-250684D02*
X13486Y-250684D01*
X13486Y-248215D01*
X13537Y-247940D01*
X13700Y-247685D01*
X13950Y-247513D01*
X14248Y-247453D01*
X24483Y-247453D01*
X24704Y-247304D01*
X25001Y-247244D01*
X25732Y-247244D01*
X26625Y-246351D01*
X26625Y-245621D01*
X26680Y-245335D01*
X26848Y-245082D01*
X26961Y-244968D01*
X27192Y-244810D01*
X27488Y-244745D01*
X27786Y-244801D01*
X28039Y-244968D01*
X28152Y-245082D01*
X28315Y-245324D01*
X28376Y-245621D01*
X28376Y-246351D01*
X29268Y-247244D01*
X29999Y-247244D01*
X30285Y-247300D01*
X30516Y-247453D01*
X34633Y-247453D01*
X34854Y-247304D01*
X35151Y-247244D01*
X35882Y-247244D01*
X36775Y-246351D01*
X36775Y-245621D01*
X36830Y-245335D01*
X36998Y-245082D01*
X38968Y-243112D01*
X38968Y-234665D01*
X39019Y-234390D01*
X39183Y-234134D01*
X39433Y-233963D01*
X39730Y-233903D01*
X47087Y-233903D01*
X51131Y-232228D01*
X51423Y-232170D01*
X52785Y-232170D01*
X52943Y-232012D01*
X53173Y-231854D01*
X53469Y-231789D01*
X53768Y-231845D01*
X54020Y-232012D01*
X55194Y-233186D01*
X58284Y-233186D01*
X58284Y-221815D01*
X55194Y-221815D01*
X54020Y-222988D01*
X53790Y-223146D01*
X53494Y-223211D01*
X53196Y-223156D01*
X52943Y-222988D01*
X52785Y-222831D01*
X45923Y-222831D01*
X45030Y-223723D01*
X45030Y-223997D01*
X44979Y-224271D01*
X44815Y-224527D01*
X44565Y-224698D01*
X44268Y-224759D01*
X39335Y-224759D01*
X39072Y-224712D01*
X38814Y-224552D01*
X38639Y-224305D01*
X38574Y-224009D01*
X38629Y-223711D01*
X38797Y-223458D01*
X39185Y-223070D01*
X39185Y-216207D01*
X39176Y-216199D01*
X39013Y-215957D01*
X38953Y-215660D01*
X38953Y-215334D01*
X39004Y-215059D01*
X39168Y-214804D01*
X39418Y-214632D01*
X39715Y-214572D01*
X43610Y-214572D01*
X43896Y-214628D01*
X43959Y-214670D01*
X50885Y-214670D01*
X51043Y-214512D01*
X51273Y-214354D01*
X51569Y-214289D01*
X51868Y-214345D01*
X52120Y-214512D01*
X53294Y-215686D01*
X56384Y-215686D01*
X56384Y-204315D01*
X53294Y-204315D01*
X52120Y-205488D01*
X51890Y-205646D01*
X51594Y-205711D01*
X51296Y-205656D01*
X51043Y-205488D01*
X50885Y-205331D01*
X43962Y-205331D01*
X43907Y-205368D01*
X43610Y-205428D01*
X40166Y-205428D01*
X39874Y-205370D01*
X39640Y-205273D01*
X39401Y-205116D01*
X39230Y-204866D01*
X39170Y-204569D01*
X39170Y-204015D01*
X38294Y-203139D01*
X38136Y-202908D01*
X38071Y-202612D01*
X38126Y-202314D01*
X38294Y-202061D01*
X39170Y-201185D01*
X39170Y-199905D01*
X39225Y-199619D01*
X39393Y-199366D01*
X39882Y-198876D01*
X40124Y-198713D01*
X40421Y-198653D01*
X50106Y-198653D01*
X50166Y-198593D01*
X50408Y-198430D01*
X50705Y-198370D01*
X51485Y-198370D01*
X51643Y-198212D01*
X51873Y-198054D01*
X52169Y-197989D01*
X52468Y-198045D01*
X52720Y-198212D01*
X53894Y-199386D01*
X56984Y-199386D01*
X56984Y-188015D01*
X55708Y-188015D01*
X55433Y-187963D01*
X55178Y-187800D01*
X55006Y-187550D01*
X54946Y-187253D01*
X54946Y-160007D01*
X54972Y-159810D01*
X55547Y-157664D01*
X55744Y-157322D01*
X57315Y-155751D01*
X57657Y-155554D01*
X59803Y-154979D01*
X60000Y-154953D01*
X121171Y-154953D01*
X127953Y-152144D01*
X133144Y-146953D01*
X135953Y-140171D01*
X135953Y-136490D01*
X136000Y-136227D01*
X136159Y-135969D01*
X136407Y-135793D01*
X136703Y-135728D01*
X137001Y-135784D01*
X137254Y-135951D01*
X140507Y-139204D01*
X140670Y-139446D01*
X140730Y-139743D01*
X140730Y-144077D01*
X141623Y-144970D01*
X148485Y-144970D01*
X149361Y-144094D01*
X149592Y-143936D01*
X149888Y-143871D01*
X150186Y-143926D01*
X150439Y-144094D01*
X151315Y-144970D01*
X158177Y-144970D01*
X159070Y-144077D01*
X159070Y-138243D01*
X159126Y-137957D01*
X159293Y-137704D01*
X167204Y-129793D01*
X167446Y-129630D01*
X167743Y-129570D01*
X171577Y-129570D01*
X172470Y-128677D01*
X172470Y-121815D01*
X171594Y-120939D01*
X171436Y-120708D01*
X171371Y-120412D01*
X171426Y-120114D01*
X171594Y-119861D01*
X172470Y-118985D01*
X172470Y-112123D01*
X171560Y-111213D01*
X171393Y-111183D01*
X171135Y-111024D01*
X170960Y-110776D01*
X170895Y-110480D01*
X170950Y-110182D01*
X171118Y-109929D01*
X171270Y-109777D01*
X171270Y-102915D01*
X170394Y-102039D01*
X170236Y-101808D01*
X170171Y-101512D01*
X170226Y-101214D01*
X170394Y-100961D01*
X171270Y-100085D01*
X171270Y-94560D01*
X171316Y-94297D01*
X171476Y-94039D01*
X171723Y-93864D01*
X172019Y-93799D01*
X172317Y-93854D01*
X172570Y-94022D01*
X181343Y-102794D01*
X184975Y-102794D01*
X185261Y-102850D01*
X185513Y-103017D01*
X187802Y-105306D01*
X192198Y-105306D01*
X195306Y-102198D01*
X195306Y-97802D01*
X192198Y-94694D01*
X187802Y-94694D01*
X185513Y-96983D01*
X185272Y-97146D01*
X184975Y-97206D01*
X183973Y-97206D01*
X183687Y-97150D01*
X183434Y-96983D01*
X178938Y-92487D01*
X178785Y-92267D01*
X178715Y-91972D01*
X178766Y-91673D01*
X178930Y-91418D01*
X179180Y-91246D01*
X179477Y-91186D01*
X272920Y-91186D01*
X273201Y-91239D01*
X273455Y-91405D01*
X273624Y-91656D01*
X274628Y-94080D01*
X277200Y-96652D01*
X280561Y-98044D01*
X299439Y-98044D01*
X302800Y-96652D01*
X305372Y-94080D01*
X306764Y-90719D01*
X306764Y-87081D01*
X305372Y-83720D01*
X302800Y-81148D01*
X299439Y-79756D01*
X280561Y-79756D01*
X277200Y-81148D01*
X274628Y-83720D01*
X273624Y-86144D01*
X273468Y-86382D01*
X273218Y-86554D01*
X272920Y-86614D01*
X177692Y-86614D01*
X177406Y-86558D01*
X177153Y-86391D01*
X170226Y-79464D01*
X158755Y-79464D01*
X158469Y-79408D01*
X158216Y-79241D01*
X158014Y-79039D01*
X157856Y-78808D01*
X157791Y-78512D01*
X157847Y-78214D01*
X158014Y-77961D01*
X158466Y-77509D01*
X158708Y-77346D01*
X159005Y-77286D01*
X316237Y-77286D01*
X316523Y-77342D01*
X316776Y-77509D01*
X322491Y-83224D01*
X322654Y-83465D01*
X322714Y-83763D01*
X322714Y-108737D01*
X322658Y-109023D01*
X322491Y-109276D01*
X321776Y-109991D01*
X321535Y-110154D01*
X321237Y-110214D01*
X306334Y-110214D01*
X306054Y-110161D01*
X305800Y-109995D01*
X305630Y-109744D01*
X305372Y-109120D01*
X302800Y-106548D01*
X299439Y-105156D01*
X280561Y-105156D01*
X277200Y-106548D01*
X274628Y-109120D01*
X273236Y-112481D01*
X273236Y-116119D01*
X274628Y-119480D01*
X277200Y-122052D01*
X280561Y-123444D01*
X299439Y-123444D01*
X302800Y-122052D01*
X305372Y-119480D01*
X306764Y-116119D01*
X306764Y-115548D01*
X306815Y-115273D01*
X306979Y-115018D01*
X307229Y-114846D01*
X307526Y-114786D01*
X323447Y-114786D01*
X327286Y-110947D01*
X327286Y-81553D01*
X318447Y-72714D01*
X303101Y-72714D01*
X302843Y-72669D01*
X302584Y-72512D01*
X302406Y-72266D01*
X302339Y-71970D01*
X302392Y-71672D01*
X302558Y-71418D01*
X302792Y-71259D01*
X305372Y-68680D01*
X306764Y-65319D01*
X306764Y-61681D01*
X305372Y-58320D01*
X302800Y-55748D01*
X299439Y-54356D01*
X280561Y-54356D01*
X277200Y-55748D01*
X274628Y-58320D01*
X273236Y-61681D01*
X273236Y-65319D01*
X274628Y-68680D01*
X277206Y-71258D01*
X277412Y-71388D01*
X277591Y-71633D01*
X277661Y-71928D01*
X277610Y-72227D01*
X277447Y-72482D01*
X277197Y-72654D01*
X276899Y-72714D01*
X158505Y-72714D01*
X158219Y-72658D01*
X157966Y-72491D01*
X157701Y-72226D01*
X149622Y-72226D01*
X149347Y-72175D01*
X149092Y-72011D01*
X148920Y-71761D01*
X148860Y-71464D01*
X148860Y-67512D01*
X144058Y-67512D01*
X144058Y-60460D01*
X142268Y-60460D01*
X141390Y-61338D01*
X141160Y-61496D01*
X140864Y-61561D01*
X140566Y-61505D01*
X140522Y-61476D01*
X139621Y-61476D01*
X139335Y-61420D01*
X139082Y-61253D01*
X136461Y-58632D01*
X136298Y-58390D01*
X136238Y-58093D01*
X136238Y-56809D01*
X136294Y-56523D01*
X136455Y-56281D01*
X136455Y-49415D01*
X135579Y-48539D01*
X135421Y-48308D01*
X135356Y-48012D01*
X135411Y-47714D01*
X135579Y-47461D01*
X136455Y-46585D01*
X136455Y-39723D01*
X135562Y-38830D01*
X135369Y-38830D01*
X135094Y-38779D01*
X134839Y-38615D01*
X134667Y-38365D01*
X134607Y-38068D01*
X134607Y-36748D01*
X134658Y-36473D01*
X134822Y-36217D01*
X135072Y-36046D01*
X135369Y-35986D01*
X138584Y-35986D01*
X138584Y-24615D01*
X135494Y-24615D01*
X134698Y-25410D01*
X134473Y-25566D01*
X134178Y-25633D01*
X133879Y-25580D01*
X133625Y-25415D01*
X133455Y-25163D01*
X132803Y-23589D01*
X129470Y-20256D01*
X125116Y-18452D01*
X8213Y-18452D01*
X7927Y-18396D01*
X7674Y-18229D01*
X7006Y-17561D01*
X-2896Y-17561D01*
X-3789Y-18454D01*
X-3789Y-28356D01*
X-2896Y-29249D01*
X7006Y-29249D01*
X7674Y-28581D01*
X7916Y-28418D01*
X8213Y-28358D01*
X122759Y-28358D01*
X122956Y-28384D01*
X123546Y-28542D01*
X123888Y-28739D01*
X124320Y-29171D01*
X124517Y-29513D01*
X124675Y-30103D01*
X124701Y-30300D01*
X124701Y-43575D01*
X125892Y-44766D01*
X126055Y-45008D01*
X126116Y-45305D01*
X126116Y-46585D01*
X126991Y-47461D01*
X127149Y-47692D01*
X127215Y-47988D01*
X127159Y-48286D01*
X126991Y-48539D01*
X126116Y-49415D01*
X126116Y-56281D01*
X126272Y-56512D01*
X126332Y-56809D01*
X126332Y-59698D01*
X126281Y-59973D01*
X126117Y-60228D01*
X126082Y-60252D01*
X126082Y-67512D01*
X121280Y-67512D01*
X121280Y-71464D01*
X121229Y-71739D01*
X121065Y-71994D01*
X120815Y-72166D01*
X120518Y-72226D01*
X117345Y-72226D01*
X117059Y-72170D01*
X116806Y-72003D01*
X106301Y-61498D01*
X106138Y-61256D01*
X106078Y-60959D01*
X106078Y-59915D01*
X105920Y-59757D01*
X105762Y-59527D01*
X105697Y-59231D01*
X105753Y-58932D01*
X105920Y-58680D01*
X107094Y-57506D01*
X107094Y-54416D01*
X95723Y-54416D01*
X95723Y-57506D01*
X96896Y-58680D01*
X97054Y-58910D01*
X97119Y-59206D01*
X97064Y-59504D01*
X96896Y-59757D01*
X96739Y-59915D01*
X96739Y-60298D01*
X96687Y-60573D01*
X96524Y-60828D01*
X96274Y-61000D01*
X95977Y-61060D01*
X94532Y-61060D01*
X94257Y-61009D01*
X94002Y-60845D01*
X93830Y-60595D01*
X93770Y-60298D01*
X93770Y-59623D01*
X92877Y-58731D01*
X86015Y-58731D01*
X85139Y-59606D01*
X84908Y-59764D01*
X84612Y-59830D01*
X84314Y-59774D01*
X84061Y-59606D01*
X83185Y-58731D01*
X76323Y-58731D01*
X75430Y-59623D01*
X75430Y-60344D01*
X75379Y-60619D01*
X75215Y-60874D01*
X74965Y-61046D01*
X74668Y-61106D01*
X68925Y-61106D01*
X68639Y-61050D01*
X68387Y-60883D01*
X67198Y-59694D01*
X62802Y-59694D01*
X59694Y-62802D01*
X59694Y-66039D01*
X59638Y-66325D01*
X59471Y-66578D01*
X42206Y-83843D01*
X42206Y-103657D01*
X52327Y-113779D01*
X60460Y-113779D01*
X60734Y-113830D01*
X60990Y-113993D01*
X61161Y-114243D01*
X61222Y-114541D01*
X61222Y-120268D01*
X61170Y-120543D01*
X61007Y-120798D01*
X60757Y-120970D01*
X60460Y-121030D01*
X60239Y-121030D01*
X59346Y-121923D01*
X59346Y-128785D01*
X59504Y-128943D01*
X59662Y-129173D01*
X59727Y-129469D01*
X59671Y-129768D01*
X59504Y-130020D01*
X58330Y-131194D01*
X58330Y-134284D01*
X69701Y-134284D01*
X69701Y-131194D01*
X68528Y-130020D01*
X68370Y-129790D01*
X68304Y-129494D01*
X68360Y-129196D01*
X68528Y-128943D01*
X68685Y-128785D01*
X68685Y-121923D01*
X67792Y-121030D01*
X67572Y-121030D01*
X67297Y-120979D01*
X67041Y-120815D01*
X66870Y-120565D01*
X66810Y-120268D01*
X66810Y-116010D01*
X66865Y-115724D01*
X67033Y-115471D01*
X69487Y-113017D01*
X69728Y-112854D01*
X70025Y-112794D01*
X74569Y-112794D01*
X74843Y-112845D01*
X75099Y-113009D01*
X75179Y-113126D01*
X76247Y-114194D01*
X76395Y-114221D01*
X76651Y-114385D01*
X76822Y-114635D01*
X76883Y-114932D01*
X76883Y-118384D01*
X76831Y-118658D01*
X76668Y-118914D01*
X76418Y-119085D01*
X76121Y-119146D01*
X75900Y-119146D01*
X75007Y-120038D01*
X75007Y-126901D01*
X75165Y-127058D01*
X75323Y-127289D01*
X75388Y-127585D01*
X75332Y-127883D01*
X75165Y-128136D01*
X73991Y-129309D01*
X73991Y-132400D01*
X85362Y-132400D01*
X85362Y-129309D01*
X84189Y-128136D01*
X84031Y-127905D01*
X83965Y-127609D01*
X84021Y-127311D01*
X84189Y-127058D01*
X84375Y-126872D01*
X84397Y-126751D01*
X84561Y-126495D01*
X84811Y-126324D01*
X85108Y-126264D01*
X90569Y-126264D01*
X90843Y-126315D01*
X91099Y-126478D01*
X91270Y-126728D01*
X91331Y-127026D01*
X91331Y-127285D01*
X91488Y-127443D01*
X91646Y-127673D01*
X91711Y-127969D01*
X91656Y-128268D01*
X91488Y-128520D01*
X90315Y-129694D01*
X90315Y-132784D01*
X101686Y-132784D01*
X101686Y-129694D01*
X100686Y-128695D01*
X100533Y-128475D01*
X100464Y-128180D01*
X100514Y-127881D01*
X100678Y-127626D01*
X100928Y-127454D01*
X101225Y-127394D01*
X102884Y-127394D01*
X103159Y-127445D01*
X103414Y-127609D01*
X103586Y-127859D01*
X103646Y-128156D01*
X103646Y-128877D01*
X104539Y-129770D01*
X111401Y-129770D01*
X112277Y-128894D01*
X112508Y-128736D01*
X112804Y-128671D01*
X113102Y-128726D01*
X113355Y-128894D01*
X114231Y-129770D01*
X121093Y-129770D01*
X121986Y-128877D01*
X121986Y-127057D01*
X122042Y-126771D01*
X122209Y-126519D01*
X122399Y-126329D01*
X122640Y-126166D01*
X122937Y-126106D01*
X126336Y-126106D01*
X126622Y-126162D01*
X126874Y-126329D01*
X127206Y-126661D01*
X127364Y-126892D01*
X127430Y-127188D01*
X127374Y-127486D01*
X127206Y-127739D01*
X126331Y-128615D01*
X126331Y-129395D01*
X126275Y-129681D01*
X126107Y-129934D01*
X126047Y-129994D01*
X126047Y-136500D01*
X126021Y-136697D01*
X124978Y-140590D01*
X124781Y-140931D01*
X121931Y-143781D01*
X121590Y-143978D01*
X117697Y-145021D01*
X117500Y-145047D01*
X57024Y-145047D01*
X51526Y-147325D01*
X47318Y-151533D01*
X45040Y-157031D01*
X45040Y-187985D01*
X44989Y-188260D01*
X44825Y-188515D01*
X44575Y-188687D01*
X44278Y-188747D01*
X36002Y-188747D01*
X31543Y-193207D01*
X31301Y-193370D01*
X31004Y-193430D01*
X29723Y-193430D01*
X28831Y-194323D01*
X28831Y-201185D01*
X29706Y-202061D01*
X29864Y-202292D01*
X29930Y-202588D01*
X29874Y-202886D01*
X29706Y-203139D01*
X28831Y-204015D01*
X28831Y-210881D01*
X28987Y-211112D01*
X29047Y-211409D01*
X29047Y-215690D01*
X28991Y-215976D01*
X28846Y-216196D01*
X28846Y-223070D01*
X29721Y-223946D01*
X29879Y-224176D01*
X29945Y-224472D01*
X29889Y-224770D01*
X29721Y-225023D01*
X28846Y-225899D01*
X28846Y-232765D01*
X29002Y-232997D01*
X29062Y-233294D01*
X29062Y-237647D01*
X29006Y-237933D01*
X28839Y-238185D01*
X28376Y-238649D01*
X28376Y-239379D01*
X28320Y-239665D01*
X28152Y-239918D01*
X28039Y-240032D01*
X27808Y-240190D01*
X27512Y-240255D01*
X27214Y-240199D01*
X26961Y-240032D01*
X26848Y-239918D01*
X26685Y-239677D01*
X26625Y-239379D01*
X26625Y-238649D01*
X25732Y-237756D01*
X25001Y-237756D01*
X24715Y-237700D01*
X24484Y-237547D01*
X12009Y-237547D01*
X11723Y-237491D01*
X11631Y-237430D01*
X10296Y-237430D01*
X10010Y-237374D01*
X9757Y-237207D01*
X9352Y-236801D01*
X-11728Y-236801D01*
X-12014Y-236745D01*
X-12267Y-236578D01*
X-13094Y-235751D01*
X-22996Y-235751D01*
X-23889Y-236644D01*
X-23889Y-246546D01*
X-22996Y-247439D01*
X-13094Y-247439D01*
X-12585Y-246930D01*
X-12343Y-246767D01*
X-12046Y-246707D01*
X353Y-246707D01*
X627Y-246758D01*
X883Y-246922D01*
X1054Y-247172D01*
X1115Y-247469D01*
X1115Y-250684D01*
G37*
G36*
X-49481Y-104524D02*
X-35519Y-104524D01*
X-34626Y-103631D01*
X-34626Y-80237D01*
X-34570Y-79951D01*
X-34403Y-79698D01*
X-34066Y-79361D01*
X-32102Y-74621D01*
X-32102Y-29563D01*
X-32046Y-29277D01*
X-31879Y-29024D01*
X-31211Y-28356D01*
X-31211Y-18454D01*
X-32104Y-17561D01*
X-42006Y-17561D01*
X-42899Y-18454D01*
X-42899Y-28356D01*
X-42231Y-29024D01*
X-42068Y-29266D01*
X-42008Y-29563D01*
X-42008Y-64714D01*
X-42059Y-64989D01*
X-42223Y-65244D01*
X-42473Y-65416D01*
X-42770Y-65476D01*
X-49481Y-65476D01*
X-50374Y-66369D01*
X-50374Y-103631D01*
X-49481Y-104524D01*
G37*
G36*
X140108Y-29538D02*
X144686Y-29538D01*
X144686Y-26102D01*
X143198Y-24615D01*
X140108Y-24615D01*
X140108Y-29538D01*
G37*
G36*
X-319738Y-36040D02*
X-298448Y-36040D01*
X-296960Y-34552D01*
X-296960Y-27512D01*
X-319738Y-27512D01*
X-319738Y-36040D01*
G37*
G36*
X-342552Y-36040D02*
X-321262Y-36040D01*
X-321262Y-27512D01*
X-344040Y-27512D01*
X-344040Y-34552D01*
X-342552Y-36040D01*
G37*
G36*
X280561Y-47244D02*
X299439Y-47244D01*
X302800Y-45852D01*
X305372Y-43280D01*
X306764Y-39919D01*
X306764Y-36281D01*
X305372Y-32920D01*
X302800Y-30348D01*
X299439Y-28956D01*
X280561Y-28956D01*
X277200Y-30348D01*
X274628Y-32920D01*
X273236Y-36281D01*
X273236Y-39919D01*
X274628Y-43280D01*
X277200Y-45852D01*
X280561Y-47244D01*
G37*
G36*
X140108Y-35986D02*
X143198Y-35986D01*
X144686Y-34498D01*
X144686Y-31062D01*
X140108Y-31062D01*
X140108Y-35986D01*
G37*
G36*
X-275190Y-153524D02*
X-269810Y-153524D01*
X-264839Y-151465D01*
X-261035Y-147661D01*
X-260108Y-145423D01*
X-259952Y-145185D01*
X-259701Y-145013D01*
X-259404Y-144953D01*
X-213531Y-144953D01*
X-206198Y-141915D01*
X-200585Y-136302D01*
X-197547Y-128969D01*
X-197547Y-118454D01*
X-197521Y-118257D01*
X-197262Y-117289D01*
X-197065Y-116948D01*
X-196468Y-116351D01*
X-196226Y-116188D01*
X-195929Y-116128D01*
X-182169Y-116128D01*
X-181507Y-115467D01*
X-181277Y-115309D01*
X-180981Y-115243D01*
X-180682Y-115299D01*
X-180430Y-115467D01*
X-178752Y-117144D01*
X-165762Y-117144D01*
X-165762Y-53664D01*
X-178752Y-53664D01*
X-180430Y-55342D01*
X-180660Y-55500D01*
X-180956Y-55565D01*
X-181254Y-55509D01*
X-181507Y-55342D01*
X-182169Y-54680D01*
X-207531Y-54680D01*
X-207679Y-54828D01*
X-207921Y-54991D01*
X-208218Y-55051D01*
X-302214Y-55051D01*
X-302489Y-55000D01*
X-302744Y-54836D01*
X-302916Y-54586D01*
X-302976Y-54289D01*
X-302976Y-48019D01*
X-303869Y-47126D01*
X-341131Y-47126D01*
X-342024Y-48019D01*
X-342024Y-61981D01*
X-341131Y-62874D01*
X-316476Y-62874D01*
X-316095Y-62976D01*
X-312664Y-64957D01*
X-208385Y-64957D01*
X-208121Y-65004D01*
X-207863Y-65163D01*
X-207688Y-65411D01*
X-207623Y-65707D01*
X-207678Y-66005D01*
X-207846Y-66258D01*
X-209440Y-67852D01*
X-209440Y-71942D01*
X-194088Y-71942D01*
X-194088Y-73466D01*
X-209440Y-73466D01*
X-209440Y-77556D01*
X-208481Y-78515D01*
X-208323Y-78746D01*
X-208258Y-79042D01*
X-208313Y-79340D01*
X-208481Y-79593D01*
X-209440Y-80552D01*
X-209440Y-84642D01*
X-194088Y-84642D01*
X-194088Y-86166D01*
X-209440Y-86166D01*
X-209440Y-90256D01*
X-208481Y-91215D01*
X-208323Y-91446D01*
X-208258Y-91742D01*
X-208313Y-92040D01*
X-208481Y-92293D01*
X-209440Y-93252D01*
X-209440Y-97342D01*
X-194088Y-97342D01*
X-194088Y-98866D01*
X-209440Y-98866D01*
X-209440Y-102956D01*
X-207763Y-104634D01*
X-207605Y-104864D01*
X-207539Y-105160D01*
X-207595Y-105458D01*
X-207763Y-105711D01*
X-208424Y-106373D01*
X-208424Y-115235D01*
X-207676Y-115983D01*
X-207513Y-116225D01*
X-207453Y-116522D01*
X-207453Y-125000D01*
X-207479Y-125197D01*
X-208723Y-129840D01*
X-208920Y-130181D01*
X-212319Y-133580D01*
X-212660Y-133777D01*
X-217303Y-135021D01*
X-217500Y-135047D01*
X-259404Y-135047D01*
X-259685Y-134994D01*
X-259939Y-134828D01*
X-260108Y-134577D01*
X-261035Y-132339D01*
X-264839Y-128535D01*
X-269810Y-126476D01*
X-275190Y-126476D01*
X-280161Y-128535D01*
X-283965Y-132339D01*
X-286024Y-137310D01*
X-286024Y-142690D01*
X-283965Y-147661D01*
X-280161Y-151465D01*
X-275190Y-153524D01*
G37*
G36*
X102170Y-52892D02*
X107094Y-52892D01*
X107094Y-49802D01*
X105606Y-48314D01*
X102170Y-48314D01*
X102170Y-52892D01*
G37*
G36*
X95723Y-52892D02*
X100646Y-52892D01*
X100646Y-48314D01*
X97210Y-48314D01*
X95723Y-49802D01*
X95723Y-52892D01*
G37*
G36*
X-69988Y-82238D02*
X-61460Y-82238D01*
X-61460Y-60948D01*
X-62948Y-59460D01*
X-69988Y-59460D01*
X-69988Y-82238D01*
G37*
G36*
X-13488Y-82238D02*
X-4960Y-82238D01*
X-4960Y-60948D01*
X-6448Y-59460D01*
X-13488Y-59460D01*
X-13488Y-82238D01*
G37*
G36*
X-23540Y-82238D02*
X-15012Y-82238D01*
X-15012Y-59460D01*
X-22052Y-59460D01*
X-23540Y-60948D01*
X-23540Y-82238D01*
G37*
G36*
X-80040Y-82238D02*
X-71512Y-82238D01*
X-71512Y-59460D01*
X-78552Y-59460D01*
X-80040Y-60948D01*
X-80040Y-82238D01*
G37*
G36*
X121280Y-65988D02*
X124558Y-65988D01*
X124558Y-60460D01*
X122768Y-60460D01*
X121280Y-61948D01*
X121280Y-65988D01*
G37*
G36*
X145582Y-65988D02*
X148860Y-65988D01*
X148860Y-61948D01*
X147372Y-60460D01*
X145582Y-60460D01*
X145582Y-65988D01*
G37*
G36*
X-319738Y-82488D02*
X-296960Y-82488D01*
X-296960Y-75448D01*
X-298448Y-73960D01*
X-319738Y-73960D01*
X-319738Y-82488D01*
G37*
G36*
X-344040Y-82488D02*
X-321262Y-82488D01*
X-321262Y-73960D01*
X-342552Y-73960D01*
X-344040Y-75448D01*
X-344040Y-82488D01*
G37*
G36*
X-69988Y-106540D02*
X-62948Y-106540D01*
X-61460Y-105052D01*
X-61460Y-83762D01*
X-69988Y-83762D01*
X-69988Y-106540D01*
G37*
G36*
X-78552Y-106540D02*
X-71512Y-106540D01*
X-71512Y-83762D01*
X-80040Y-83762D01*
X-80040Y-105052D01*
X-78552Y-106540D01*
G37*
G36*
X-22052Y-106540D02*
X-15012Y-106540D01*
X-15012Y-83762D01*
X-23540Y-83762D01*
X-23540Y-105052D01*
X-22052Y-106540D01*
G37*
G36*
X-13488Y-106540D02*
X-6448Y-106540D01*
X-4960Y-105052D01*
X-4960Y-83762D01*
X-13488Y-83762D01*
X-13488Y-106540D01*
G37*
G36*
X-319738Y-92540D02*
X-298448Y-92540D01*
X-296960Y-91052D01*
X-296960Y-84012D01*
X-319738Y-84012D01*
X-319738Y-92540D01*
G37*
G36*
X-110760Y-99163D02*
X-105762Y-99163D01*
X-105762Y-94710D01*
X-109272Y-94710D01*
X-110760Y-96197D01*
X-110760Y-99163D01*
G37*
G36*
X-104238Y-99163D02*
X-99240Y-99163D01*
X-99240Y-96197D01*
X-100728Y-94710D01*
X-104238Y-94710D01*
X-104238Y-99163D01*
G37*
G36*
X-246338Y-113838D02*
X-232560Y-113838D01*
X-232560Y-111708D01*
X-234774Y-106364D01*
X-238864Y-102274D01*
X-244208Y-100060D01*
X-246338Y-100060D01*
X-246338Y-113838D01*
G37*
G36*
X-297138Y-113838D02*
X-283360Y-113838D01*
X-283360Y-111708D01*
X-285574Y-106364D01*
X-289664Y-102274D01*
X-295008Y-100060D01*
X-297138Y-100060D01*
X-297138Y-113838D01*
G37*
G36*
X-312440Y-113838D02*
X-298662Y-113838D01*
X-298662Y-100060D01*
X-300792Y-100060D01*
X-306136Y-102274D01*
X-310226Y-106364D01*
X-312440Y-111708D01*
X-312440Y-113838D01*
G37*
G36*
X-261640Y-113838D02*
X-247862Y-113838D01*
X-247862Y-100060D01*
X-249992Y-100060D01*
X-255336Y-102274D01*
X-259426Y-106364D01*
X-261640Y-111708D01*
X-261640Y-113838D01*
G37*
G36*
X-297138Y-129140D02*
X-295008Y-129140D01*
X-289664Y-126926D01*
X-285574Y-122836D01*
X-283360Y-117492D01*
X-283360Y-115362D01*
X-297138Y-115362D01*
X-297138Y-129140D01*
G37*
G36*
X-249992Y-129140D02*
X-247862Y-129140D01*
X-247862Y-115362D01*
X-261640Y-115362D01*
X-261640Y-117492D01*
X-259426Y-122836D01*
X-255336Y-126926D01*
X-249992Y-129140D01*
G37*
G36*
X-300792Y-129140D02*
X-298662Y-129140D01*
X-298662Y-115362D01*
X-312440Y-115362D01*
X-312440Y-117492D01*
X-310226Y-122836D01*
X-306136Y-126926D01*
X-300792Y-129140D01*
G37*
G36*
X-246338Y-129140D02*
X-244208Y-129140D01*
X-238864Y-126926D01*
X-234774Y-122836D01*
X-232560Y-117492D01*
X-232560Y-115362D01*
X-246338Y-115362D01*
X-246338Y-129140D01*
G37*
G36*
X280561Y-148844D02*
X299439Y-148844D01*
X302800Y-147452D01*
X305372Y-144880D01*
X306764Y-141519D01*
X306764Y-137881D01*
X305372Y-134520D01*
X302800Y-131948D01*
X299439Y-130556D01*
X280561Y-130556D01*
X277200Y-131948D01*
X274628Y-134520D01*
X273236Y-137881D01*
X273236Y-141519D01*
X274628Y-144880D01*
X277200Y-147452D01*
X280561Y-148844D01*
G37*
G36*
X80439Y-138502D02*
X83874Y-138502D01*
X85362Y-137014D01*
X85362Y-133924D01*
X80439Y-133924D01*
X80439Y-138502D01*
G37*
G36*
X75479Y-138502D02*
X78915Y-138502D01*
X78915Y-133924D01*
X73991Y-133924D01*
X73991Y-137014D01*
X75479Y-138502D01*
G37*
G36*
X91802Y-138886D02*
X95238Y-138886D01*
X95238Y-134308D01*
X90315Y-134308D01*
X90315Y-137398D01*
X91802Y-138886D01*
G37*
G36*
X96762Y-138886D02*
X100198Y-138886D01*
X101686Y-137398D01*
X101686Y-134308D01*
X96762Y-134308D01*
X96762Y-138886D01*
G37*
G36*
X59818Y-140386D02*
X63254Y-140386D01*
X63254Y-135808D01*
X58330Y-135808D01*
X58330Y-138898D01*
X59818Y-140386D01*
G37*
G36*
X64778Y-140386D02*
X68213Y-140386D01*
X69701Y-138898D01*
X69701Y-135808D01*
X64778Y-135808D01*
X64778Y-140386D01*
G37*
G36*
X-312440Y-164638D02*
X-298662Y-164638D01*
X-298662Y-150860D01*
X-300792Y-150860D01*
X-306136Y-153074D01*
X-310226Y-157164D01*
X-312440Y-162508D01*
X-312440Y-164638D01*
G37*
G36*
X-261640Y-164638D02*
X-247862Y-164638D01*
X-247862Y-150860D01*
X-249992Y-150860D01*
X-255336Y-153074D01*
X-259426Y-157164D01*
X-261640Y-162508D01*
X-261640Y-164638D01*
G37*
G36*
X-246338Y-164638D02*
X-232560Y-164638D01*
X-232560Y-162508D01*
X-234774Y-157164D01*
X-238864Y-153074D01*
X-244208Y-150860D01*
X-246338Y-150860D01*
X-246338Y-164638D01*
G37*
G36*
X-297138Y-164638D02*
X-283360Y-164638D01*
X-283360Y-162508D01*
X-285574Y-157164D01*
X-289664Y-153074D01*
X-295008Y-150860D01*
X-297138Y-150860D01*
X-297138Y-164638D01*
G37*
G36*
X30302Y-161806D02*
X34698Y-161806D01*
X37806Y-158698D01*
X37806Y-154302D01*
X34698Y-151194D01*
X30302Y-151194D01*
X27194Y-154302D01*
X27194Y-158698D01*
X30302Y-161806D01*
G37*
G36*
X-249992Y-179940D02*
X-247862Y-179940D01*
X-247862Y-166162D01*
X-261640Y-166162D01*
X-261640Y-168292D01*
X-259426Y-173636D01*
X-255336Y-177726D01*
X-249992Y-179940D01*
G37*
G36*
X-300792Y-179940D02*
X-298662Y-179940D01*
X-298662Y-166162D01*
X-312440Y-166162D01*
X-312440Y-168292D01*
X-310226Y-173636D01*
X-306136Y-177726D01*
X-300792Y-179940D01*
G37*
G36*
X-297138Y-179940D02*
X-295008Y-179940D01*
X-289664Y-177726D01*
X-285574Y-173636D01*
X-283360Y-168292D01*
X-283360Y-166162D01*
X-297138Y-166162D01*
X-297138Y-179940D01*
G37*
G36*
X-246338Y-179940D02*
X-244208Y-179940D01*
X-238864Y-177726D01*
X-234774Y-173636D01*
X-232560Y-168292D01*
X-232560Y-166162D01*
X-246338Y-166162D01*
X-246338Y-179940D01*
G37*
G36*
X102302Y-179806D02*
X106698Y-179806D01*
X109806Y-176698D01*
X109806Y-172302D01*
X106698Y-169194D01*
X102302Y-169194D01*
X99194Y-172302D01*
X99194Y-176698D01*
X102302Y-179806D01*
G37*
G36*
X84302Y-179806D02*
X88698Y-179806D01*
X91806Y-176698D01*
X91806Y-172302D01*
X88698Y-169194D01*
X84302Y-169194D01*
X81194Y-172302D01*
X81194Y-176698D01*
X84302Y-179806D01*
G37*
G36*
X66302Y-179806D02*
X70698Y-179806D01*
X73806Y-176698D01*
X73806Y-172302D01*
X70698Y-169194D01*
X66302Y-169194D01*
X63194Y-172302D01*
X63194Y-176698D01*
X66302Y-179806D01*
G37*
G36*
X30302Y-179806D02*
X34698Y-179806D01*
X37806Y-176698D01*
X37806Y-172302D01*
X34698Y-169194D01*
X30302Y-169194D01*
X27194Y-172302D01*
X27194Y-176698D01*
X30302Y-179806D01*
G37*
G36*
X120302Y-179806D02*
X124698Y-179806D01*
X127806Y-176698D01*
X127806Y-172302D01*
X124698Y-169194D01*
X120302Y-169194D01*
X117194Y-172302D01*
X117194Y-176698D01*
X120302Y-179806D01*
G37*
G36*
X102302Y-197806D02*
X106698Y-197806D01*
X109806Y-194698D01*
X109806Y-190302D01*
X106698Y-187194D01*
X102302Y-187194D01*
X99194Y-190302D01*
X99194Y-194698D01*
X102302Y-197806D01*
G37*
G36*
X120302Y-197806D02*
X124698Y-197806D01*
X127806Y-194698D01*
X127806Y-190302D01*
X124698Y-187194D01*
X120302Y-187194D01*
X117194Y-190302D01*
X117194Y-194698D01*
X120302Y-197806D01*
G37*
G36*
X58508Y-199386D02*
X61598Y-199386D01*
X63086Y-197898D01*
X63086Y-196429D01*
X63133Y-196166D01*
X63292Y-195908D01*
X63540Y-195733D01*
X63836Y-195668D01*
X64134Y-195723D01*
X64387Y-195891D01*
X66302Y-197806D01*
X70698Y-197806D01*
X73806Y-194698D01*
X73806Y-190302D01*
X70698Y-187194D01*
X66302Y-187194D01*
X64079Y-189418D01*
X63848Y-189576D01*
X63552Y-189641D01*
X63254Y-189585D01*
X63001Y-189418D01*
X61598Y-188015D01*
X58508Y-188015D01*
X58508Y-199386D01*
G37*
G36*
X84302Y-197806D02*
X88698Y-197806D01*
X91806Y-194698D01*
X91806Y-190302D01*
X88698Y-187194D01*
X84302Y-187194D01*
X81194Y-190302D01*
X81194Y-194698D01*
X84302Y-197806D01*
G37*
G36*
X211901Y-236004D02*
X219899Y-236004D01*
X227288Y-232943D01*
X232943Y-227288D01*
X236004Y-219899D01*
X236004Y-211901D01*
X232943Y-204512D01*
X227288Y-198857D01*
X219899Y-195796D01*
X211901Y-195796D01*
X204512Y-198857D01*
X198857Y-204512D01*
X195796Y-211901D01*
X195796Y-219899D01*
X198857Y-227288D01*
X204512Y-232943D01*
X211901Y-236004D01*
G37*
G36*
X-219899Y-236004D02*
X-211901Y-236004D01*
X-204512Y-232943D01*
X-198857Y-227288D01*
X-195796Y-219899D01*
X-195796Y-211901D01*
X-198857Y-204512D01*
X-204512Y-198857D01*
X-211901Y-195796D01*
X-219899Y-195796D01*
X-227288Y-198857D01*
X-232943Y-204512D01*
X-236004Y-211901D01*
X-236004Y-219899D01*
X-232943Y-227288D01*
X-227288Y-232943D01*
X-219899Y-236004D01*
G37*
G36*
X66302Y-215806D02*
X70698Y-215806D01*
X73806Y-212698D01*
X73806Y-208302D01*
X70698Y-205194D01*
X66302Y-205194D01*
X63787Y-207709D01*
X63567Y-207862D01*
X63272Y-207932D01*
X62973Y-207881D01*
X62718Y-207718D01*
X62546Y-207468D01*
X62486Y-207171D01*
X62486Y-205802D01*
X60998Y-204315D01*
X57908Y-204315D01*
X57908Y-215686D01*
X60998Y-215686D01*
X62486Y-214198D01*
X62486Y-213829D01*
X62533Y-213566D01*
X62692Y-213308D01*
X62940Y-213133D01*
X63236Y-213068D01*
X63534Y-213123D01*
X63787Y-213291D01*
X66302Y-215806D01*
G37*
G36*
X120302Y-215806D02*
X124698Y-215806D01*
X127806Y-212698D01*
X127806Y-208302D01*
X124698Y-205194D01*
X120302Y-205194D01*
X117194Y-208302D01*
X117194Y-212698D01*
X120302Y-215806D01*
G37*
G36*
X84302Y-215806D02*
X88698Y-215806D01*
X91806Y-212698D01*
X91806Y-208302D01*
X88698Y-205194D01*
X84302Y-205194D01*
X81194Y-208302D01*
X81194Y-212698D01*
X84302Y-215806D01*
G37*
G36*
X102302Y-215806D02*
X106698Y-215806D01*
X109806Y-212698D01*
X109806Y-208302D01*
X106698Y-205194D01*
X102302Y-205194D01*
X99194Y-208302D01*
X99194Y-212698D01*
X102302Y-215806D01*
G37*
G36*
X-46063Y-219138D02*
X-41610Y-219138D01*
X-41610Y-215628D01*
X-43097Y-214140D01*
X-46063Y-214140D01*
X-46063Y-219138D01*
G37*
G36*
X-62106Y-247439D02*
X-52204Y-247439D01*
X-51311Y-246546D01*
X-51311Y-236644D01*
X-52360Y-235595D01*
X-52523Y-235353D01*
X-52583Y-235056D01*
X-52583Y-225469D01*
X-52536Y-225206D01*
X-52377Y-224948D01*
X-52129Y-224772D01*
X-51833Y-224707D01*
X-51535Y-224763D01*
X-51282Y-224930D01*
X-50553Y-225660D01*
X-47587Y-225660D01*
X-47587Y-214140D01*
X-50553Y-214140D01*
X-52080Y-215667D01*
X-52310Y-215825D01*
X-52606Y-215890D01*
X-52904Y-215835D01*
X-53157Y-215667D01*
X-53668Y-215156D01*
X-60282Y-215156D01*
X-61175Y-216049D01*
X-61175Y-217318D01*
X-61230Y-217604D01*
X-61398Y-217857D01*
X-61727Y-218186D01*
X-61727Y-235056D01*
X-61783Y-235342D01*
X-61950Y-235595D01*
X-62999Y-236644D01*
X-62999Y-246546D01*
X-62106Y-247439D01*
G37*
G36*
X-64024Y-266738D02*
X-11176Y-266738D01*
X-11176Y-254555D01*
X-11185Y-254342D01*
X-11208Y-254146D01*
X-11246Y-253952D01*
X-11299Y-253762D01*
X-11367Y-253575D01*
X-11449Y-253395D01*
X-11544Y-253223D01*
X-11654Y-253057D01*
X-11775Y-252901D01*
X-11908Y-252755D01*
X-12053Y-252620D01*
X-12207Y-252496D01*
X-12370Y-252385D01*
X-12542Y-252286D01*
X-12720Y-252202D01*
X-12905Y-252131D01*
X-13095Y-252075D01*
X-13288Y-252034D01*
X-13481Y-252008D01*
X-13738Y-251996D01*
X-27684Y-251996D01*
X-27959Y-251945D01*
X-28214Y-251782D01*
X-28386Y-251531D01*
X-28446Y-251234D01*
X-28446Y-237285D01*
X-28455Y-237072D01*
X-28478Y-236876D01*
X-28516Y-236682D01*
X-28569Y-236492D01*
X-28637Y-236305D01*
X-28719Y-236125D01*
X-28814Y-235953D01*
X-28924Y-235787D01*
X-29045Y-235631D01*
X-29178Y-235485D01*
X-29323Y-235350D01*
X-29477Y-235226D01*
X-29640Y-235115D01*
X-29812Y-235016D01*
X-29990Y-234932D01*
X-30175Y-234861D01*
X-30365Y-234805D01*
X-30558Y-234764D01*
X-30751Y-234738D01*
X-31008Y-234726D01*
X-36383Y-234726D01*
X-36646Y-234679D01*
X-36904Y-234520D01*
X-37080Y-234273D01*
X-37145Y-233976D01*
X-37089Y-233678D01*
X-36922Y-233425D01*
X-34194Y-230698D01*
X-34194Y-226302D01*
X-37302Y-223194D01*
X-40848Y-223194D01*
X-41122Y-223143D01*
X-41378Y-222979D01*
X-41549Y-222729D01*
X-41610Y-222432D01*
X-41610Y-220662D01*
X-46063Y-220662D01*
X-46063Y-225660D01*
X-45568Y-225660D01*
X-45293Y-225711D01*
X-45038Y-225875D01*
X-44866Y-226125D01*
X-44806Y-226422D01*
X-44806Y-230698D01*
X-42078Y-233425D01*
X-41925Y-233645D01*
X-41856Y-233940D01*
X-41906Y-234239D01*
X-42070Y-234494D01*
X-42320Y-234666D01*
X-42617Y-234726D01*
X-44195Y-234726D01*
X-44408Y-234735D01*
X-44604Y-234758D01*
X-44798Y-234796D01*
X-44988Y-234849D01*
X-45175Y-234917D01*
X-45355Y-234999D01*
X-45527Y-235094D01*
X-45693Y-235204D01*
X-45849Y-235325D01*
X-45995Y-235458D01*
X-46130Y-235603D01*
X-46254Y-235757D01*
X-46365Y-235920D01*
X-46464Y-236092D01*
X-46549Y-236270D01*
X-46619Y-236455D01*
X-46675Y-236645D01*
X-46716Y-236838D01*
X-46742Y-237031D01*
X-46754Y-237288D01*
X-46754Y-251234D01*
X-46805Y-251509D01*
X-46968Y-251764D01*
X-47219Y-251936D01*
X-47516Y-251996D01*
X-61465Y-251996D01*
X-61678Y-252005D01*
X-61874Y-252028D01*
X-62068Y-252066D01*
X-62258Y-252119D01*
X-62445Y-252187D01*
X-62625Y-252269D01*
X-62797Y-252364D01*
X-62963Y-252474D01*
X-63119Y-252595D01*
X-63265Y-252728D01*
X-63400Y-252873D01*
X-63524Y-253027D01*
X-63635Y-253190D01*
X-63734Y-253362D01*
X-63819Y-253540D01*
X-63889Y-253725D01*
X-63945Y-253915D01*
X-63986Y-254108D01*
X-64012Y-254301D01*
X-64024Y-254558D01*
X-64024Y-266738D01*
G37*
G36*
X66302Y-233806D02*
X70698Y-233806D01*
X73806Y-230698D01*
X73806Y-226302D01*
X70698Y-223194D01*
X66302Y-223194D01*
X65687Y-223809D01*
X65467Y-223962D01*
X65172Y-224032D01*
X64873Y-223981D01*
X64618Y-223818D01*
X64446Y-223568D01*
X64394Y-223311D01*
X62898Y-221815D01*
X59808Y-221815D01*
X59808Y-233186D01*
X62898Y-233186D01*
X63751Y-232333D01*
X63982Y-232175D01*
X64278Y-232109D01*
X64576Y-232165D01*
X64829Y-232333D01*
X66302Y-233806D01*
G37*
G36*
X120302Y-233806D02*
X124698Y-233806D01*
X127806Y-230698D01*
X127806Y-226302D01*
X124698Y-223194D01*
X120302Y-223194D01*
X117194Y-226302D01*
X117194Y-230698D01*
X120302Y-233806D01*
G37*
G36*
X84302Y-233806D02*
X88698Y-233806D01*
X91806Y-230698D01*
X91806Y-226302D01*
X88698Y-223194D01*
X84302Y-223194D01*
X81194Y-226302D01*
X81194Y-230698D01*
X84302Y-233806D01*
G37*
G36*
X-5698Y-233806D02*
X-1302Y-233806D01*
X1806Y-230698D01*
X1806Y-226302D01*
X-1302Y-223194D01*
X-5698Y-223194D01*
X-8806Y-226302D01*
X-8806Y-230698D01*
X-5698Y-233806D01*
G37*
G36*
X12302Y-233806D02*
X16698Y-233806D01*
X19806Y-230698D01*
X19806Y-226302D01*
X16698Y-223194D01*
X12302Y-223194D01*
X9194Y-226302D01*
X9194Y-230698D01*
X12302Y-233806D01*
G37*
G36*
X-23698Y-233806D02*
X-19302Y-233806D01*
X-16194Y-230698D01*
X-16194Y-226302D01*
X-19302Y-223194D01*
X-23698Y-223194D01*
X-26806Y-226302D01*
X-26806Y-230698D01*
X-23698Y-233806D01*
G37*
G36*
X-77698Y-233806D02*
X-73302Y-233806D01*
X-70194Y-230698D01*
X-70194Y-226302D01*
X-73302Y-223194D01*
X-77698Y-223194D01*
X-80806Y-226302D01*
X-80806Y-230698D01*
X-77698Y-233806D01*
G37*
G36*
X102302Y-233806D02*
X106698Y-233806D01*
X109806Y-230698D01*
X109806Y-226302D01*
X106698Y-223194D01*
X102302Y-223194D01*
X99194Y-226302D01*
X99194Y-230698D01*
X102302Y-233806D01*
G37*
G36*
X90060Y-253838D02*
X103838Y-253838D01*
X103838Y-240060D01*
X101708Y-240060D01*
X96364Y-242274D01*
X93107Y-245531D01*
X92887Y-245684D01*
X92592Y-245753D01*
X92293Y-245703D01*
X92038Y-245539D01*
X91866Y-245289D01*
X91806Y-244992D01*
X91806Y-244302D01*
X88698Y-241194D01*
X84302Y-241194D01*
X81194Y-244302D01*
X81194Y-248698D01*
X84302Y-251806D01*
X88698Y-251806D01*
X88759Y-251745D01*
X88979Y-251592D01*
X89274Y-251522D01*
X89573Y-251573D01*
X89828Y-251736D01*
X90000Y-251986D01*
X90060Y-252283D01*
X90060Y-253838D01*
G37*
G36*
X105362Y-253838D02*
X119140Y-253838D01*
X119140Y-252483D01*
X119187Y-252220D01*
X119346Y-251962D01*
X119594Y-251787D01*
X119890Y-251722D01*
X120188Y-251777D01*
X120232Y-251806D01*
X124698Y-251806D01*
X127806Y-248698D01*
X127806Y-244302D01*
X124698Y-241194D01*
X120302Y-241194D01*
X117194Y-244302D01*
X117194Y-244792D01*
X117147Y-245055D01*
X116988Y-245313D01*
X116740Y-245489D01*
X116444Y-245554D01*
X116146Y-245498D01*
X115893Y-245331D01*
X112836Y-242274D01*
X107492Y-240060D01*
X105362Y-240060D01*
X105362Y-253838D01*
G37*
G36*
X156162Y-253838D02*
X169940Y-253838D01*
X169940Y-251708D01*
X167726Y-246364D01*
X163636Y-242274D01*
X158292Y-240060D01*
X156162Y-240060D01*
X156162Y-253838D01*
G37*
G36*
X140860Y-253838D02*
X154638Y-253838D01*
X154638Y-240060D01*
X152508Y-240060D01*
X147164Y-242274D01*
X143074Y-246364D01*
X140860Y-251708D01*
X140860Y-253838D01*
G37*
G36*
X48302Y-251806D02*
X52698Y-251806D01*
X55806Y-248698D01*
X55806Y-244302D01*
X52698Y-241194D01*
X48302Y-241194D01*
X45194Y-244302D01*
X45194Y-248698D01*
X48302Y-251806D01*
G37*
G36*
X66302Y-251806D02*
X70698Y-251806D01*
X73806Y-248698D01*
X73806Y-244302D01*
X70698Y-241194D01*
X66302Y-241194D01*
X63194Y-244302D01*
X63194Y-248698D01*
X66302Y-251806D01*
G37*
G36*
X-77698Y-251806D02*
X-73302Y-251806D01*
X-70194Y-248698D01*
X-70194Y-244302D01*
X-73302Y-241194D01*
X-77698Y-241194D01*
X-80806Y-244302D01*
X-80806Y-248698D01*
X-77698Y-251806D01*
G37*
G36*
X2602Y-256786D02*
X6538Y-256786D01*
X6538Y-252208D01*
X1115Y-252208D01*
X1115Y-255298D01*
X2602Y-256786D01*
G37*
G36*
X8062Y-256786D02*
X11998Y-256786D01*
X13486Y-255298D01*
X13486Y-252208D01*
X8062Y-252208D01*
X8062Y-256786D01*
G37*
G36*
X105362Y-269140D02*
X107492Y-269140D01*
X112836Y-266926D01*
X116926Y-262836D01*
X119140Y-257492D01*
X119140Y-255362D01*
X105362Y-255362D01*
X105362Y-269140D01*
G37*
G36*
X84302Y-269806D02*
X88698Y-269806D01*
X91806Y-266698D01*
X91806Y-264208D01*
X91853Y-263945D01*
X92012Y-263687D01*
X92260Y-263511D01*
X92556Y-263446D01*
X92854Y-263502D01*
X93107Y-263669D01*
X96364Y-266926D01*
X101708Y-269140D01*
X103838Y-269140D01*
X103838Y-255362D01*
X90060Y-255362D01*
X90060Y-257492D01*
X90761Y-259184D01*
X90818Y-259439D01*
X90772Y-259738D01*
X90612Y-259997D01*
X90365Y-260172D01*
X90069Y-260237D01*
X89771Y-260181D01*
X89518Y-260014D01*
X88698Y-259194D01*
X84302Y-259194D01*
X81194Y-262302D01*
X81194Y-266698D01*
X84302Y-269806D01*
G37*
G36*
X156162Y-269140D02*
X158292Y-269140D01*
X163636Y-266926D01*
X167726Y-262836D01*
X169940Y-257492D01*
X169940Y-255362D01*
X156162Y-255362D01*
X156162Y-269140D01*
G37*
G36*
X152508Y-269140D02*
X154638Y-269140D01*
X154638Y-255362D01*
X140860Y-255362D01*
X140860Y-257492D01*
X143074Y-262836D01*
X147164Y-266926D01*
X152508Y-269140D01*
G37*
G36*
X48302Y-269806D02*
X52698Y-269806D01*
X55806Y-266698D01*
X55806Y-262302D01*
X52698Y-259194D01*
X48302Y-259194D01*
X45194Y-262302D01*
X45194Y-266698D01*
X48302Y-269806D01*
G37*
G36*
X66302Y-269806D02*
X70698Y-269806D01*
X73806Y-266698D01*
X73806Y-262302D01*
X70698Y-259194D01*
X66302Y-259194D01*
X63194Y-262302D01*
X63194Y-266698D01*
X66302Y-269806D01*
G37*
G36*
X30302Y-269806D02*
X34698Y-269806D01*
X37806Y-266698D01*
X37806Y-262302D01*
X34698Y-259194D01*
X30302Y-259194D01*
X27194Y-262302D01*
X27194Y-266698D01*
X30302Y-269806D01*
G37*
G36*
X12302Y-269806D02*
X16698Y-269806D01*
X19806Y-266698D01*
X19806Y-262302D01*
X16698Y-259194D01*
X12302Y-259194D01*
X9194Y-262302D01*
X9194Y-266698D01*
X12302Y-269806D01*
G37*
G36*
X-5698Y-269806D02*
X-1302Y-269806D01*
X1806Y-266698D01*
X1806Y-262302D01*
X-1302Y-259194D01*
X-5698Y-259194D01*
X-8806Y-262302D01*
X-8806Y-266698D01*
X-5698Y-269806D01*
G37*
G36*
X-77698Y-269806D02*
X-73302Y-269806D01*
X-70194Y-266698D01*
X-70194Y-262302D01*
X-73302Y-259194D01*
X-77698Y-259194D01*
X-80806Y-262302D01*
X-80806Y-266698D01*
X-77698Y-269806D01*
G37*
G36*
X101708Y-319940D02*
X103838Y-319940D01*
X103838Y-304638D01*
X105362Y-304638D01*
X105362Y-319940D01*
X107492Y-319940D01*
X112836Y-317726D01*
X116926Y-313636D01*
X119140Y-308292D01*
X119140Y-306483D01*
X119187Y-306220D01*
X119346Y-305962D01*
X119594Y-305787D01*
X119890Y-305722D01*
X120188Y-305777D01*
X120232Y-305806D01*
X124698Y-305806D01*
X127806Y-302698D01*
X127806Y-298302D01*
X124698Y-295194D01*
X120302Y-295194D01*
X118145Y-297352D01*
X117920Y-297507D01*
X117624Y-297575D01*
X117326Y-297521D01*
X117071Y-297356D01*
X116974Y-297211D01*
X113516Y-293754D01*
X113363Y-293534D01*
X113294Y-293239D01*
X113345Y-292940D01*
X113508Y-292685D01*
X113758Y-292513D01*
X114055Y-292453D01*
X124573Y-292453D01*
X124864Y-292511D01*
X127310Y-293524D01*
X132690Y-293524D01*
X137661Y-291465D01*
X141465Y-287661D01*
X143524Y-282690D01*
X143524Y-277310D01*
X141465Y-272339D01*
X137661Y-268535D01*
X132690Y-266476D01*
X127310Y-266476D01*
X122339Y-268535D01*
X118535Y-272339D01*
X116476Y-277310D01*
X116476Y-281785D01*
X116425Y-282060D01*
X116261Y-282315D01*
X116011Y-282487D01*
X115714Y-282547D01*
X-10692Y-282547D01*
X-10997Y-282484D01*
X-11245Y-282310D01*
X-11406Y-282053D01*
X-11454Y-281753D01*
X-11389Y-281489D01*
X-11392Y-281487D01*
X-11311Y-281275D01*
X-11255Y-281085D01*
X-11214Y-280892D01*
X-11188Y-280699D01*
X-11176Y-280442D01*
X-11176Y-268262D01*
X-36838Y-268262D01*
X-36838Y-300274D01*
X-31005Y-300274D01*
X-30792Y-300265D01*
X-30596Y-300242D01*
X-30402Y-300204D01*
X-30212Y-300151D01*
X-30025Y-300083D01*
X-29845Y-300001D01*
X-29673Y-299906D01*
X-29507Y-299796D01*
X-29351Y-299675D01*
X-29205Y-299542D01*
X-29070Y-299397D01*
X-28946Y-299243D01*
X-28835Y-299080D01*
X-28736Y-298908D01*
X-28652Y-298730D01*
X-28581Y-298545D01*
X-28525Y-298355D01*
X-28484Y-298162D01*
X-28458Y-297969D01*
X-28446Y-297712D01*
X-28446Y-283766D01*
X-28395Y-283491D01*
X-28232Y-283236D01*
X-27981Y-283064D01*
X-27684Y-283004D01*
X-18684Y-283004D01*
X-18523Y-283021D01*
X-18245Y-283143D01*
X-18037Y-283364D01*
X-17931Y-283648D01*
X-17945Y-283951D01*
X-18076Y-284225D01*
X-18303Y-284426D01*
X-20089Y-285456D01*
X-21084Y-287180D01*
X-21196Y-287329D01*
X-21446Y-287501D01*
X-21744Y-287561D01*
X-22996Y-287561D01*
X-23889Y-288454D01*
X-23889Y-298356D01*
X-22996Y-299249D01*
X-13094Y-299249D01*
X-12201Y-298356D01*
X-12201Y-293215D01*
X-12150Y-292940D01*
X-11986Y-292685D01*
X-11736Y-292513D01*
X-11439Y-292453D01*
X95145Y-292453D01*
X95408Y-292500D01*
X95666Y-292659D01*
X95842Y-292907D01*
X95907Y-293203D01*
X95851Y-293501D01*
X95684Y-293754D01*
X92274Y-297164D01*
X92240Y-297246D01*
X92091Y-297476D01*
X91844Y-297651D01*
X91548Y-297716D01*
X91250Y-297661D01*
X90997Y-297493D01*
X88698Y-295194D01*
X84302Y-295194D01*
X81194Y-298302D01*
X81194Y-302698D01*
X84302Y-305806D01*
X88698Y-305806D01*
X88759Y-305745D01*
X88979Y-305592D01*
X89274Y-305522D01*
X89573Y-305573D01*
X89828Y-305736D01*
X90000Y-305986D01*
X90060Y-306283D01*
X90060Y-308292D01*
X92274Y-313636D01*
X96364Y-317726D01*
X101708Y-319940D01*
G37*
G36*
X-44481Y-349524D02*
X-30519Y-349524D01*
X-29626Y-348631D01*
X-29626Y-311369D01*
X-30519Y-310476D01*
X-32764Y-310476D01*
X-33050Y-310420D01*
X-33303Y-310253D01*
X-41981Y-301575D01*
X-42134Y-301355D01*
X-42204Y-301060D01*
X-42153Y-300761D01*
X-41989Y-300506D01*
X-41739Y-300334D01*
X-41442Y-300274D01*
X-38362Y-300274D01*
X-38362Y-268262D01*
X-64024Y-268262D01*
X-64024Y-280445D01*
X-64015Y-280658D01*
X-63992Y-280854D01*
X-63954Y-281048D01*
X-63901Y-281238D01*
X-63833Y-281425D01*
X-63751Y-281605D01*
X-63656Y-281777D01*
X-63546Y-281943D01*
X-63425Y-282099D01*
X-63292Y-282245D01*
X-63147Y-282380D01*
X-62993Y-282504D01*
X-62830Y-282615D01*
X-62658Y-282714D01*
X-62480Y-282799D01*
X-62295Y-282869D01*
X-62105Y-282925D01*
X-61912Y-282966D01*
X-61719Y-282992D01*
X-61462Y-283004D01*
X-47516Y-283004D01*
X-47241Y-283055D01*
X-46986Y-283218D01*
X-46814Y-283469D01*
X-46754Y-283766D01*
X-46754Y-294962D01*
X-46801Y-295225D01*
X-46960Y-295483D01*
X-47207Y-295659D01*
X-47504Y-295724D01*
X-47802Y-295668D01*
X-48055Y-295501D01*
X-51088Y-292468D01*
X-51251Y-292226D01*
X-51311Y-291929D01*
X-51311Y-288454D01*
X-52204Y-287561D01*
X-62106Y-287561D01*
X-62999Y-288454D01*
X-62999Y-298356D01*
X-62106Y-299249D01*
X-58631Y-299249D01*
X-58345Y-299305D01*
X-58092Y-299472D01*
X-45597Y-311967D01*
X-45434Y-312209D01*
X-45374Y-312506D01*
X-45374Y-348631D01*
X-44481Y-349524D01*
G37*
G36*
X-77698Y-287806D02*
X-73302Y-287806D01*
X-70194Y-284698D01*
X-70194Y-280302D01*
X-73302Y-277194D01*
X-77698Y-277194D01*
X-80806Y-280302D01*
X-80806Y-284698D01*
X-77698Y-287806D01*
G37*
G36*
X140860Y-304638D02*
X154638Y-304638D01*
X154638Y-290860D01*
X152508Y-290860D01*
X147164Y-293074D01*
X143074Y-297164D01*
X140860Y-302508D01*
X140860Y-304638D01*
G37*
G36*
X156162Y-304638D02*
X169940Y-304638D01*
X169940Y-302508D01*
X167726Y-297164D01*
X163636Y-293074D01*
X158292Y-290860D01*
X156162Y-290860D01*
X156162Y-304638D01*
G37*
G36*
X66302Y-305806D02*
X70698Y-305806D01*
X73806Y-302698D01*
X73806Y-298302D01*
X70698Y-295194D01*
X66302Y-295194D01*
X63194Y-298302D01*
X63194Y-302698D01*
X66302Y-305806D01*
G37*
G36*
X-8488Y-327238D02*
X40Y-327238D01*
X40Y-305948D01*
X-163Y-305745D01*
X-321Y-305514D01*
X-386Y-305218D01*
X-331Y-304920D01*
X-163Y-304667D01*
X1806Y-302698D01*
X1806Y-298302D01*
X-1302Y-295194D01*
X-5698Y-295194D01*
X-8806Y-298302D01*
X-8806Y-302698D01*
X-8345Y-303159D01*
X-8192Y-303379D01*
X-8122Y-303674D01*
X-8173Y-303973D01*
X-8336Y-304228D01*
X-8488Y-304332D01*
X-8488Y-327238D01*
G37*
G36*
X12302Y-305806D02*
X16698Y-305806D01*
X19806Y-302698D01*
X19806Y-298302D01*
X16698Y-295194D01*
X12302Y-295194D01*
X9194Y-298302D01*
X9194Y-302698D01*
X12302Y-305806D01*
G37*
G36*
X-75040Y-327238D02*
X-66512Y-327238D01*
X-66512Y-304460D01*
X-70117Y-304460D01*
X-70380Y-304413D01*
X-70638Y-304254D01*
X-70813Y-304006D01*
X-70878Y-303710D01*
X-70823Y-303412D01*
X-70655Y-303159D01*
X-70194Y-302698D01*
X-70194Y-298302D01*
X-73302Y-295194D01*
X-77698Y-295194D01*
X-80806Y-298302D01*
X-80806Y-302698D01*
X-77698Y-305806D01*
X-75802Y-305806D01*
X-75527Y-305857D01*
X-75272Y-306021D01*
X-75100Y-306271D01*
X-75040Y-306568D01*
X-75040Y-327238D01*
G37*
G36*
X30302Y-305806D02*
X34698Y-305806D01*
X37806Y-302698D01*
X37806Y-298302D01*
X34698Y-295194D01*
X30302Y-295194D01*
X27194Y-298302D01*
X27194Y-302698D01*
X30302Y-305806D01*
G37*
G36*
X48302Y-305806D02*
X52698Y-305806D01*
X55806Y-302698D01*
X55806Y-298302D01*
X52698Y-295194D01*
X48302Y-295194D01*
X45194Y-298302D01*
X45194Y-302698D01*
X48302Y-305806D01*
G37*
G36*
X-64988Y-327238D02*
X-56460Y-327238D01*
X-56460Y-305948D01*
X-57948Y-304460D01*
X-64988Y-304460D01*
X-64988Y-327238D01*
G37*
G36*
X-18540Y-327238D02*
X-10012Y-327238D01*
X-10012Y-304460D01*
X-17052Y-304460D01*
X-18540Y-305948D01*
X-18540Y-327238D01*
G37*
G36*
X152508Y-319940D02*
X154638Y-319940D01*
X154638Y-306162D01*
X140860Y-306162D01*
X140860Y-308292D01*
X143074Y-313636D01*
X147164Y-317726D01*
X152508Y-319940D01*
G37*
G36*
X-8488Y-351540D02*
X-1448Y-351540D01*
X40Y-350052D01*
X40Y-328762D01*
X-8488Y-328762D01*
X-8488Y-351540D01*
G37*
G36*
X-17052Y-351540D02*
X-10012Y-351540D01*
X-10012Y-328762D01*
X-18540Y-328762D01*
X-18540Y-350052D01*
X-17052Y-351540D01*
G37*
%LPD*%
G36*
X59287Y-108130D02*
X58990Y-108191D01*
X54957Y-108191D01*
X54671Y-108135D01*
X54419Y-107967D01*
X48017Y-101566D01*
X47854Y-101324D01*
X47794Y-101027D01*
X47794Y-86473D01*
X47850Y-86187D01*
X48017Y-85934D01*
X63422Y-70529D01*
X63664Y-70366D01*
X63961Y-70306D01*
X67198Y-70306D01*
X70419Y-67085D01*
X70521Y-66926D01*
X70771Y-66754D01*
X71068Y-66694D01*
X74668Y-66694D01*
X74943Y-66745D01*
X75198Y-66909D01*
X75370Y-67159D01*
X75430Y-67456D01*
X75430Y-68177D01*
X76323Y-69070D01*
X83185Y-69070D01*
X84061Y-68194D01*
X84292Y-68036D01*
X84588Y-67971D01*
X84886Y-68026D01*
X85139Y-68194D01*
X86015Y-69070D01*
X92877Y-69070D01*
X93770Y-68177D01*
X93770Y-66394D01*
X93821Y-66119D01*
X93985Y-65864D01*
X94235Y-65692D01*
X94532Y-65632D01*
X95977Y-65632D01*
X96251Y-65683D01*
X96507Y-65847D01*
X96678Y-66097D01*
X96739Y-66394D01*
X96739Y-66777D01*
X97631Y-67670D01*
X105243Y-67670D01*
X105288Y-67640D01*
X105584Y-67575D01*
X105882Y-67630D01*
X106135Y-67798D01*
X111323Y-72986D01*
X111486Y-73227D01*
X111546Y-73525D01*
X111546Y-77381D01*
X112126Y-77961D01*
X112284Y-78192D01*
X112349Y-78488D01*
X112293Y-78786D01*
X112126Y-79039D01*
X111924Y-79241D01*
X111682Y-79404D01*
X111385Y-79464D01*
X105717Y-79464D01*
X105442Y-79413D01*
X105186Y-79249D01*
X105015Y-78999D01*
X104955Y-78702D01*
X104955Y-76544D01*
X104062Y-75651D01*
X97448Y-75651D01*
X96937Y-76162D01*
X96707Y-76320D01*
X96411Y-76385D01*
X96112Y-76330D01*
X95860Y-76162D01*
X94333Y-74635D01*
X91367Y-74635D01*
X91367Y-86155D01*
X94333Y-86155D01*
X95860Y-84628D01*
X96090Y-84470D01*
X96386Y-84405D01*
X96684Y-84461D01*
X96937Y-84628D01*
X97448Y-85139D01*
X104062Y-85139D01*
X104942Y-84259D01*
X105183Y-84096D01*
X105480Y-84036D01*
X111385Y-84036D01*
X111671Y-84092D01*
X111924Y-84259D01*
X112126Y-84461D01*
X112284Y-84692D01*
X112349Y-84988D01*
X112293Y-85286D01*
X112126Y-85539D01*
X111924Y-85741D01*
X111682Y-85904D01*
X111385Y-85964D01*
X107559Y-85964D01*
X103806Y-89717D01*
X103564Y-89880D01*
X103267Y-89941D01*
X98215Y-89941D01*
X97339Y-90816D01*
X97108Y-90974D01*
X96812Y-91040D01*
X96514Y-90984D01*
X96261Y-90816D01*
X95385Y-89941D01*
X88523Y-89941D01*
X87630Y-90833D01*
X87630Y-99387D01*
X88535Y-100292D01*
X88743Y-100331D01*
X88999Y-100494D01*
X89170Y-100744D01*
X89231Y-101042D01*
X89231Y-104494D01*
X89179Y-104769D01*
X89016Y-105024D01*
X88805Y-105169D01*
X87825Y-106149D01*
X87825Y-106290D01*
X87774Y-106565D01*
X87610Y-106820D01*
X87360Y-106992D01*
X87063Y-107052D01*
X85432Y-107052D01*
X85157Y-107001D01*
X84901Y-106837D01*
X84730Y-106587D01*
X84701Y-106447D01*
X84512Y-106257D01*
X84354Y-106027D01*
X84289Y-105731D01*
X84345Y-105432D01*
X84512Y-105180D01*
X85686Y-104006D01*
X85686Y-100916D01*
X74315Y-100916D01*
X74315Y-104006D01*
X75488Y-105180D01*
X75646Y-105410D01*
X75711Y-105706D01*
X75656Y-106004D01*
X75488Y-106257D01*
X75331Y-106415D01*
X75331Y-106444D01*
X75279Y-106719D01*
X75116Y-106974D01*
X74866Y-107146D01*
X74569Y-107206D01*
X70025Y-107206D01*
X69739Y-107150D01*
X69487Y-106983D01*
X67198Y-104694D01*
X62802Y-104694D01*
X59529Y-107967D01*
X59287Y-108130D01*
G37*
%LPC*%
G36*
X85390Y-79633D02*
X89843Y-79633D01*
X89843Y-74635D01*
X86877Y-74635D01*
X85390Y-76123D01*
X85390Y-79633D01*
G37*
G36*
X86877Y-86155D02*
X89843Y-86155D01*
X89843Y-81157D01*
X85390Y-81157D01*
X85390Y-84667D01*
X86877Y-86155D01*
G37*
G36*
X74315Y-99392D02*
X79238Y-99392D01*
X79238Y-94814D01*
X75802Y-94814D01*
X74315Y-96302D01*
X74315Y-99392D01*
G37*
G36*
X80762Y-99392D02*
X85686Y-99392D01*
X85686Y-96302D01*
X84198Y-94814D01*
X80762Y-94814D01*
X80762Y-99392D01*
G37*
%LPD*%
G36*
X103181Y-121746D02*
X102884Y-121806D01*
X101473Y-121806D01*
X101187Y-121750D01*
X100934Y-121583D01*
X100893Y-121541D01*
X100730Y-121300D01*
X100670Y-121003D01*
X100670Y-120423D01*
X99777Y-119530D01*
X98457Y-119530D01*
X98171Y-119474D01*
X97919Y-119307D01*
X97894Y-119282D01*
X94106Y-119282D01*
X94081Y-119307D01*
X93840Y-119470D01*
X93543Y-119530D01*
X92223Y-119530D01*
X91301Y-120452D01*
X91059Y-120615D01*
X90762Y-120676D01*
X85108Y-120676D01*
X84833Y-120624D01*
X84578Y-120461D01*
X84406Y-120211D01*
X84378Y-120070D01*
X83453Y-119146D01*
X83233Y-119146D01*
X82958Y-119094D01*
X82702Y-118931D01*
X82531Y-118681D01*
X82471Y-118384D01*
X82471Y-114932D01*
X82522Y-114657D01*
X82685Y-114402D01*
X82935Y-114230D01*
X83233Y-114170D01*
X83777Y-114170D01*
X84698Y-113249D01*
X84721Y-113127D01*
X84884Y-112872D01*
X85134Y-112700D01*
X85432Y-112640D01*
X87063Y-112640D01*
X87338Y-112691D01*
X87593Y-112855D01*
X87765Y-113105D01*
X87825Y-113402D01*
X87825Y-113851D01*
X88718Y-114744D01*
X95331Y-114744D01*
X96224Y-113851D01*
X96224Y-106149D01*
X95234Y-105159D01*
X95050Y-105041D01*
X94879Y-104791D01*
X94819Y-104494D01*
X94819Y-101042D01*
X94870Y-100767D01*
X95033Y-100511D01*
X95283Y-100340D01*
X95336Y-100329D01*
X96261Y-99404D01*
X96492Y-99246D01*
X96788Y-99181D01*
X97086Y-99236D01*
X97339Y-99404D01*
X98215Y-100280D01*
X105077Y-100280D01*
X105970Y-99387D01*
X105970Y-94335D01*
X106026Y-94049D01*
X106193Y-93796D01*
X109230Y-90759D01*
X109471Y-90596D01*
X109769Y-90536D01*
X111385Y-90536D01*
X111671Y-90592D01*
X111924Y-90759D01*
X112126Y-90961D01*
X112284Y-91192D01*
X112349Y-91488D01*
X112293Y-91786D01*
X112126Y-92039D01*
X111546Y-92619D01*
X111546Y-97080D01*
X111490Y-97366D01*
X111323Y-97619D01*
X103909Y-105033D01*
X103667Y-105196D01*
X103370Y-105256D01*
X98868Y-105256D01*
X97975Y-106149D01*
X97975Y-113851D01*
X98868Y-114744D01*
X105481Y-114744D01*
X106374Y-113851D01*
X106374Y-109349D01*
X106430Y-109063D01*
X106597Y-108810D01*
X117410Y-97997D01*
X117652Y-97834D01*
X117949Y-97774D01*
X120518Y-97774D01*
X120793Y-97825D01*
X121048Y-97989D01*
X121220Y-98239D01*
X121280Y-98536D01*
X121280Y-102488D01*
X126082Y-102488D01*
X126082Y-109540D01*
X126486Y-109540D01*
X126761Y-109591D01*
X127016Y-109755D01*
X127188Y-110005D01*
X127248Y-110302D01*
X127248Y-116200D01*
X127197Y-116475D01*
X127033Y-116730D01*
X126783Y-116902D01*
X126486Y-116962D01*
X118834Y-116962D01*
X116589Y-119207D01*
X116347Y-119370D01*
X116050Y-119431D01*
X114231Y-119431D01*
X113355Y-120306D01*
X113124Y-120464D01*
X112828Y-120530D01*
X112530Y-120474D01*
X112277Y-120306D01*
X111401Y-119431D01*
X104539Y-119431D01*
X103646Y-120323D01*
X103646Y-121044D01*
X103595Y-121319D01*
X103431Y-121574D01*
X103181Y-121746D01*
G37*
%LPC*%
G36*
X122768Y-109540D02*
X124558Y-109540D01*
X124558Y-104012D01*
X121280Y-104012D01*
X121280Y-108052D01*
X122768Y-109540D01*
G37*
%LPD*%
G36*
X150208Y-135664D02*
X149912Y-135730D01*
X149614Y-135674D01*
X149361Y-135506D01*
X148485Y-134631D01*
X144151Y-134631D01*
X143865Y-134575D01*
X143613Y-134407D01*
X138457Y-129252D01*
X136432Y-129252D01*
X136157Y-129201D01*
X135901Y-129037D01*
X135730Y-128787D01*
X135701Y-128647D01*
X134794Y-127739D01*
X134636Y-127508D01*
X134571Y-127212D01*
X134626Y-126914D01*
X134794Y-126661D01*
X135670Y-125785D01*
X135670Y-124466D01*
X135725Y-124180D01*
X135893Y-123927D01*
X136392Y-123428D01*
X136392Y-110302D01*
X136443Y-110027D01*
X136607Y-109772D01*
X136857Y-109600D01*
X137154Y-109540D01*
X137558Y-109540D01*
X137558Y-102488D01*
X139082Y-102488D01*
X139082Y-109540D01*
X140872Y-109540D01*
X141750Y-108663D01*
X141980Y-108505D01*
X142276Y-108439D01*
X142574Y-108495D01*
X142618Y-108524D01*
X146545Y-108524D01*
X146831Y-108580D01*
X147084Y-108747D01*
X156177Y-117840D01*
X162369Y-117840D01*
X162643Y-117891D01*
X162899Y-118055D01*
X163070Y-118305D01*
X163131Y-118602D01*
X163131Y-118985D01*
X164006Y-119861D01*
X164164Y-120092D01*
X164230Y-120388D01*
X164174Y-120686D01*
X164006Y-120939D01*
X163131Y-121815D01*
X163131Y-125649D01*
X163075Y-125935D01*
X162907Y-126187D01*
X154687Y-134407D01*
X154446Y-134570D01*
X154149Y-134631D01*
X151315Y-134631D01*
X150439Y-135506D01*
X150208Y-135664D01*
G37*
G36*
X130761Y148880D02*
X130465Y148815D01*
X130167Y148870D01*
X129914Y149038D01*
X125740Y153211D01*
X125582Y153442D01*
X125517Y153738D01*
X125573Y154036D01*
X125740Y154289D01*
X132794Y161343D01*
X132794Y162475D01*
X132850Y162761D01*
X133017Y163013D01*
X135306Y165302D01*
X135306Y169698D01*
X132198Y172806D01*
X127802Y172806D01*
X124694Y169698D01*
X124694Y165302D01*
X126234Y163763D01*
X126392Y163532D01*
X126457Y163236D01*
X126401Y162938D01*
X126234Y162685D01*
X121236Y157687D01*
X120994Y157525D01*
X120697Y157464D01*
X115343Y157464D01*
X115075Y157513D01*
X114818Y157674D01*
X114644Y157923D01*
X114602Y158122D01*
X114423Y158298D01*
X114263Y158527D01*
X114195Y158823D01*
X114248Y159121D01*
X114413Y159376D01*
X115577Y160559D01*
X115550Y163649D01*
X104179Y163550D01*
X104206Y160460D01*
X105390Y159297D01*
X105550Y159068D01*
X105617Y158772D01*
X105564Y158474D01*
X105399Y158219D01*
X105203Y158020D01*
X105190Y157951D01*
X105027Y157696D01*
X104777Y157525D01*
X104480Y157464D01*
X101285Y157464D01*
X100099Y156278D01*
X99857Y156115D01*
X99560Y156055D01*
X77233Y156055D01*
X76947Y156110D01*
X76695Y156278D01*
X71809Y161163D01*
X71646Y161405D01*
X71586Y161702D01*
X71586Y163438D01*
X65484Y163438D01*
X65484Y164962D01*
X71586Y164962D01*
X71586Y168398D01*
X71015Y168969D01*
X70857Y169199D01*
X70792Y169495D01*
X70847Y169794D01*
X71015Y170046D01*
X71273Y170305D01*
X71515Y170468D01*
X71812Y170528D01*
X79016Y170528D01*
X79027Y170539D01*
X79268Y170702D01*
X79565Y170762D01*
X91495Y170762D01*
X94086Y173353D01*
X94327Y173516D01*
X94625Y173576D01*
X101753Y173576D01*
X102646Y174469D01*
X102646Y185160D01*
X102702Y185446D01*
X102869Y185699D01*
X109477Y192307D01*
X109719Y192470D01*
X110016Y192530D01*
X114568Y192530D01*
X115461Y193423D01*
X115461Y200285D01*
X115304Y200443D01*
X115146Y200673D01*
X115080Y200969D01*
X115136Y201268D01*
X115304Y201520D01*
X116477Y202694D01*
X116477Y205784D01*
X105106Y205784D01*
X105106Y202694D01*
X106280Y201520D01*
X106438Y201290D01*
X106503Y200994D01*
X106447Y200696D01*
X106280Y200443D01*
X106122Y200285D01*
X106122Y195733D01*
X106066Y195447D01*
X105899Y195194D01*
X103947Y193242D01*
X103727Y193089D01*
X103432Y193019D01*
X103133Y193070D01*
X102878Y193234D01*
X102706Y193484D01*
X102659Y193719D01*
X101753Y194624D01*
X88491Y194624D01*
X87598Y193731D01*
X87598Y176096D01*
X87547Y175821D01*
X87383Y175566D01*
X87133Y175394D01*
X86836Y175334D01*
X80424Y175334D01*
X80149Y175385D01*
X79894Y175549D01*
X79722Y175799D01*
X79662Y176096D01*
X79662Y183338D01*
X70360Y183338D01*
X70360Y195640D01*
X64070Y195640D01*
X63587Y195157D01*
X63367Y195004D01*
X63072Y194934D01*
X62773Y194985D01*
X62518Y195148D01*
X62346Y195399D01*
X62286Y195696D01*
X62286Y213737D01*
X62342Y214023D01*
X62509Y214276D01*
X62611Y214378D01*
X62841Y214536D01*
X63138Y214601D01*
X63436Y214546D01*
X63689Y214378D01*
X64491Y213576D01*
X77753Y213576D01*
X78646Y214469D01*
X78646Y233731D01*
X77753Y234624D01*
X74170Y234624D01*
X73895Y234675D01*
X73640Y234839D01*
X73468Y235089D01*
X73408Y235386D01*
X73408Y235805D01*
X73464Y236091D01*
X73631Y236344D01*
X76594Y239307D01*
X76836Y239470D01*
X77133Y239531D01*
X81685Y239531D01*
X81843Y239688D01*
X82073Y239846D01*
X82369Y239911D01*
X82668Y239856D01*
X82920Y239688D01*
X84094Y238515D01*
X87184Y238515D01*
X87184Y249886D01*
X84094Y249886D01*
X82920Y248712D01*
X82690Y248554D01*
X82394Y248489D01*
X82096Y248545D01*
X81843Y248712D01*
X81685Y248870D01*
X74823Y248870D01*
X73930Y247977D01*
X73930Y243425D01*
X73874Y243139D01*
X73707Y242886D01*
X68836Y238015D01*
X68836Y235386D01*
X68785Y235111D01*
X68621Y234856D01*
X68371Y234684D01*
X68074Y234624D01*
X64491Y234624D01*
X63598Y233731D01*
X63598Y222147D01*
X63542Y221861D01*
X63375Y221608D01*
X57714Y215947D01*
X57714Y181263D01*
X57658Y180977D01*
X57491Y180724D01*
X55876Y179109D01*
X55635Y178946D01*
X55337Y178886D01*
X41678Y178886D01*
X41415Y178933D01*
X41157Y179092D01*
X40981Y179340D01*
X40916Y179636D01*
X40972Y179934D01*
X41139Y180187D01*
X41424Y180472D01*
X41424Y181877D01*
X41475Y182152D01*
X41639Y182407D01*
X41889Y182579D01*
X42186Y182639D01*
X44494Y182639D01*
X44769Y182588D01*
X45024Y182424D01*
X45196Y182174D01*
X45256Y181877D01*
X45256Y181618D01*
X46149Y180726D01*
X53851Y180726D01*
X54744Y181618D01*
X54744Y188232D01*
X54233Y188743D01*
X54075Y188973D01*
X54010Y189269D01*
X54066Y189568D01*
X54233Y189820D01*
X55760Y191347D01*
X55760Y194313D01*
X44240Y194313D01*
X44240Y191347D01*
X45767Y189820D01*
X45925Y189590D01*
X45990Y189294D01*
X45935Y188996D01*
X45767Y188743D01*
X45256Y188232D01*
X45256Y187973D01*
X45205Y187698D01*
X45041Y187443D01*
X44791Y187271D01*
X44494Y187211D01*
X39278Y187211D01*
X36614Y184547D01*
X36373Y184384D01*
X36075Y184324D01*
X33886Y184324D01*
X33611Y184375D01*
X33356Y184539D01*
X33184Y184789D01*
X33124Y185086D01*
X33124Y191028D01*
X32909Y191243D01*
X32746Y191485D01*
X32686Y191782D01*
X32686Y195983D01*
X32742Y196269D01*
X32909Y196522D01*
X39194Y202807D01*
X39436Y202970D01*
X39733Y203031D01*
X44285Y203031D01*
X44443Y203188D01*
X44673Y203346D01*
X44969Y203411D01*
X45268Y203356D01*
X45520Y203188D01*
X46694Y202015D01*
X49784Y202015D01*
X49784Y213386D01*
X46694Y213386D01*
X45520Y212212D01*
X45290Y212054D01*
X44994Y211989D01*
X44696Y212045D01*
X44443Y212212D01*
X44285Y212370D01*
X43902Y212370D01*
X43627Y212421D01*
X43372Y212584D01*
X43200Y212834D01*
X43140Y213132D01*
X43140Y217091D01*
X43196Y217377D01*
X43363Y217630D01*
X69786Y244053D01*
X69786Y253737D01*
X69842Y254023D01*
X70009Y254276D01*
X78349Y262616D01*
X78590Y262779D01*
X78888Y262839D01*
X85994Y262839D01*
X86269Y262788D01*
X86524Y262624D01*
X86696Y262374D01*
X86756Y262077D01*
X86756Y261818D01*
X87649Y260926D01*
X95351Y260926D01*
X96244Y261818D01*
X96244Y262077D01*
X96295Y262352D01*
X96459Y262607D01*
X96709Y262779D01*
X97006Y262839D01*
X103572Y262839D01*
X122938Y282205D01*
X123179Y282368D01*
X123476Y282428D01*
X131434Y282428D01*
X131715Y282374D01*
X131969Y282209D01*
X132138Y281957D01*
X133142Y279534D01*
X135714Y276962D01*
X139075Y275570D01*
X152377Y275570D01*
X152663Y275514D01*
X152916Y275347D01*
X158504Y269759D01*
X158657Y269539D01*
X158727Y269244D01*
X158676Y268945D01*
X158512Y268690D01*
X158262Y268518D01*
X157965Y268458D01*
X139075Y268458D01*
X135714Y267066D01*
X133142Y264494D01*
X131750Y261133D01*
X131750Y257495D01*
X133142Y254134D01*
X135714Y251562D01*
X139075Y250170D01*
X157953Y250170D01*
X161314Y251562D01*
X163886Y254134D01*
X165278Y257495D01*
X165278Y261145D01*
X165325Y261408D01*
X165484Y261666D01*
X165732Y261842D01*
X166028Y261907D01*
X166326Y261851D01*
X166579Y261684D01*
X166983Y261280D01*
X167146Y261038D01*
X167206Y260741D01*
X167206Y179716D01*
X167150Y179430D01*
X166983Y179177D01*
X143734Y155928D01*
X143503Y155770D01*
X143207Y155705D01*
X142909Y155760D01*
X142656Y155928D01*
X141098Y157486D01*
X137662Y157486D01*
X137662Y151384D01*
X131215Y151384D01*
X131215Y149576D01*
X131168Y149313D01*
X131008Y149055D01*
X130761Y148880D01*
G37*
%LPC*%
G36*
X88708Y244962D02*
X93286Y244962D01*
X93286Y248398D01*
X91798Y249886D01*
X88708Y249886D01*
X88708Y244962D01*
G37*
G36*
X88708Y238515D02*
X91798Y238515D01*
X93286Y240002D01*
X93286Y243438D01*
X88708Y243438D01*
X88708Y238515D01*
G37*
G36*
X95884Y224862D02*
X103662Y224862D01*
X103662Y234152D01*
X102174Y235640D01*
X95884Y235640D01*
X95884Y224862D01*
G37*
G36*
X86582Y224862D02*
X94360Y224862D01*
X94360Y235640D01*
X88070Y235640D01*
X86582Y234152D01*
X86582Y224862D01*
G37*
G36*
X88070Y212560D02*
X94360Y212560D01*
X94360Y223338D01*
X86582Y223338D01*
X86582Y214048D01*
X88070Y212560D01*
G37*
G36*
X95884Y212560D02*
X102174Y212560D01*
X103662Y214048D01*
X103662Y223338D01*
X95884Y223338D01*
X95884Y212560D01*
G37*
G36*
X51308Y208462D02*
X55886Y208462D01*
X55886Y211898D01*
X54398Y213386D01*
X51308Y213386D01*
X51308Y208462D01*
G37*
G36*
X111554Y207308D02*
X116477Y207308D01*
X116477Y210398D01*
X114989Y211886D01*
X111554Y211886D01*
X111554Y207308D01*
G37*
G36*
X105106Y207308D02*
X110030Y207308D01*
X110030Y211886D01*
X106594Y211886D01*
X105106Y210398D01*
X105106Y207308D01*
G37*
G36*
X51308Y202015D02*
X54398Y202015D01*
X55886Y203502D01*
X55886Y206938D01*
X51308Y206938D01*
X51308Y202015D01*
G37*
G36*
X50762Y195837D02*
X55760Y195837D01*
X55760Y198803D01*
X54272Y200291D01*
X50762Y200291D01*
X50762Y195837D01*
G37*
G36*
X44240Y195837D02*
X49238Y195837D01*
X49238Y200291D01*
X45728Y200291D01*
X44240Y198803D01*
X44240Y195837D01*
G37*
G36*
X71884Y184862D02*
X79662Y184862D01*
X79662Y194152D01*
X78174Y195640D01*
X71884Y195640D01*
X71884Y184862D01*
G37*
G36*
X110573Y169708D02*
X110613Y165130D01*
X115536Y165173D01*
X115509Y168263D01*
X114009Y169738D01*
X110573Y169708D01*
G37*
G36*
X104139Y168164D02*
X104166Y165074D01*
X109089Y165117D01*
X109049Y169695D01*
X105614Y169665D01*
X104139Y168164D01*
G37*
G36*
X131215Y152908D02*
X136138Y152908D01*
X136138Y157486D01*
X132702Y157486D01*
X131215Y155998D01*
X131215Y152908D01*
G37*
%LPD*%
G36*
X-72934Y127892D02*
X-73232Y127832D01*
X-79169Y127832D01*
X-79443Y127883D01*
X-79699Y128047D01*
X-79870Y128297D01*
X-79931Y128594D01*
X-79931Y128977D01*
X-80823Y129870D01*
X-85375Y129870D01*
X-85661Y129926D01*
X-85914Y130093D01*
X-87091Y131270D01*
X-87254Y131511D01*
X-87314Y131809D01*
X-87314Y156637D01*
X-87258Y156923D01*
X-87091Y157176D01*
X-74276Y169991D01*
X-74035Y170154D01*
X-73737Y170214D01*
X-70533Y170214D01*
X-70247Y170158D01*
X-69995Y169991D01*
X-67198Y167194D01*
X-62802Y167194D01*
X-60880Y169116D01*
X-60650Y169274D01*
X-60354Y169339D01*
X-60056Y169283D01*
X-59803Y169116D01*
X-57873Y167186D01*
X-57720Y166967D01*
X-57650Y166672D01*
X-57701Y166373D01*
X-57865Y166117D01*
X-58115Y165946D01*
X-58412Y165886D01*
X-61198Y165886D01*
X-62686Y164398D01*
X-62686Y160962D01*
X-56584Y160962D01*
X-56584Y154515D01*
X-53494Y154515D01*
X-52320Y155688D01*
X-52090Y155846D01*
X-51794Y155911D01*
X-51496Y155856D01*
X-51243Y155688D01*
X-51085Y155531D01*
X-44542Y155531D01*
X-44279Y155484D01*
X-44021Y155324D01*
X-43845Y155077D01*
X-43780Y154781D01*
X-43836Y154483D01*
X-44003Y154230D01*
X-49066Y149167D01*
X-49307Y149004D01*
X-49605Y148944D01*
X-50532Y148944D01*
X-51043Y148433D01*
X-51273Y148275D01*
X-51569Y148210D01*
X-51868Y148266D01*
X-52120Y148433D01*
X-53647Y149960D01*
X-56613Y149960D01*
X-56613Y138440D01*
X-54133Y138440D01*
X-53869Y138393D01*
X-53679Y138276D01*
X-53668Y138334D01*
X-53501Y138587D01*
X-52120Y139967D01*
X-51890Y140125D01*
X-51594Y140190D01*
X-51296Y140135D01*
X-51043Y139967D01*
X-50532Y139456D01*
X-43918Y139456D01*
X-43026Y140349D01*
X-43026Y148250D01*
X-43055Y148384D01*
X-42999Y148682D01*
X-42832Y148935D01*
X-39276Y152491D01*
X-39035Y152654D01*
X-38737Y152714D01*
X-22113Y152714D01*
X-21849Y152667D01*
X-21591Y152508D01*
X-21416Y152260D01*
X-21351Y151964D01*
X-21406Y151666D01*
X-21574Y151413D01*
X-22894Y150093D01*
X-23136Y149930D01*
X-23433Y149870D01*
X-27985Y149870D01*
X-28143Y149712D01*
X-28373Y149554D01*
X-28669Y149489D01*
X-28968Y149545D01*
X-29220Y149712D01*
X-30394Y150886D01*
X-33484Y150886D01*
X-33484Y144438D01*
X-39586Y144438D01*
X-39586Y141002D01*
X-38098Y139515D01*
X-35312Y139515D01*
X-35049Y139468D01*
X-34791Y139308D01*
X-34615Y139061D01*
X-34550Y138765D01*
X-34606Y138467D01*
X-34773Y138214D01*
X-35478Y137509D01*
X-35719Y137346D01*
X-36017Y137286D01*
X-52962Y137286D01*
X-53225Y137333D01*
X-53415Y137450D01*
X-53426Y137392D01*
X-53594Y137139D01*
X-58061Y132672D01*
X-58061Y132206D01*
X-58112Y131931D01*
X-58276Y131676D01*
X-58526Y131504D01*
X-58823Y131444D01*
X-59082Y131444D01*
X-59975Y130551D01*
X-59975Y129594D01*
X-60026Y129319D01*
X-60189Y129064D01*
X-60439Y128892D01*
X-60737Y128832D01*
X-62369Y128832D01*
X-62643Y128883D01*
X-62899Y129047D01*
X-63070Y129297D01*
X-63131Y129594D01*
X-63131Y129977D01*
X-64023Y130870D01*
X-71577Y130870D01*
X-72470Y129977D01*
X-72470Y128594D01*
X-72521Y128319D01*
X-72684Y128064D01*
X-72934Y127892D01*
G37*
%LPC*%
G36*
X-61198Y154515D02*
X-58108Y154515D01*
X-58108Y159438D01*
X-62686Y159438D01*
X-62686Y156002D01*
X-61198Y154515D01*
G37*
G36*
X-39586Y145962D02*
X-35008Y145962D01*
X-35008Y150886D01*
X-38098Y150886D01*
X-39586Y149398D01*
X-39586Y145962D01*
G37*
G36*
X-62591Y144962D02*
X-58137Y144962D01*
X-58137Y149960D01*
X-61103Y149960D01*
X-62591Y148472D01*
X-62591Y144962D01*
G37*
G36*
X-61103Y138440D02*
X-58137Y138440D01*
X-58137Y143438D01*
X-62591Y143438D01*
X-62591Y139928D01*
X-61103Y138440D01*
G37*
%LPD*%
G36*
X80272Y125354D02*
X79975Y125294D01*
X71232Y125294D01*
X70957Y125345D01*
X70701Y125509D01*
X70530Y125759D01*
X70490Y125957D01*
X69577Y126870D01*
X62023Y126870D01*
X61482Y126329D01*
X61251Y126171D01*
X60955Y126106D01*
X60657Y126161D01*
X60404Y126329D01*
X56003Y130730D01*
X55850Y130949D01*
X55780Y131244D01*
X55831Y131543D01*
X55995Y131799D01*
X56245Y131970D01*
X56542Y132031D01*
X60785Y132031D01*
X60943Y132188D01*
X61173Y132346D01*
X61469Y132411D01*
X61768Y132356D01*
X62020Y132188D01*
X63194Y131015D01*
X66284Y131015D01*
X66284Y142386D01*
X63194Y142386D01*
X62020Y141212D01*
X61790Y141054D01*
X61494Y140989D01*
X61196Y141045D01*
X60943Y141212D01*
X60785Y141370D01*
X53923Y141370D01*
X53547Y140994D01*
X53316Y140836D01*
X53020Y140771D01*
X52722Y140826D01*
X52469Y140994D01*
X41647Y151816D01*
X41484Y152057D01*
X41424Y152354D01*
X41424Y152728D01*
X41139Y153013D01*
X40986Y153233D01*
X40916Y153528D01*
X40967Y153827D01*
X41131Y154082D01*
X41381Y154254D01*
X41678Y154314D01*
X44637Y154314D01*
X44923Y154258D01*
X45176Y154091D01*
X54053Y145214D01*
X73669Y145214D01*
X73943Y145163D01*
X74199Y144999D01*
X74370Y144749D01*
X74431Y144452D01*
X74431Y144115D01*
X74588Y143957D01*
X74746Y143727D01*
X74811Y143431D01*
X74756Y143132D01*
X74588Y142880D01*
X73414Y141706D01*
X73368Y141445D01*
X73208Y141187D01*
X72961Y141012D01*
X72665Y140947D01*
X72367Y141002D01*
X72114Y141170D01*
X70898Y142386D01*
X67808Y142386D01*
X67808Y131015D01*
X70898Y131015D01*
X72386Y132502D01*
X72386Y133191D01*
X72433Y133454D01*
X72592Y133712D01*
X72840Y133888D01*
X73136Y133953D01*
X73434Y133897D01*
X73687Y133730D01*
X74902Y132514D01*
X78338Y132514D01*
X78338Y138616D01*
X84786Y138616D01*
X84786Y141706D01*
X83612Y142880D01*
X83454Y143110D01*
X83389Y143406D01*
X83445Y143704D01*
X83612Y143957D01*
X83770Y144115D01*
X83770Y144498D01*
X83821Y144773D01*
X83984Y145028D01*
X84234Y145200D01*
X84532Y145260D01*
X103055Y145260D01*
X103341Y145204D01*
X103593Y145037D01*
X108970Y139660D01*
X131469Y139660D01*
X131743Y139609D01*
X131999Y139445D01*
X132170Y139195D01*
X132199Y139055D01*
X133123Y138130D01*
X133756Y138130D01*
X134031Y138079D01*
X134286Y137915D01*
X134458Y137665D01*
X134518Y137368D01*
X134518Y134637D01*
X134467Y134362D01*
X134303Y134107D01*
X134053Y133935D01*
X133756Y133875D01*
X132018Y133875D01*
X131125Y132982D01*
X131125Y126056D01*
X131074Y125781D01*
X130910Y125526D01*
X130660Y125354D01*
X130363Y125294D01*
X90025Y125294D01*
X89739Y125350D01*
X89487Y125517D01*
X87198Y127806D01*
X82802Y127806D01*
X80513Y125517D01*
X80272Y125354D01*
G37*
%LPC*%
G36*
X79862Y132514D02*
X83298Y132514D01*
X84786Y134002D01*
X84786Y137092D01*
X79862Y137092D01*
X79862Y132514D01*
G37*
%LPD*%
G36*
X-44210Y-280460D02*
X-61480Y-280460D01*
X-61480Y-254540D01*
X-44210Y-254540D01*
X-44210Y-237270D01*
X-30990Y-237270D01*
X-30990Y-254540D01*
X-13720Y-254540D01*
X-13720Y-280460D01*
X-30990Y-280460D01*
X-30990Y-297730D01*
X-44210Y-297730D01*
X-44210Y-280460D01*
G37*
G36*
X-44210Y-280460D02*
X-61480Y-280460D01*
X-61480Y-254540D01*
X-44210Y-254540D01*
X-44210Y-237270D01*
X-30990Y-237270D01*
X-30990Y-254540D01*
X-13720Y-254540D01*
X-13720Y-280460D01*
X-30990Y-280460D01*
X-30990Y-297730D01*
X-44210Y-297730D01*
X-44210Y-280460D01*
G37*
G36*
X-24110Y-10460D02*
X-41380Y-10460D01*
X-41380Y15460D01*
X-24110Y15460D01*
X-24110Y32730D01*
X-10890Y32730D01*
X-10890Y15460D01*
X6380Y15460D01*
X6380Y-10460D01*
X-10890Y-10460D01*
X-10890Y-27730D01*
X-24110Y-27730D01*
X-24110Y-10460D01*
G37*
G36*
X-24110Y-10460D02*
X-41380Y-10460D01*
X-41380Y15460D01*
X-24110Y15460D01*
X-24110Y32730D01*
X-10890Y32730D01*
X-10890Y15460D01*
X6380Y15460D01*
X6380Y-10460D01*
X-10890Y-10460D01*
X-10890Y-27730D01*
X-24110Y-27730D01*
X-24110Y-10460D01*
G37*
D10*
X139346Y-30300D03*
X129654Y-30300D03*
D11*
X131000Y-132046D03*
X131000Y-122354D03*
X167800Y-115554D03*
X167800Y-125246D03*
X64016Y-135046D03*
X64016Y-125354D03*
X79677Y-133162D03*
X79677Y-123470D03*
X96000Y-133546D03*
X96000Y-123854D03*
D10*
X57746Y-193700D03*
X48054Y-193700D03*
X-28754Y170200D03*
X-38446Y170200D03*
X-24554Y145200D03*
X-34246Y145200D03*
D11*
X37300Y115276D03*
X37300Y105584D03*
X166600Y-96654D03*
X166600Y-106346D03*
X11500Y212854D03*
X11500Y222546D03*
D10*
X40854Y207700D03*
X50546Y207700D03*
G36*
X113062Y157497D02*
X113111Y151898D01*
X106822Y151843D01*
X106773Y157442D01*
X113062Y157497D01*
G37*
G36*
X112978Y167189D02*
X113027Y161590D01*
X106738Y161535D01*
X106689Y167134D01*
X112978Y167189D01*
G37*
D11*
X79100Y147546D03*
X79100Y137854D03*
X65800Y122546D03*
X65800Y112854D03*
D10*
X-47654Y160200D03*
X-57346Y160200D03*
X57354Y136700D03*
X67046Y136700D03*
X56554Y164200D03*
X66246Y164200D03*
D11*
X20600Y116546D03*
X20600Y106854D03*
X-3069Y212023D03*
X-3069Y221715D03*
X101408Y-53654D03*
X101408Y-63346D03*
X-13700Y116854D03*
X-13700Y126546D03*
D10*
X-54346Y111700D03*
X-44654Y111700D03*
D11*
X-67800Y116854D03*
X-67800Y126546D03*
X-84600Y115854D03*
X-84600Y125546D03*
X110792Y196854D03*
X110792Y206546D03*
D10*
X87946Y244200D03*
X78254Y244200D03*
X57146Y-210000D03*
X47454Y-210000D03*
X59046Y-227500D03*
X49354Y-227500D03*
D11*
X152300Y150646D03*
X152300Y140954D03*
X334600Y91654D03*
X334600Y101346D03*
X52200Y98354D03*
X52200Y108046D03*
X136900Y152146D03*
X136900Y142454D03*
X319477Y90931D03*
X319477Y100623D03*
X-196800Y-5554D03*
X-196800Y-15246D03*
X-254700Y9446D03*
X-254700Y-246D03*
D10*
X99054Y285700D03*
X108746Y285700D03*
D11*
X80000Y-100154D03*
X80000Y-109846D03*
D12*
X-132100Y45923D03*
X-132100Y25477D03*
D13*
X-37600Y-267500D03*
D14*
X-18045Y-241595D03*
X-18045Y-293405D03*
X-57155Y-293405D03*
X-57155Y-241595D03*
D15*
X-18200Y280426D02*
X-18200Y295666D01*
X7200Y295666D02*
X7200Y280426D01*
X32600Y280426D02*
X32600Y295666D01*
X140894Y284714D02*
X156134Y284714D01*
X156134Y259314D02*
X140894Y259314D01*
D16*
X131285Y-52846D03*
X131285Y-43154D03*
X34015Y-229331D03*
X34015Y-219639D03*
X7300Y-251446D03*
X7300Y-241754D03*
D17*
X89446Y-63900D03*
X79754Y-63900D03*
X332746Y113600D03*
X323054Y113600D03*
X-144830Y4200D03*
X-135138Y4200D03*
X101646Y-95110D03*
X91954Y-95110D03*
X117662Y-124600D03*
X107970Y-124600D03*
X154746Y-139800D03*
X145054Y-139800D03*
D16*
X34000Y-207446D03*
X34000Y-197754D03*
D17*
X-35646Y127600D03*
X-25954Y127600D03*
D18*
X-35875Y110245D03*
X-25725Y110245D03*
D19*
X91500Y265125D03*
X91500Y275275D03*
X-19300Y315125D03*
X-19300Y325275D03*
X5675Y315125D03*
X5675Y325275D03*
X31600Y315125D03*
X31600Y325275D03*
X-14100Y96625D03*
X-14100Y106775D03*
D18*
X-116625Y242700D03*
X-126775Y242700D03*
X-114925Y217700D03*
X-125075Y217700D03*
X-115725Y295200D03*
X-125875Y295200D03*
X-126575Y321700D03*
X-116425Y321700D03*
X-46825Y-219900D03*
X-56975Y-219900D03*
X-34975Y94200D03*
X-24825Y94200D03*
X-55775Y126700D03*
X-45625Y126700D03*
X-47225Y144200D03*
X-57375Y144200D03*
D19*
X-237100Y625D03*
X-237100Y10775D03*
D18*
X90605Y-80395D03*
X100755Y-80395D03*
X102175Y-110000D03*
X92025Y-110000D03*
D20*
X-276200Y-200D03*
X-311200Y-200D03*
D21*
X104700Y334300D03*
X104700Y299300D03*
D22*
X-2894Y48570D03*
X2107Y48570D03*
X7107Y48570D03*
X12107Y48570D03*
D23*
X16291Y56444D03*
D22*
X12107Y64318D03*
X7107Y64318D03*
X2107Y64318D03*
X-2894Y64318D03*
D23*
X-7078Y56444D03*
D24*
X30400Y186300D02*
X30400Y189900D01*
X25400Y189900D02*
X25400Y186300D01*
X20400Y186300D02*
X20400Y189900D01*
X15400Y189900D02*
X15400Y186300D01*
X10400Y186300D02*
X10400Y189900D01*
X5400Y189900D02*
X5400Y186300D01*
X400Y186300D02*
X400Y189900D01*
X-4600Y189900D02*
X-4600Y186300D01*
X-9300Y181600D02*
X-12900Y181600D01*
X-12900Y176600D02*
X-9300Y176600D01*
X-9300Y171600D02*
X-12900Y171600D01*
X-12900Y166600D02*
X-9300Y166600D01*
X-9300Y161600D02*
X-12900Y161600D01*
X-12900Y156600D02*
X-9300Y156600D01*
X-9300Y151600D02*
X-12900Y151600D01*
X-12900Y146600D02*
X-9300Y146600D01*
X-4600Y141900D02*
X-4600Y138300D01*
X400Y138300D02*
X400Y141900D01*
X5400Y141900D02*
X5400Y138300D01*
X10400Y138300D02*
X10400Y141900D01*
X15400Y141900D02*
X15400Y138300D01*
X20400Y138300D02*
X20400Y141900D01*
X25400Y141900D02*
X25400Y138300D01*
X30400Y138300D02*
X30400Y141900D01*
X35100Y146600D02*
X38700Y146600D01*
X38700Y151600D02*
X35100Y151600D01*
X35100Y156600D02*
X38700Y156600D01*
X38700Y161600D02*
X35100Y161600D01*
X35100Y166600D02*
X38700Y166600D01*
X38700Y171600D02*
X35100Y171600D01*
X35100Y176600D02*
X38700Y176600D01*
X38700Y181600D02*
X35100Y181600D01*
D25*
X12900Y164100D03*
D26*
X27650Y164100D03*
X12900Y178850D03*
X12900Y164100D03*
X12900Y149350D03*
X-1850Y164100D03*
D20*
X-162800Y158583D03*
X-173800Y158583D03*
X-184800Y158583D03*
X-195800Y158583D03*
X-206800Y158583D03*
X-236800Y158583D03*
X-247800Y158583D03*
X-258800Y158583D03*
X-269800Y158583D03*
X-280800Y158583D03*
X-291800Y158583D03*
X-302800Y158583D03*
X-162800Y38583D03*
X-173800Y38583D03*
X-184800Y38583D03*
X-195800Y38583D03*
X-206800Y38583D03*
X-236800Y38583D03*
X-247800Y38583D03*
X-258800Y38583D03*
X-269800Y38583D03*
X-280800Y38583D03*
X-291800Y38583D03*
X-302800Y38583D03*
D27*
X125320Y-103250D03*
X131820Y-103250D03*
X138320Y-103250D03*
X144820Y-103250D03*
D28*
X153320Y-94750D03*
X153320Y-88250D03*
X153320Y-81750D03*
X153320Y-75250D03*
D27*
X144820Y-66750D03*
X138320Y-66750D03*
X131820Y-66750D03*
X125320Y-66750D03*
D28*
X116820Y-75250D03*
X116820Y-81750D03*
X116820Y-88250D03*
X116820Y-94750D03*
D29*
X135070Y-85000D03*
D26*
X135070Y-77000D03*
X135070Y-93000D03*
X143070Y-85000D03*
X127070Y-85000D03*
D30*
X95122Y184100D03*
X95122Y224100D03*
X71122Y224100D03*
X71122Y184100D03*
D19*
X-196600Y13875D03*
X-196600Y3725D03*
D31*
X215900Y215900D03*
X-215900Y215900D03*
X-215900Y-215900D03*
X215900Y-215900D03*
D13*
X-17500Y2500D03*
D14*
X2055Y28405D03*
X2055Y-23405D03*
X-37055Y-23405D03*
X-37055Y28405D03*
D19*
X-55000Y14925D03*
X-55000Y25075D03*
D15*
X-72380Y242700D02*
X-87620Y242700D01*
X-87620Y217300D02*
X-72380Y217300D01*
X-72380Y297300D02*
X-87620Y297300D01*
X-87620Y322700D02*
X-72380Y322700D01*
X282380Y139700D02*
X297620Y139700D01*
X297620Y114300D02*
X282380Y114300D01*
X282380Y88900D02*
X297620Y88900D01*
X297620Y63500D02*
X282380Y63500D01*
X282380Y38100D02*
X297620Y38100D01*
X297620Y12700D02*
X282380Y12700D01*
X282380Y-12700D02*
X297620Y-12700D01*
X297620Y-38100D02*
X282380Y-38100D01*
X282380Y-63500D02*
X297620Y-63500D01*
X297620Y-88900D02*
X282380Y-88900D01*
X282380Y-114300D02*
X297620Y-114300D01*
X297620Y-139700D02*
X282380Y-139700D01*
D18*
X32575Y-242500D03*
X22425Y-242500D03*
D19*
X50000Y184925D03*
X50000Y195075D03*
D32*
X-272500Y-140000D03*
X-297900Y-114600D03*
X-247100Y-114600D03*
X-247100Y-165400D03*
X-297900Y-165400D03*
X130000Y-280000D03*
X104600Y-305400D03*
X104600Y-254600D03*
X155400Y-254600D03*
X155400Y-305400D03*
D33*
X-37500Y-330000D03*
D34*
X-65750Y-328000D03*
X-9250Y-328000D03*
D33*
X-42500Y-85000D03*
D34*
X-70750Y-83000D03*
X-14250Y-83000D03*
D35*
X-135150Y-60004D03*
X-135150Y-72704D03*
X-135150Y-85404D03*
X-135150Y-98104D03*
X-135150Y-110804D03*
X-194850Y-110804D03*
X-194850Y-98104D03*
X-194850Y-85404D03*
X-194850Y-72704D03*
X-194850Y-60004D03*
D36*
X-165000Y-85404D03*
D37*
X-322500Y-55000D03*
D38*
X-320500Y-26750D03*
X-320500Y-83250D03*
D19*
X-105000Y-99925D03*
X-105000Y-110075D03*
D39*
X152851Y127500D03*
D40*
X137312Y127500D03*
D41*
X-106821Y-98104D02*
X-135150Y-98104D01*
X-106821Y-98104D02*
X-106737Y-98106D01*
X-106653Y-98112D01*
X-106569Y-98121D01*
X-106486Y-98135D01*
X-106404Y-98152D01*
X-106323Y-98174D01*
X-106242Y-98198D01*
X-106163Y-98227D01*
X-106085Y-98259D01*
X-106009Y-98295D01*
X-105935Y-98334D01*
X-105862Y-98377D01*
X-105792Y-98423D01*
X-105724Y-98472D01*
X-105658Y-98524D01*
X-105594Y-98579D01*
X-105533Y-98637D01*
X-105475Y-98698D01*
X-105420Y-98762D01*
X-105368Y-98828D01*
X-105319Y-98896D01*
X-105273Y-98966D01*
X-105230Y-99039D01*
X-105191Y-99113D01*
X-105155Y-99189D01*
X-105123Y-99267D01*
X-105094Y-99346D01*
X-105070Y-99427D01*
X-105048Y-99508D01*
X-105031Y-99590D01*
X-105017Y-99673D01*
X-105008Y-99757D01*
X-105002Y-99841D01*
X-105000Y-99925D01*
D42*
X150500Y-7000D03*
X114500Y-7000D03*
X150500Y-43000D03*
X150500Y-25000D03*
X96500Y-7000D03*
X78500Y-7000D03*
X42500Y-7000D03*
X42500Y-43000D03*
X24500Y-7000D03*
X114500Y-43000D03*
X60500Y-7000D03*
X96500Y-43000D03*
X78500Y-43000D03*
X60500Y-43000D03*
X132500Y-7000D03*
X-52500Y-45000D03*
X30000Y50000D03*
X55000Y50000D03*
X75000Y50000D03*
X-186500Y55000D03*
X-204500Y55000D03*
X-294500Y55000D03*
X-312500Y55000D03*
X-330500Y55000D03*
X-114500Y37000D03*
X-150500Y37000D03*
X-312500Y37000D03*
X-150500Y19000D03*
X-258500Y55000D03*
X-168500Y19000D03*
X-186500Y19000D03*
X-258500Y19000D03*
X-276500Y19000D03*
X-294500Y1000D03*
X-114500Y-17000D03*
X-150500Y-17000D03*
X-312500Y19000D03*
X-222500Y-17000D03*
X-276500Y-17000D03*
X-294500Y-17000D03*
X-114500Y-35000D03*
X-150500Y-35000D03*
X-222500Y-89000D03*
X-258500Y-17000D03*
X-186500Y-35000D03*
X-258500Y-35000D03*
X-222500Y37000D03*
X-276500Y-35000D03*
X-330500Y1000D03*
X-168500Y-17000D03*
X-240500Y-35000D03*
X-312500Y-125000D03*
X-204500Y-35000D03*
X-114500Y1000D03*
X-276500Y-107000D03*
X-258500Y-71000D03*
X-168500Y-35000D03*
X-240500Y-17000D03*
X-222500Y-71000D03*
X-294500Y-71000D03*
X-114500Y-89000D03*
X-222500Y-35000D03*
X-312500Y-71000D03*
X-186500Y-17000D03*
X-330500Y-71000D03*
X-258500Y-89000D03*
X-240500Y-89000D03*
X-150500Y-125000D03*
X-114500Y-53000D03*
X-294500Y19000D03*
X-276500Y-71000D03*
X-276500Y55000D03*
X-240500Y-71000D03*
X-132500Y-125000D03*
X-168500Y-143000D03*
X-330500Y19000D03*
X-330500Y-107000D03*
X-114500Y-125000D03*
X-276500Y-89000D03*
X-186500Y-125000D03*
X-114500Y-143000D03*
X-114500Y19000D03*
X-222500Y-107000D03*
X-330500Y-125000D03*
X-132500Y-143000D03*
X-168500Y-125000D03*
X-114500Y-71000D03*
X-186500Y-143000D03*
X-222500Y19000D03*
X-312500Y-143000D03*
X-222500Y-125000D03*
X-150500Y-143000D03*
X-330500Y37000D03*
X-294500Y-143000D03*
D43*
X66246Y164200D02*
X71812Y169766D01*
X79331Y169766D01*
X79565Y170000D01*
X110000Y170000D01*
D42*
X102500Y135000D03*
X-23041Y-45541D03*
X-75000Y152500D03*
D41*
X125320Y-97180D02*
X125320Y-103250D01*
X125320Y-97180D02*
X127500Y-95000D01*
D42*
X147500Y-122500D03*
D41*
X138320Y-103250D02*
X138320Y-98730D01*
X141420Y-95630D01*
X141420Y-93580D01*
X142500Y-92500D01*
X50000Y195075D02*
X50000Y207154D01*
X50546Y207700D01*
D42*
X147500Y222500D03*
X65000Y-85000D03*
X12500Y-185000D03*
X12500Y-207500D03*
D43*
X-195800Y14675D02*
X-195800Y38583D01*
X-195800Y14675D02*
X-196600Y13875D01*
D44*
X-135138Y22439D02*
X-135136Y22547D01*
X-135130Y22656D01*
X-135121Y22764D01*
X-135107Y22871D01*
X-135090Y22978D01*
X-135069Y23085D01*
X-135044Y23190D01*
X-135015Y23295D01*
X-134983Y23398D01*
X-134946Y23501D01*
X-134907Y23602D01*
X-134863Y23701D01*
X-134817Y23799D01*
X-134766Y23895D01*
X-134713Y23989D01*
X-134656Y24081D01*
X-134595Y24172D01*
X-134532Y24260D01*
X-134466Y24345D01*
X-134396Y24428D01*
X-134323Y24509D01*
X-134248Y24587D01*
X-134170Y24662D01*
X-134089Y24735D01*
X-134006Y24805D01*
X-133921Y24871D01*
X-133833Y24934D01*
X-133742Y24995D01*
X-133650Y25052D01*
X-133556Y25105D01*
X-133460Y25156D01*
X-133362Y25202D01*
X-133263Y25246D01*
X-133162Y25285D01*
X-133059Y25322D01*
X-132956Y25354D01*
X-132851Y25383D01*
X-132746Y25408D01*
X-132639Y25429D01*
X-132532Y25446D01*
X-132425Y25460D01*
X-132317Y25469D01*
X-132208Y25475D01*
X-132100Y25477D01*
D43*
X36900Y151600D02*
X38414Y150086D01*
X40144Y150086D01*
X53530Y136700D02*
X57354Y136700D01*
X53530Y136700D02*
X40144Y150086D01*
X5400Y188100D02*
X5000Y188500D01*
X5000Y200000D01*
X-3069Y208069D01*
X-3069Y212023D01*
X25400Y140100D02*
X26914Y138586D01*
X26914Y136856D01*
X52200Y98868D02*
X52200Y98354D01*
X52200Y98868D02*
X46769Y104299D01*
X46769Y117002D02*
X26914Y136856D01*
X46769Y117002D02*
X46769Y104299D01*
X52500Y118000D02*
X30400Y140100D01*
X52500Y118000D02*
X52500Y108346D01*
X52200Y108046D01*
X-4600Y135646D02*
X-4600Y140100D01*
X-4600Y135646D02*
X-13700Y126546D01*
X-24900Y126546D01*
X-25954Y127600D01*
X-35646Y127600D02*
X-36546Y126700D01*
X-45625Y126700D01*
X-44654Y125729D01*
X-44654Y111700D01*
D41*
X-14100Y116454D02*
X-14100Y106775D01*
X-14100Y116454D02*
X-14098Y116493D01*
X-14092Y116532D01*
X-14083Y116570D01*
X-14070Y116607D01*
X-14053Y116643D01*
X-14033Y116676D01*
X-14009Y116708D01*
X-13983Y116737D01*
X-13954Y116763D01*
X-13922Y116787D01*
X-13889Y116807D01*
X-13853Y116824D01*
X-13816Y116837D01*
X-13778Y116846D01*
X-13739Y116852D01*
X-13700Y116854D01*
X-17570Y110245D02*
X-25725Y110245D01*
X-17570Y110245D02*
X-17454Y110243D01*
X-17338Y110237D01*
X-17223Y110228D01*
X-17107Y110214D01*
X-16993Y110197D01*
X-16879Y110175D01*
X-16766Y110150D01*
X-16653Y110122D01*
X-16542Y110089D01*
X-16432Y110053D01*
X-16323Y110013D01*
X-16215Y109970D01*
X-16109Y109923D01*
X-16005Y109872D01*
X-15902Y109818D01*
X-15802Y109761D01*
X-15703Y109700D01*
X-15606Y109636D01*
X-15512Y109569D01*
X-15419Y109498D01*
X-15330Y109425D01*
X-15242Y109349D01*
X-15158Y109269D01*
X-15076Y109187D01*
X-14996Y109103D01*
X-14920Y109015D01*
X-14847Y108926D01*
X-14776Y108833D01*
X-14709Y108739D01*
X-14645Y108642D01*
X-14584Y108543D01*
X-14527Y108443D01*
X-14473Y108340D01*
X-14422Y108236D01*
X-14375Y108130D01*
X-14332Y108022D01*
X-14292Y107913D01*
X-14256Y107803D01*
X-14223Y107692D01*
X-14195Y107579D01*
X-14170Y107466D01*
X-14148Y107352D01*
X-14131Y107238D01*
X-14117Y107122D01*
X-14108Y107007D01*
X-14102Y106891D01*
X-14100Y106775D01*
D43*
X-14100Y96625D02*
X-5000Y87525D01*
X-5000Y66425D01*
X-2894Y64318D01*
D41*
X-16525Y94200D02*
X-24825Y94200D01*
X-16525Y94200D02*
X-16427Y94202D01*
X-16330Y94208D01*
X-16233Y94218D01*
X-16136Y94231D01*
X-16040Y94249D01*
X-15945Y94270D01*
X-15850Y94296D01*
X-15757Y94325D01*
X-15665Y94358D01*
X-15574Y94394D01*
X-15485Y94434D01*
X-15398Y94478D01*
X-15313Y94525D01*
X-15229Y94575D01*
X-15147Y94629D01*
X-15068Y94686D01*
X-14991Y94747D01*
X-14917Y94810D01*
X-14845Y94876D01*
X-14776Y94945D01*
X-14710Y95017D01*
X-14647Y95091D01*
X-14586Y95168D01*
X-14529Y95247D01*
X-14475Y95329D01*
X-14425Y95412D01*
X-14378Y95498D01*
X-14334Y95585D01*
X-14294Y95674D01*
X-14258Y95765D01*
X-14225Y95857D01*
X-14196Y95950D01*
X-14170Y96045D01*
X-14149Y96140D01*
X-14131Y96236D01*
X-14118Y96333D01*
X-14108Y96430D01*
X-14102Y96527D01*
X-14100Y96625D01*
D43*
X400Y69464D02*
X400Y140100D01*
X400Y69464D02*
X917Y68948D01*
X917Y65508D01*
X2107Y64318D01*
X98038Y184100D02*
X110792Y196854D01*
X98038Y184100D02*
X95122Y184100D01*
X69335Y171600D02*
X36900Y171600D01*
X90548Y173048D02*
X95000Y177500D01*
X70549Y172814D02*
X69335Y171600D01*
X70549Y172814D02*
X78069Y172814D01*
X78303Y173048D01*
X90548Y173048D01*
X56600Y176600D02*
X36900Y176600D01*
X56600Y176600D02*
X60000Y180000D01*
X60000Y215000D01*
X69100Y224100D01*
X71122Y224100D01*
X71122Y237068D01*
X78254Y244200D01*
X-11100Y156600D02*
X-12614Y155086D01*
X-14344Y155086D01*
X-14430Y155000D01*
X-40000Y155000D01*
X-47225Y147775D01*
X-47225Y144200D01*
D42*
X-150000Y217500D03*
D43*
X-149800Y217700D02*
X-125075Y217700D01*
X-149800Y217700D02*
X-150000Y217500D01*
D42*
X-127500Y265000D03*
D43*
X-127500Y293575D02*
X-125875Y295200D01*
X-127500Y293575D02*
X-127500Y265000D01*
X-5000Y188500D02*
X-4600Y188100D01*
X-5000Y188500D02*
X-5000Y195000D01*
X-18200Y208200D01*
X-18200Y288046D01*
X-19300Y289146D02*
X-19300Y315125D01*
X-19300Y289146D02*
X-18200Y288046D01*
D42*
X-140000Y142500D03*
D43*
X-247800Y158583D02*
X-248086Y158297D01*
X-248086Y151136D01*
X-239450Y142500D02*
X-140000Y142500D01*
X-239450Y142500D02*
X-248086Y151136D01*
D42*
X-20000Y342500D03*
D43*
X-20000Y325975D02*
X-19300Y325275D01*
X-20000Y325975D02*
X-20000Y342500D01*
D42*
X172500Y37500D03*
D43*
X289400Y37500D01*
X290000Y38100D01*
X400Y188100D02*
X0Y188500D01*
X0Y197500D01*
X-12500Y210000D01*
X7200Y288046D02*
X7200Y313600D01*
X5675Y315125D01*
D42*
X-140000Y97500D03*
D43*
X-237500Y97500D01*
X-269800Y129800D01*
X-269800Y158583D01*
D42*
X5000Y347500D03*
D43*
X-12500Y268346D02*
X-12500Y210000D01*
X-12500Y268346D02*
X7200Y288046D01*
X5675Y346825D02*
X5000Y347500D01*
X5675Y346825D02*
X5675Y325275D01*
D42*
X-35000Y192500D03*
D43*
X-19100Y171600D02*
X-11100Y171600D01*
X-19100Y171600D02*
X-35000Y187500D01*
X-35000Y192500D01*
D42*
X-2500Y240000D03*
D43*
X31600Y289046D02*
X31600Y315125D01*
X31600Y289046D02*
X32600Y288046D01*
X-2500Y247946D02*
X-2500Y240000D01*
X32600Y283046D02*
X32600Y288046D01*
X32600Y283046D02*
X-2500Y247946D01*
D42*
X30000Y352500D03*
D43*
X30700Y352500D02*
X31600Y351600D01*
X30700Y352500D02*
X30000Y352500D01*
X31600Y351600D02*
X31600Y325275D01*
X25400Y205400D02*
X25400Y188100D01*
X80275Y275275D02*
X91500Y275275D01*
X80275Y275275D02*
X46952Y241952D01*
X91500Y275275D02*
X99054Y282829D01*
X99054Y285700D01*
X99054Y293654D01*
X104700Y299300D01*
X37806Y217806D02*
X25400Y205400D01*
X37806Y217806D02*
X37806Y219617D01*
X46952Y228763D01*
X46952Y241952D01*
X5400Y140100D02*
X5400Y69464D01*
X5917Y68948D01*
X5917Y65508D01*
X7107Y64318D01*
X10400Y69464D02*
X10400Y140100D01*
X10400Y69464D02*
X10917Y68948D01*
X10917Y65508D01*
X12107Y64318D01*
D44*
X131285Y-52846D02*
X131285Y-60460D01*
X131773Y-60948D01*
X131773Y-66703D01*
X131820Y-66750D01*
X137575Y-66750D02*
X138320Y-66750D01*
X137575Y-66750D02*
X131773Y-60948D01*
D43*
X116820Y-81750D02*
X102110Y-81750D01*
X100755Y-80395D01*
X144820Y-103250D02*
X147916Y-106346D01*
X166600Y-106346D01*
X157124Y-115554D02*
X144820Y-103250D01*
X157124Y-115554D02*
X167800Y-115554D01*
X155224Y-96654D02*
X153320Y-94750D01*
X155224Y-96654D02*
X166600Y-96654D01*
X116820Y-75250D02*
X104916Y-63346D01*
X101408Y-63346D01*
X90000Y-63346D01*
X89446Y-63900D01*
D42*
X65000Y-110000D03*
X65000Y-65000D03*
D43*
X332746Y113600D02*
X334600Y111746D01*
X334600Y101346D01*
D42*
X330000Y70000D03*
D43*
X330000Y72500D01*
X342500Y85000D01*
X342500Y93446D01*
X334600Y101346D01*
D45*
X96746Y-124600D02*
X96000Y-123854D01*
D41*
X100000Y-124600D02*
X107970Y-124600D01*
X100000Y-124600D02*
X96746Y-124600D01*
X98870Y-123470D02*
X79677Y-123470D01*
X98870Y-123470D02*
X100000Y-124600D01*
X79677Y-123470D02*
X79677Y-110170D01*
X80000Y-109846D01*
X91871Y-109846D01*
X92025Y-110000D01*
X92025Y-95181D01*
X91954Y-95110D01*
X65000Y-65000D02*
X66100Y-63900D01*
X79754Y-63900D01*
X79507Y-110000D02*
X65000Y-110000D01*
X79507Y-110000D02*
X79677Y-110170D01*
X64016Y-110985D02*
X64016Y-125354D01*
X64016Y-110985D02*
X65000Y-110000D01*
X153320Y-88250D02*
X170750Y-88250D01*
X182500Y-100000D01*
X190000Y-100000D01*
D42*
X190000Y-100000D03*
D41*
X65000Y-65000D02*
X45000Y-85000D01*
X45000Y-102500D01*
X53485Y-110985D01*
X64016Y-110985D01*
D43*
X116820Y-95355D02*
X116820Y-94750D01*
X116820Y-95355D02*
X102175Y-110000D01*
D45*
X131820Y-103250D02*
X131820Y-121534D01*
X131000Y-122354D01*
X119908Y-122354D02*
X117662Y-124600D01*
X120728Y-121534D01*
X131820Y-121534D01*
D41*
X154746Y-138300D02*
X154746Y-139800D01*
X154746Y-138300D02*
X167800Y-125246D01*
D43*
X-54346Y111700D02*
X-55775Y113129D01*
X-55775Y126700D01*
X-55929Y126546D01*
X-67800Y126546D01*
X-68800Y125546D01*
X-84600Y125546D01*
X20400Y137100D02*
X20400Y140100D01*
X20400Y137100D02*
X37500Y120000D01*
X37500Y115476D01*
X37300Y115276D01*
D42*
X-65000Y172500D03*
D43*
X-24554Y145200D02*
X-18154Y151600D01*
X-11100Y151600D01*
X-12500Y160200D02*
X-11100Y161600D01*
X-12500Y160200D02*
X-35000Y160200D01*
X-47654Y160200D01*
X-25154Y166600D02*
X-11100Y166600D01*
X-25154Y166600D02*
X-28754Y170200D01*
D42*
X85000Y122500D03*
D43*
X45900Y156600D02*
X36900Y156600D01*
X45900Y156600D02*
X55000Y147500D01*
X79054Y147500D01*
X79100Y147546D01*
X65800Y122546D02*
X65846Y122500D01*
X30400Y188100D02*
X30400Y197246D01*
X40854Y207700D01*
X10400Y211754D02*
X10400Y188100D01*
X10400Y211754D02*
X11500Y212854D01*
X79100Y147546D02*
X105036Y147546D01*
X40854Y207700D02*
X40854Y218354D01*
X67500Y245000D01*
X67500Y255000D01*
X77625Y265125D01*
X91500Y265125D01*
X102625Y265125D01*
X122214Y284714D01*
X147500Y284714D01*
X148514Y284714D01*
D41*
X48357Y162500D02*
X52597Y158261D01*
X70761Y158261D01*
X48357Y162500D02*
X37800Y162500D01*
X36900Y161600D01*
X137312Y142042D02*
X137312Y127500D01*
X137312Y142042D02*
X136900Y142454D01*
X137312Y127500D02*
X132312Y122500D01*
X85000Y122500D01*
X110128Y142454D02*
X136900Y142454D01*
X110128Y142454D02*
X105036Y147546D01*
X85000Y122500D02*
X65846Y122500D01*
D43*
X65800Y122546D02*
X60954Y122546D01*
X36900Y146600D01*
D41*
X102442Y154670D02*
X109942Y154670D01*
X102442Y154670D02*
X101033Y153261D01*
X75761Y153261D01*
X70761Y158261D01*
D43*
X-65000Y172500D02*
X-75000Y172500D01*
X-89600Y157900D01*
X-89600Y130546D01*
X-84600Y125546D01*
X-47654Y160200D02*
X-59954Y172500D01*
X-65000Y172500D01*
D42*
X25000Y90000D03*
D43*
X25000Y94576D02*
X28532Y98107D01*
X25000Y94576D02*
X25000Y90000D01*
X37300Y114762D02*
X37300Y115276D01*
X37300Y114762D02*
X28532Y105994D01*
X28532Y98107D01*
X-24554Y145200D02*
X-34754Y135000D01*
X-52500Y135000D01*
X-55775Y131725D01*
X-55775Y126700D01*
X-28754Y166446D02*
X-28754Y170200D01*
X-28754Y166446D02*
X-35000Y160200D01*
D41*
X136900Y142454D02*
X140998Y146552D01*
X141203Y146552D01*
X170000Y178243D02*
X170000Y262214D01*
X170000Y178243D02*
X146361Y154603D01*
X146361Y151710D02*
X141203Y146552D01*
X146361Y151710D02*
X146361Y154603D01*
X170000Y262214D02*
X147500Y284714D01*
D42*
X37500Y260000D03*
D43*
X32500Y255000D01*
X22500Y255000D01*
X5000Y237500D01*
X5000Y217154D01*
X10400Y211754D01*
D42*
X130000Y167500D03*
D41*
X132546Y142454D02*
X136900Y142454D01*
X132546Y142454D02*
X121250Y153750D01*
X120330Y154670D01*
X109942Y154670D01*
X121250Y153750D02*
X130000Y162500D01*
X130000Y167500D01*
D43*
X176429Y-88900D02*
X290000Y-88900D01*
X176429Y-88900D02*
X169279Y-81750D01*
X153320Y-81750D01*
X290000Y-114300D02*
X291800Y-112500D01*
X322500Y-112500D01*
X325000Y-110000D01*
X325000Y-82500D01*
X317500Y-75000D01*
X153570Y-75000D02*
X153320Y-75250D01*
X153570Y-75000D02*
X317500Y-75000D01*
X-11100Y181600D02*
X-14100Y181600D01*
X-17500Y185000D01*
X-17500Y197500D01*
X-60000Y240000D01*
X-77300Y240000D01*
X-80000Y242700D01*
X-116625Y242700D01*
D42*
X-112500Y97500D03*
D43*
X-215383Y180000D02*
X-236800Y158583D01*
X-215383Y180000D02*
X-145000Y180000D01*
X-112500Y147500D01*
X-112500Y97500D01*
D44*
X2055Y-23405D02*
X122759Y-23405D01*
X129654Y-41523D02*
X131285Y-43154D01*
X129654Y-41523D02*
X129654Y-30300D01*
X129652Y-30133D01*
X129646Y-29967D01*
X129636Y-29801D01*
X129622Y-29635D01*
X129604Y-29469D01*
X129582Y-29304D01*
X129556Y-29139D01*
X129526Y-28975D01*
X129492Y-28812D01*
X129454Y-28650D01*
X129412Y-28489D01*
X129366Y-28328D01*
X129317Y-28169D01*
X129263Y-28011D01*
X129206Y-27855D01*
X129145Y-27700D01*
X129080Y-27546D01*
X129012Y-27394D01*
X128940Y-27244D01*
X128864Y-27096D01*
X128785Y-26949D01*
X128702Y-26805D01*
X128616Y-26662D01*
X128526Y-26521D01*
X128433Y-26383D01*
X128337Y-26247D01*
X128238Y-26114D01*
X128135Y-25982D01*
X128029Y-25854D01*
X127920Y-25728D01*
X127808Y-25604D01*
X127693Y-25484D01*
X127575Y-25366D01*
X127455Y-25251D01*
X127331Y-25139D01*
X127205Y-25030D01*
X127077Y-24924D01*
X126945Y-24821D01*
X126812Y-24722D01*
X126676Y-24626D01*
X126538Y-24533D01*
X126397Y-24443D01*
X126254Y-24357D01*
X126110Y-24274D01*
X125963Y-24195D01*
X125815Y-24119D01*
X125665Y-24047D01*
X125513Y-23979D01*
X125359Y-23914D01*
X125204Y-23853D01*
X125048Y-23796D01*
X124890Y-23742D01*
X124731Y-23693D01*
X124570Y-23647D01*
X124409Y-23605D01*
X124247Y-23567D01*
X124084Y-23533D01*
X123920Y-23503D01*
X123755Y-23477D01*
X123590Y-23455D01*
X123424Y-23437D01*
X123258Y-23423D01*
X123092Y-23413D01*
X122926Y-23407D01*
X122759Y-23405D01*
D42*
X-140000Y282500D03*
D43*
X-140000Y308275D02*
X-126575Y321700D01*
X-140000Y308275D02*
X-140000Y282500D01*
X20400Y204711D02*
X20400Y188100D01*
X20400Y204711D02*
X34758Y219069D01*
D42*
X33554Y226446D03*
D43*
X34758Y225242D01*
X34758Y219069D01*
X-80000Y322700D02*
X-95200Y322700D01*
X-105000Y332500D01*
X-115775Y332500D01*
X-126575Y321700D01*
D44*
X34000Y-207446D02*
X34000Y-219624D01*
X34015Y-219639D01*
D45*
X40166Y-210000D02*
X47454Y-210000D01*
X40166Y-210000D02*
X39952Y-209997D01*
X39738Y-209989D01*
X39525Y-209976D01*
X39311Y-209958D01*
X39099Y-209934D01*
X38887Y-209906D01*
X38675Y-209872D01*
X38465Y-209832D01*
X38255Y-209788D01*
X38047Y-209739D01*
X37840Y-209684D01*
X37635Y-209625D01*
X37431Y-209560D01*
X37228Y-209490D01*
X37028Y-209416D01*
X36829Y-209336D01*
X36632Y-209252D01*
X36438Y-209163D01*
X36245Y-209069D01*
X36055Y-208970D01*
X35868Y-208867D01*
X35683Y-208759D01*
X35501Y-208647D01*
X35321Y-208530D01*
X35145Y-208409D01*
X34972Y-208284D01*
X34801Y-208154D01*
X34634Y-208021D01*
X34470Y-207883D01*
X34310Y-207741D01*
X34153Y-207595D01*
X34000Y-207446D01*
D44*
X34015Y-229331D02*
X34015Y-241060D01*
X32575Y-242500D01*
D45*
X44935Y-229331D02*
X45088Y-229329D01*
X45242Y-229323D01*
X45395Y-229314D01*
X45548Y-229301D01*
X45700Y-229284D01*
X45852Y-229263D01*
X46004Y-229239D01*
X46154Y-229211D01*
X46304Y-229179D01*
X46454Y-229144D01*
X46602Y-229105D01*
X46749Y-229062D01*
X46896Y-229016D01*
X47041Y-228966D01*
X47184Y-228912D01*
X47327Y-228855D01*
X47468Y-228795D01*
X47607Y-228731D01*
X47745Y-228664D01*
X47881Y-228593D01*
X48016Y-228519D01*
X48148Y-228442D01*
X48279Y-228361D01*
X48407Y-228278D01*
X48534Y-228191D01*
X48658Y-228101D01*
X48780Y-228008D01*
X48900Y-227912D01*
X49017Y-227814D01*
X49132Y-227712D01*
X49245Y-227608D01*
X49354Y-227500D01*
X44935Y-229331D02*
X34015Y-229331D01*
D44*
X-12140Y-287500D02*
X-12292Y-287502D01*
X-12444Y-287508D01*
X-12596Y-287518D01*
X-12747Y-287531D01*
X-12898Y-287549D01*
X-13049Y-287570D01*
X-13199Y-287596D01*
X-13348Y-287625D01*
X-13496Y-287658D01*
X-13644Y-287695D01*
X-13790Y-287735D01*
X-13936Y-287780D01*
X-14080Y-287828D01*
X-14223Y-287880D01*
X-14365Y-287935D01*
X-14505Y-287994D01*
X-14643Y-288057D01*
X-14780Y-288123D01*
X-14915Y-288193D01*
X-15048Y-288266D01*
X-15180Y-288343D01*
X-15309Y-288423D01*
X-15436Y-288506D01*
X-15561Y-288592D01*
X-15684Y-288682D01*
X-15805Y-288775D01*
X-15923Y-288871D01*
X-16038Y-288970D01*
X-16151Y-289071D01*
X-16261Y-289176D01*
X-16369Y-289284D01*
X-16474Y-289394D01*
X-16575Y-289507D01*
X-16674Y-289622D01*
X-16770Y-289740D01*
X-16863Y-289861D01*
X-16953Y-289984D01*
X-17039Y-290109D01*
X-17122Y-290236D01*
X-17202Y-290365D01*
X-17279Y-290497D01*
X-17352Y-290630D01*
X-17422Y-290765D01*
X-17488Y-290902D01*
X-17551Y-291040D01*
X-17610Y-291180D01*
X-17665Y-291322D01*
X-17717Y-291465D01*
X-17765Y-291609D01*
X-17810Y-291755D01*
X-17850Y-291901D01*
X-17887Y-292049D01*
X-17920Y-292197D01*
X-17949Y-292346D01*
X-17975Y-292496D01*
X-17996Y-292647D01*
X-18014Y-292798D01*
X-18027Y-292949D01*
X-18037Y-293101D01*
X-18043Y-293253D01*
X-18045Y-293405D01*
X-12140Y-287500D02*
X122500Y-287500D01*
X122681Y-287498D01*
X122862Y-287491D01*
X123043Y-287480D01*
X123224Y-287465D01*
X123404Y-287445D01*
X123584Y-287421D01*
X123763Y-287393D01*
X123941Y-287360D01*
X124118Y-287323D01*
X124295Y-287282D01*
X124470Y-287237D01*
X124645Y-287187D01*
X124818Y-287133D01*
X124989Y-287075D01*
X125160Y-287013D01*
X125328Y-286946D01*
X125495Y-286876D01*
X125661Y-286802D01*
X125824Y-286723D01*
X125985Y-286641D01*
X126145Y-286555D01*
X126302Y-286465D01*
X126457Y-286371D01*
X126610Y-286274D01*
X126760Y-286172D01*
X126908Y-286068D01*
X127054Y-285959D01*
X127196Y-285848D01*
X127336Y-285732D01*
X127473Y-285614D01*
X127608Y-285492D01*
X127739Y-285367D01*
X127867Y-285239D01*
X127992Y-285108D01*
X128114Y-284973D01*
X128232Y-284836D01*
X128348Y-284696D01*
X128459Y-284554D01*
X128568Y-284408D01*
X128672Y-284260D01*
X128774Y-284110D01*
X128871Y-283957D01*
X128965Y-283802D01*
X129055Y-283645D01*
X129141Y-283485D01*
X129223Y-283324D01*
X129302Y-283161D01*
X129376Y-282995D01*
X129446Y-282828D01*
X129513Y-282660D01*
X129575Y-282489D01*
X129633Y-282318D01*
X129687Y-282145D01*
X129737Y-281970D01*
X129782Y-281795D01*
X129823Y-281618D01*
X129860Y-281441D01*
X129893Y-281263D01*
X129921Y-281084D01*
X129945Y-280904D01*
X129965Y-280724D01*
X129980Y-280543D01*
X129991Y-280362D01*
X129998Y-280181D01*
X130000Y-280000D01*
X-37500Y-313060D02*
X-57155Y-293405D01*
X-37500Y-313060D02*
X-37500Y-322500D01*
D45*
X-57155Y-220080D02*
X-56975Y-219900D01*
X-57155Y-220080D02*
X-57155Y-241595D01*
D44*
X8046Y-242500D02*
X22425Y-242500D01*
X8046Y-242500D02*
X7300Y-241754D01*
X-17886Y-241754D01*
X-18045Y-241595D01*
D41*
X131000Y-132046D02*
X137300Y-132046D01*
X145054Y-139800D01*
D44*
X49993Y-191761D02*
X48054Y-193700D01*
X60000Y-150000D02*
X117500Y-150000D01*
X131000Y-136500D02*
X131000Y-132046D01*
X38054Y-193700D02*
X34000Y-197754D01*
X38054Y-193700D02*
X48054Y-193700D01*
X49993Y-191761D02*
X49993Y-160007D01*
X49996Y-159765D01*
X50005Y-159524D01*
X50019Y-159282D01*
X50040Y-159041D01*
X50066Y-158801D01*
X50098Y-158561D01*
X50136Y-158322D01*
X50179Y-158084D01*
X50229Y-157848D01*
X50284Y-157612D01*
X50344Y-157378D01*
X50411Y-157146D01*
X50483Y-156915D01*
X50560Y-156686D01*
X50643Y-156458D01*
X50732Y-156233D01*
X50826Y-156011D01*
X50925Y-155790D01*
X51029Y-155572D01*
X51139Y-155357D01*
X51254Y-155144D01*
X51374Y-154934D01*
X51499Y-154727D01*
X51629Y-154523D01*
X51764Y-154322D01*
X51904Y-154125D01*
X52049Y-153931D01*
X52198Y-153741D01*
X52351Y-153554D01*
X52510Y-153371D01*
X52672Y-153192D01*
X52839Y-153017D01*
X53010Y-152846D01*
X53185Y-152679D01*
X53364Y-152517D01*
X53547Y-152358D01*
X53734Y-152205D01*
X53924Y-152056D01*
X54118Y-151911D01*
X54315Y-151771D01*
X54516Y-151636D01*
X54720Y-151506D01*
X54927Y-151381D01*
X55137Y-151261D01*
X55350Y-151146D01*
X55565Y-151036D01*
X55783Y-150932D01*
X56004Y-150833D01*
X56226Y-150739D01*
X56451Y-150650D01*
X56679Y-150567D01*
X56908Y-150490D01*
X57139Y-150418D01*
X57371Y-150351D01*
X57605Y-150291D01*
X57841Y-150236D01*
X58077Y-150186D01*
X58315Y-150143D01*
X58554Y-150105D01*
X58794Y-150073D01*
X59034Y-150047D01*
X59275Y-150026D01*
X59517Y-150012D01*
X59758Y-150003D01*
X60000Y-150000D01*
X117500Y-150000D02*
X117826Y-149996D01*
X118152Y-149984D01*
X118478Y-149965D01*
X118803Y-149937D01*
X119127Y-149902D01*
X119451Y-149858D01*
X119773Y-149807D01*
X120094Y-149748D01*
X120413Y-149682D01*
X120731Y-149608D01*
X121047Y-149526D01*
X121360Y-149436D01*
X121672Y-149339D01*
X121981Y-149235D01*
X122287Y-149123D01*
X122591Y-149003D01*
X122891Y-148877D01*
X123189Y-148743D01*
X123483Y-148602D01*
X123774Y-148454D01*
X124061Y-148299D01*
X124344Y-148137D01*
X124623Y-147968D01*
X124898Y-147792D01*
X125169Y-147610D01*
X125435Y-147422D01*
X125697Y-147227D01*
X125954Y-147026D01*
X126205Y-146818D01*
X126452Y-146605D01*
X126694Y-146386D01*
X126930Y-146161D01*
X127161Y-145930D01*
X127386Y-145694D01*
X127605Y-145452D01*
X127818Y-145205D01*
X128026Y-144954D01*
X128227Y-144697D01*
X128422Y-144435D01*
X128610Y-144169D01*
X128792Y-143898D01*
X128968Y-143623D01*
X129137Y-143344D01*
X129299Y-143061D01*
X129454Y-142774D01*
X129602Y-142483D01*
X129743Y-142189D01*
X129877Y-141891D01*
X130003Y-141591D01*
X130123Y-141287D01*
X130235Y-140981D01*
X130339Y-140672D01*
X130436Y-140360D01*
X130526Y-140047D01*
X130608Y-139731D01*
X130682Y-139413D01*
X130748Y-139094D01*
X130807Y-138773D01*
X130858Y-138451D01*
X130902Y-138127D01*
X130937Y-137803D01*
X130965Y-137478D01*
X130984Y-137152D01*
X130996Y-136826D01*
X131000Y-136500D01*
D43*
X116820Y-88250D02*
X108506Y-88250D01*
X101646Y-95110D01*
D42*
X-150000Y242500D03*
D43*
X-126975Y242500D02*
X-126775Y242700D01*
X-126975Y242500D02*
X-150000Y242500D01*
D42*
X60000Y75000D03*
X-140000Y120000D03*
D43*
X-237500Y120000D01*
X-258800Y141300D01*
X-258800Y158583D01*
D42*
X210000Y75000D03*
D43*
X60000Y75000D01*
D42*
X172500Y12500D03*
D43*
X289800Y12500D01*
X290000Y12700D01*
X-196600Y3725D02*
X-196600Y-5354D01*
X-196800Y-5554D01*
X-196600Y3725D02*
X-145305Y3725D01*
X-144830Y4200D01*
D44*
X-194850Y-110804D02*
X-195035Y-110806D01*
X-195220Y-110813D01*
X-195404Y-110824D01*
X-195588Y-110840D01*
X-195772Y-110860D01*
X-195955Y-110884D01*
X-196138Y-110913D01*
X-196320Y-110947D01*
X-196501Y-110984D01*
X-196681Y-111026D01*
X-196860Y-111073D01*
X-197037Y-111123D01*
X-197214Y-111178D01*
X-197389Y-111238D01*
X-197563Y-111301D01*
X-197735Y-111369D01*
X-197905Y-111441D01*
X-198074Y-111516D01*
X-198240Y-111596D01*
X-198405Y-111680D01*
X-198568Y-111768D01*
X-198728Y-111860D01*
X-198886Y-111956D01*
X-199042Y-112055D01*
X-199196Y-112158D01*
X-199347Y-112265D01*
X-199495Y-112375D01*
X-199640Y-112489D01*
X-199783Y-112607D01*
X-199923Y-112728D01*
X-200060Y-112852D01*
X-200194Y-112980D01*
X-200324Y-113110D01*
X-200452Y-113244D01*
X-200576Y-113381D01*
X-200697Y-113521D01*
X-200815Y-113664D01*
X-200929Y-113809D01*
X-201039Y-113957D01*
X-201146Y-114108D01*
X-201249Y-114262D01*
X-201348Y-114418D01*
X-201444Y-114576D01*
X-201536Y-114736D01*
X-201624Y-114899D01*
X-201708Y-115064D01*
X-201788Y-115230D01*
X-201863Y-115399D01*
X-201935Y-115569D01*
X-202003Y-115741D01*
X-202066Y-115915D01*
X-202126Y-116090D01*
X-202181Y-116267D01*
X-202231Y-116444D01*
X-202278Y-116623D01*
X-202320Y-116803D01*
X-202357Y-116984D01*
X-202391Y-117166D01*
X-202420Y-117349D01*
X-202444Y-117532D01*
X-202464Y-117716D01*
X-202480Y-117900D01*
X-202491Y-118084D01*
X-202498Y-118269D01*
X-202500Y-118454D01*
X-202500Y-125000D01*
X-202504Y-125362D01*
X-202518Y-125725D01*
X-202539Y-126087D01*
X-202570Y-126448D01*
X-202609Y-126808D01*
X-202657Y-127167D01*
X-202714Y-127525D01*
X-202779Y-127882D01*
X-202853Y-128237D01*
X-202936Y-128590D01*
X-203027Y-128941D01*
X-203126Y-129289D01*
X-203234Y-129635D01*
X-203350Y-129979D01*
X-203475Y-130319D01*
X-203607Y-130656D01*
X-203748Y-130990D01*
X-203897Y-131321D01*
X-204054Y-131648D01*
X-204218Y-131971D01*
X-204390Y-132290D01*
X-204570Y-132604D01*
X-204758Y-132915D01*
X-204953Y-133220D01*
X-205155Y-133521D01*
X-205365Y-133817D01*
X-205581Y-134107D01*
X-205805Y-134393D01*
X-206035Y-134673D01*
X-206272Y-134947D01*
X-206516Y-135215D01*
X-206766Y-135478D01*
X-207022Y-135734D01*
X-207285Y-135984D01*
X-207553Y-136228D01*
X-207827Y-136465D01*
X-208107Y-136695D01*
X-208393Y-136919D01*
X-208683Y-137135D01*
X-208979Y-137345D01*
X-209280Y-137547D01*
X-209585Y-137742D01*
X-209896Y-137930D01*
X-210210Y-138110D01*
X-210529Y-138282D01*
X-210852Y-138446D01*
X-211179Y-138603D01*
X-211510Y-138752D01*
X-211844Y-138893D01*
X-212181Y-139025D01*
X-212521Y-139150D01*
X-212865Y-139266D01*
X-213211Y-139374D01*
X-213559Y-139473D01*
X-213910Y-139564D01*
X-214263Y-139647D01*
X-214618Y-139721D01*
X-214975Y-139786D01*
X-215333Y-139843D01*
X-215692Y-139891D01*
X-216052Y-139930D01*
X-216413Y-139961D01*
X-216775Y-139982D01*
X-217138Y-139996D01*
X-217500Y-140000D01*
X-135150Y-60004D02*
X-135150Y4188D01*
X-135149Y4193D01*
X-135146Y4196D01*
X-135143Y4199D01*
X-135138Y4200D01*
X-217500Y-140000D02*
X-272500Y-140000D01*
D43*
X-253829Y625D02*
X-237100Y625D01*
X-253829Y625D02*
X-254700Y-246D01*
X-276154Y-246D01*
X-276200Y-200D01*
X-227100Y625D02*
X-206800Y20925D01*
X-227100Y625D02*
X-237100Y625D01*
X-206800Y20925D02*
X-206800Y38583D01*
X322354Y114300D02*
X323054Y113600D01*
X319477Y110023D01*
X319477Y100623D01*
X152851Y127149D02*
X152851Y127500D01*
D41*
X290000Y114300D02*
X322354Y114300D01*
X290000Y114300D02*
X165700Y114300D01*
X153750Y126250D01*
X152851Y127149D01*
X152851Y140403D02*
X152300Y140954D01*
X152851Y140403D02*
X152851Y127500D01*
X-237100Y37200D02*
X-237100Y10775D01*
X-236800Y38583D02*
X-236800Y86800D01*
X-280800Y130800D01*
X-280800Y158583D01*
X-291800Y158583D01*
X-197883Y77500D02*
X-236800Y38583D01*
X-197883Y77500D02*
X-47500Y77500D01*
D42*
X-47500Y77500D03*
X102500Y97500D03*
D41*
X137500Y97500D01*
X153750Y113750D01*
X153750Y126250D01*
D43*
X15400Y121746D02*
X15400Y140100D01*
X15400Y121746D02*
X20600Y116546D01*
D45*
X-132100Y45923D02*
X-132105Y46324D01*
X-132119Y46724D01*
X-132144Y47124D01*
X-132177Y47523D01*
X-132221Y47921D01*
X-132274Y48318D01*
X-132337Y48714D01*
X-132409Y49108D01*
X-132491Y49500D01*
X-132582Y49890D01*
X-132682Y50278D01*
X-132792Y50663D01*
X-132911Y51046D01*
X-133040Y51425D01*
X-133177Y51801D01*
X-133324Y52174D01*
X-133479Y52543D01*
X-133644Y52909D01*
X-133817Y53270D01*
X-133999Y53627D01*
X-134189Y53979D01*
X-134388Y54327D01*
X-134595Y54670D01*
X-134811Y55007D01*
X-135034Y55340D01*
X-135266Y55667D01*
X-135505Y55988D01*
X-135752Y56303D01*
X-136007Y56613D01*
X-136269Y56916D01*
X-136538Y57212D01*
X-136815Y57502D01*
X-137098Y57785D01*
X-137388Y58062D01*
X-137684Y58331D01*
X-137987Y58593D01*
X-138297Y58848D01*
X-138612Y59095D01*
X-138933Y59334D01*
X-139260Y59566D01*
X-139593Y59789D01*
X-139930Y60005D01*
X-140273Y60212D01*
X-140621Y60411D01*
X-140973Y60601D01*
X-141330Y60783D01*
X-141691Y60956D01*
X-142057Y61121D01*
X-142426Y61276D01*
X-142799Y61423D01*
X-143175Y61560D01*
X-143554Y61689D01*
X-143937Y61808D01*
X-144322Y61918D01*
X-144710Y62018D01*
X-145100Y62109D01*
X-145492Y62191D01*
X-145886Y62263D01*
X-146282Y62326D01*
X-146679Y62379D01*
X-147077Y62423D01*
X-147476Y62456D01*
X-147876Y62481D01*
X-148276Y62495D01*
X-148677Y62500D01*
X-160000Y62500D01*
X-160333Y62496D01*
X-160667Y62484D01*
X-161000Y62464D01*
X-161332Y62436D01*
X-161663Y62399D01*
X-161994Y62355D01*
X-162323Y62303D01*
X-162651Y62243D01*
X-162978Y62175D01*
X-163303Y62099D01*
X-163625Y62015D01*
X-163946Y61924D01*
X-164264Y61825D01*
X-164580Y61718D01*
X-164894Y61603D01*
X-165204Y61481D01*
X-165511Y61352D01*
X-165815Y61215D01*
X-166116Y61071D01*
X-166413Y60919D01*
X-166707Y60761D01*
X-166996Y60595D01*
X-167281Y60423D01*
X-167563Y60243D01*
X-167839Y60057D01*
X-168111Y59864D01*
X-168379Y59665D01*
X-168641Y59460D01*
X-168899Y59248D01*
X-169151Y59029D01*
X-169398Y58805D01*
X-169639Y58575D01*
X-169875Y58339D01*
X-170105Y58098D01*
X-170329Y57851D01*
X-170548Y57599D01*
X-170760Y57341D01*
X-170965Y57079D01*
X-171164Y56811D01*
X-171357Y56539D01*
X-171543Y56263D01*
X-171723Y55981D01*
X-171895Y55696D01*
X-172061Y55407D01*
X-172219Y55113D01*
X-172371Y54816D01*
X-172515Y54515D01*
X-172652Y54211D01*
X-172781Y53904D01*
X-172903Y53594D01*
X-173018Y53280D01*
X-173125Y52964D01*
X-173224Y52646D01*
X-173315Y52325D01*
X-173399Y52003D01*
X-173475Y51678D01*
X-173543Y51351D01*
X-173603Y51023D01*
X-173655Y50694D01*
X-173699Y50363D01*
X-173736Y50032D01*
X-173764Y49700D01*
X-173784Y49367D01*
X-173796Y49033D01*
X-173800Y48700D01*
X-173800Y38583D01*
D46*
X2107Y48570D02*
X2500Y48177D01*
X2500Y28850D01*
X2055Y28405D01*
D41*
X-37055Y28405D02*
X-37248Y28216D01*
X-37447Y28031D01*
X-37649Y27852D01*
X-37855Y27677D01*
X-38066Y27507D01*
X-38281Y27343D01*
X-38499Y27183D01*
X-38722Y27029D01*
X-38947Y26880D01*
X-39177Y26736D01*
X-39410Y26598D01*
X-39645Y26466D01*
X-39884Y26339D01*
X-40126Y26218D01*
X-40371Y26102D01*
X-40619Y25993D01*
X-40869Y25889D01*
X-41121Y25792D01*
X-41376Y25700D01*
X-41632Y25615D01*
X-41891Y25536D01*
X-42151Y25462D01*
X-42414Y25395D01*
X-42677Y25335D01*
X-42942Y25280D01*
X-43209Y25232D01*
X-43476Y25191D01*
X-43744Y25155D01*
X-44013Y25126D01*
X-44283Y25104D01*
X-44553Y25088D01*
X-44823Y25078D01*
X-45094Y25075D01*
X-55000Y25075D01*
D44*
X-37055Y-23405D02*
X-37055Y-72055D01*
X-37057Y-72247D01*
X-37064Y-72439D01*
X-37076Y-72630D01*
X-37092Y-72822D01*
X-37113Y-73013D01*
X-37138Y-73203D01*
X-37168Y-73393D01*
X-37203Y-73581D01*
X-37242Y-73769D01*
X-37286Y-73956D01*
X-37334Y-74142D01*
X-37387Y-74327D01*
X-37444Y-74510D01*
X-37505Y-74692D01*
X-37571Y-74872D01*
X-37642Y-75051D01*
X-37716Y-75228D01*
X-37795Y-75403D01*
X-37878Y-75576D01*
X-37965Y-75747D01*
X-38056Y-75916D01*
X-38152Y-76083D01*
X-38251Y-76247D01*
X-38354Y-76409D01*
X-38461Y-76568D01*
X-38572Y-76725D01*
X-38687Y-76879D01*
X-38805Y-77030D01*
X-38928Y-77178D01*
X-39053Y-77324D01*
X-39182Y-77466D01*
X-39315Y-77605D01*
X-39450Y-77740D01*
X-39589Y-77873D01*
X-39731Y-78002D01*
X-39877Y-78127D01*
X-40025Y-78250D01*
X-40176Y-78368D01*
X-40330Y-78483D01*
X-40487Y-78594D01*
X-40646Y-78701D01*
X-40808Y-78804D01*
X-40972Y-78903D01*
X-41139Y-78999D01*
X-41308Y-79090D01*
X-41479Y-79177D01*
X-41652Y-79260D01*
X-41827Y-79339D01*
X-42004Y-79413D01*
X-42183Y-79484D01*
X-42363Y-79550D01*
X-42545Y-79611D01*
X-42728Y-79668D01*
X-42913Y-79721D01*
X-43099Y-79769D01*
X-43286Y-79813D01*
X-43474Y-79852D01*
X-43662Y-79887D01*
X-43852Y-79917D01*
X-44042Y-79942D01*
X-44233Y-79963D01*
X-44425Y-79979D01*
X-44616Y-79991D01*
X-44808Y-79998D01*
X-45000Y-80000D01*
D43*
X36900Y181600D02*
X40225Y184925D01*
X50000Y184925D01*
D44*
X-194850Y-60004D02*
X-309996Y-60004D01*
X-310136Y-60002D01*
X-310277Y-59996D01*
X-310417Y-59986D01*
X-310556Y-59973D01*
X-310696Y-59955D01*
X-310834Y-59933D01*
X-310972Y-59908D01*
X-311109Y-59879D01*
X-311246Y-59845D01*
X-311381Y-59808D01*
X-311516Y-59768D01*
X-311649Y-59723D01*
X-311781Y-59675D01*
X-311911Y-59623D01*
X-312040Y-59568D01*
X-312167Y-59508D01*
X-312293Y-59446D01*
X-312417Y-59380D01*
X-312538Y-59310D01*
X-312658Y-59237D01*
X-312776Y-59161D01*
X-312892Y-59081D01*
X-313005Y-58998D01*
X-313116Y-58912D01*
X-313224Y-58823D01*
X-313330Y-58731D01*
X-313434Y-58636D01*
X-313534Y-58538D01*
X-313632Y-58438D01*
X-313727Y-58334D01*
X-313819Y-58228D01*
X-313908Y-58120D01*
X-313994Y-58009D01*
X-314077Y-57896D01*
X-314157Y-57780D01*
X-314233Y-57662D01*
X-314306Y-57542D01*
X-314376Y-57421D01*
X-314442Y-57297D01*
X-314504Y-57171D01*
X-314564Y-57044D01*
X-314619Y-56915D01*
X-314671Y-56785D01*
X-314719Y-56653D01*
X-314764Y-56520D01*
X-314804Y-56385D01*
X-314841Y-56250D01*
X-314875Y-56113D01*
X-314904Y-55976D01*
X-314929Y-55838D01*
X-314951Y-55700D01*
X-314969Y-55560D01*
X-314982Y-55421D01*
X-314992Y-55281D01*
X-314998Y-55140D01*
X-315000Y-55000D01*
D41*
X-135150Y-110804D02*
X-105729Y-110804D01*
X-105677Y-110802D01*
X-105625Y-110797D01*
X-105574Y-110787D01*
X-105524Y-110774D01*
X-105474Y-110758D01*
X-105426Y-110738D01*
X-105380Y-110715D01*
X-105335Y-110688D01*
X-105292Y-110659D01*
X-105252Y-110626D01*
X-105214Y-110590D01*
X-105178Y-110552D01*
X-105145Y-110512D01*
X-105116Y-110469D01*
X-105089Y-110424D01*
X-105066Y-110378D01*
X-105046Y-110330D01*
X-105030Y-110280D01*
X-105017Y-110230D01*
X-105007Y-110179D01*
X-105002Y-110127D01*
X-105000Y-110075D01*
D42*
X-25000Y50000D03*
X122500Y-174500D03*
X86500Y-174500D03*
X32500Y-174500D03*
X122500Y-192500D03*
X86500Y-192500D03*
X68500Y-192500D03*
X122500Y-210500D03*
X104500Y-210500D03*
X68500Y-210500D03*
X104500Y-228500D03*
X14500Y-228500D03*
X68500Y-228500D03*
X-3500Y-228500D03*
X-21500Y-228500D03*
X68500Y-174500D03*
X-39500Y-228500D03*
X86500Y-210500D03*
X-75500Y-228500D03*
X122500Y-246500D03*
X50500Y-246500D03*
X-75500Y-246500D03*
X50500Y-264500D03*
X68500Y-246500D03*
X14500Y-264500D03*
X-3500Y-264500D03*
X32500Y-156500D03*
X-75500Y-300500D03*
X-75500Y-264500D03*
X-75500Y-282500D03*
X104500Y-174500D03*
X122500Y-300500D03*
X14500Y-300500D03*
X86500Y-264500D03*
X86500Y-300500D03*
X68500Y-264500D03*
X32500Y-264500D03*
X122500Y-228500D03*
X68500Y-300500D03*
X50500Y-300500D03*
X32500Y-300500D03*
X-3500Y-300500D03*
X86500Y-228500D03*
X86500Y-246500D03*
X104500Y-192500D03*
X22500Y240000D03*
D43*
X-80000Y297300D02*
X-82100Y295200D01*
X-115725Y295200D01*
X22500Y240000D02*
X22500Y211121D01*
X15400Y204021D02*
X15400Y188100D01*
X15400Y204021D02*
X22500Y211121D01*
X-11100Y176600D02*
X-19100Y176600D01*
X-22500Y180000D01*
X-22500Y195000D01*
X-44800Y217300D01*
X-80000Y217300D01*
X-114525Y217300D01*
X-114925Y217700D01*
X53300Y164200D02*
X56554Y164200D01*
X53300Y164200D02*
X50000Y167500D01*
X37800Y167500D01*
X36900Y166600D01*
M02*
