G04 EAGLE Gerber RS-274X export*
G75*
%MOMM*%
%FSLAX34Y34*%
%LPD*%
%INSolderpaste Top*%
%IPPOS*%
%AMOC8*
5,1,8,0,0,1.08239X$1,22.5*%
G01*
G04 Define Apertures*
%ADD10R,0.560000X0.629100*%
%ADD11R,0.629100X0.560000*%
%ADD12R,0.457200X1.358900*%
%ADD13R,1.790000X0.690000*%
%ADD14R,0.835400X1.092200*%
%ADD15R,0.864000X0.864000*%
%ADD16R,0.729100X0.560000*%
%ADD17R,0.560000X0.729100*%
%ADD18R,0.535100X0.644000*%
%ADD19R,0.644000X0.535100*%
%ADD20R,0.800000X1.800000*%
%ADD21R,1.800000X0.800000*%
%ADD22R,0.304800X0.736600*%
%ADD23R,0.736600X0.355600*%
%ADD24C,0.240000*%
%ADD25R,0.300000X0.750000*%
%ADD26R,0.750000X0.300000*%
%ADD27R,1.200000X1.800000*%
%ADD28R,1.270000X3.600000*%
%ADD29R,1.350000X4.200000*%
%ADD30R,2.410000X0.760000*%
%ADD31R,2.540000X5.840000*%
%ADD32R,3.600000X1.270000*%
%ADD33R,4.200000X1.350000*%
%ADD34R,0.900000X0.970200*%
%ADD35R,0.932600X0.970200*%
G36*
X12027Y148113D02*
X-3087Y148113D01*
X-3087Y163227D01*
X12027Y163227D01*
X12027Y148113D01*
G37*
G36*
X12027Y164973D02*
X-3087Y164973D01*
X-3087Y180087D01*
X12027Y180087D01*
X12027Y164973D01*
G37*
G36*
X28887Y148113D02*
X13773Y148113D01*
X13773Y163227D01*
X28887Y163227D01*
X28887Y148113D01*
G37*
G36*
X28887Y164973D02*
X13773Y164973D01*
X13773Y180087D01*
X28887Y180087D01*
X28887Y164973D01*
G37*
G36*
X-299750Y37633D02*
X-298750Y37633D01*
X-298750Y25533D01*
X-306850Y25533D01*
X-306850Y37633D01*
X-305850Y37633D01*
X-305850Y46633D01*
X-299750Y46633D01*
X-299750Y37633D01*
G37*
G36*
X-306850Y171633D02*
X-298750Y171633D01*
X-298750Y159533D01*
X-299750Y159533D01*
X-299750Y150533D01*
X-305850Y150533D01*
X-305850Y159533D01*
X-306850Y159533D01*
X-306850Y171633D01*
G37*
G36*
X-288750Y37633D02*
X-287750Y37633D01*
X-287750Y25533D01*
X-295850Y25533D01*
X-295850Y37633D01*
X-294850Y37633D01*
X-294850Y46633D01*
X-288750Y46633D01*
X-288750Y37633D01*
G37*
G36*
X-295850Y171633D02*
X-287750Y171633D01*
X-287750Y159533D01*
X-288750Y159533D01*
X-288750Y150533D01*
X-294850Y150533D01*
X-294850Y159533D01*
X-295850Y159533D01*
X-295850Y171633D01*
G37*
G36*
X-277750Y37633D02*
X-276750Y37633D01*
X-276750Y25533D01*
X-284850Y25533D01*
X-284850Y37633D01*
X-283850Y37633D01*
X-283850Y46633D01*
X-277750Y46633D01*
X-277750Y37633D01*
G37*
G36*
X-284850Y171633D02*
X-276750Y171633D01*
X-276750Y159533D01*
X-277750Y159533D01*
X-277750Y150533D01*
X-283850Y150533D01*
X-283850Y159533D01*
X-284850Y159533D01*
X-284850Y171633D01*
G37*
G36*
X-266750Y37633D02*
X-265750Y37633D01*
X-265750Y25533D01*
X-273850Y25533D01*
X-273850Y37633D01*
X-272850Y37633D01*
X-272850Y46633D01*
X-266750Y46633D01*
X-266750Y37633D01*
G37*
G36*
X-273850Y171633D02*
X-265750Y171633D01*
X-265750Y159533D01*
X-266750Y159533D01*
X-266750Y150533D01*
X-272850Y150533D01*
X-272850Y159533D01*
X-273850Y159533D01*
X-273850Y171633D01*
G37*
G36*
X-255750Y37633D02*
X-254750Y37633D01*
X-254750Y25533D01*
X-262850Y25533D01*
X-262850Y37633D01*
X-261850Y37633D01*
X-261850Y46633D01*
X-255750Y46633D01*
X-255750Y37633D01*
G37*
G36*
X-262850Y171633D02*
X-254750Y171633D01*
X-254750Y159533D01*
X-255750Y159533D01*
X-255750Y150533D01*
X-261850Y150533D01*
X-261850Y159533D01*
X-262850Y159533D01*
X-262850Y171633D01*
G37*
G36*
X-244750Y37633D02*
X-243750Y37633D01*
X-243750Y25533D01*
X-251850Y25533D01*
X-251850Y37633D01*
X-250850Y37633D01*
X-250850Y46633D01*
X-244750Y46633D01*
X-244750Y37633D01*
G37*
G36*
X-251850Y171633D02*
X-243750Y171633D01*
X-243750Y159533D01*
X-244750Y159533D01*
X-244750Y150533D01*
X-250850Y150533D01*
X-250850Y159533D01*
X-251850Y159533D01*
X-251850Y171633D01*
G37*
G36*
X-233750Y37633D02*
X-232750Y37633D01*
X-232750Y25533D01*
X-240850Y25533D01*
X-240850Y37633D01*
X-239850Y37633D01*
X-239850Y46633D01*
X-233750Y46633D01*
X-233750Y37633D01*
G37*
G36*
X-240850Y171633D02*
X-232750Y171633D01*
X-232750Y159533D01*
X-233750Y159533D01*
X-233750Y150533D01*
X-239850Y150533D01*
X-239850Y159533D01*
X-240850Y159533D01*
X-240850Y171633D01*
G37*
G36*
X-203750Y37633D02*
X-202750Y37633D01*
X-202750Y25533D01*
X-210850Y25533D01*
X-210850Y37633D01*
X-209850Y37633D01*
X-209850Y46633D01*
X-203750Y46633D01*
X-203750Y37633D01*
G37*
G36*
X-210850Y171633D02*
X-202750Y171633D01*
X-202750Y159533D01*
X-203750Y159533D01*
X-203750Y150533D01*
X-209850Y150533D01*
X-209850Y159533D01*
X-210850Y159533D01*
X-210850Y171633D01*
G37*
G36*
X-192750Y37633D02*
X-191750Y37633D01*
X-191750Y25533D01*
X-199850Y25533D01*
X-199850Y37633D01*
X-198850Y37633D01*
X-198850Y46633D01*
X-192750Y46633D01*
X-192750Y37633D01*
G37*
G36*
X-199850Y171633D02*
X-191750Y171633D01*
X-191750Y159533D01*
X-192750Y159533D01*
X-192750Y150533D01*
X-198850Y150533D01*
X-198850Y159533D01*
X-199850Y159533D01*
X-199850Y171633D01*
G37*
G36*
X-181750Y37633D02*
X-180750Y37633D01*
X-180750Y25533D01*
X-188850Y25533D01*
X-188850Y37633D01*
X-187850Y37633D01*
X-187850Y46633D01*
X-181750Y46633D01*
X-181750Y37633D01*
G37*
G36*
X-188850Y171633D02*
X-180750Y171633D01*
X-180750Y159533D01*
X-181750Y159533D01*
X-181750Y150533D01*
X-187850Y150533D01*
X-187850Y159533D01*
X-188850Y159533D01*
X-188850Y171633D01*
G37*
G36*
X-170750Y37633D02*
X-169750Y37633D01*
X-169750Y25533D01*
X-177850Y25533D01*
X-177850Y37633D01*
X-176850Y37633D01*
X-176850Y46633D01*
X-170750Y46633D01*
X-170750Y37633D01*
G37*
G36*
X-177850Y171633D02*
X-169750Y171633D01*
X-169750Y159533D01*
X-170750Y159533D01*
X-170750Y150533D01*
X-176850Y150533D01*
X-176850Y159533D01*
X-177850Y159533D01*
X-177850Y171633D01*
G37*
G36*
X-159750Y37633D02*
X-158750Y37633D01*
X-158750Y25533D01*
X-166850Y25533D01*
X-166850Y37633D01*
X-165850Y37633D01*
X-165850Y46633D01*
X-159750Y46633D01*
X-159750Y37633D01*
G37*
G36*
X-166850Y171633D02*
X-158750Y171633D01*
X-158750Y159533D01*
X-159750Y159533D01*
X-159750Y150533D01*
X-165850Y150533D01*
X-165850Y159533D01*
X-166850Y159533D01*
X-166850Y171633D01*
G37*
D10*
X139346Y-30300D03*
X129654Y-30300D03*
D11*
X131000Y-132046D03*
X131000Y-122354D03*
X167800Y-115554D03*
X167800Y-125246D03*
X64016Y-135046D03*
X64016Y-125354D03*
X79677Y-133162D03*
X79677Y-123470D03*
X96000Y-133546D03*
X96000Y-123854D03*
D10*
X57746Y-193700D03*
X48054Y-193700D03*
X-28754Y170200D03*
X-38446Y170200D03*
X-24554Y145200D03*
X-34246Y145200D03*
D11*
X37300Y115276D03*
X37300Y105584D03*
X166600Y-96654D03*
X166600Y-106346D03*
X11500Y212854D03*
X11500Y222546D03*
D10*
X40854Y207700D03*
X50546Y207700D03*
G36*
X113062Y157497D02*
X113111Y151898D01*
X106822Y151843D01*
X106773Y157442D01*
X113062Y157497D01*
G37*
G36*
X112978Y167189D02*
X113027Y161590D01*
X106738Y161535D01*
X106689Y167134D01*
X112978Y167189D01*
G37*
D11*
X79100Y147546D03*
X79100Y137854D03*
X65800Y122546D03*
X65800Y112854D03*
D10*
X-47654Y160200D03*
X-57346Y160200D03*
X57354Y136700D03*
X67046Y136700D03*
X56554Y164200D03*
X66246Y164200D03*
D11*
X20600Y116546D03*
X20600Y106854D03*
X-3069Y212023D03*
X-3069Y221715D03*
X101408Y-53654D03*
X101408Y-63346D03*
X-13700Y116854D03*
X-13700Y126546D03*
D10*
X-54346Y111700D03*
X-44654Y111700D03*
D11*
X-67800Y116854D03*
X-67800Y126546D03*
X-84600Y115854D03*
X-84600Y125546D03*
X110792Y196854D03*
X110792Y206546D03*
D10*
X87946Y244200D03*
X78254Y244200D03*
X57146Y-210000D03*
X47454Y-210000D03*
X59046Y-227500D03*
X49354Y-227500D03*
D11*
X152300Y150646D03*
X152300Y140954D03*
X334600Y91654D03*
X334600Y101346D03*
X52200Y98354D03*
X52200Y108046D03*
X136900Y152146D03*
X136900Y142454D03*
X319477Y90931D03*
X319477Y100623D03*
X-196800Y-5554D03*
X-196800Y-15246D03*
X-254700Y9446D03*
X-254700Y-246D03*
D10*
X99054Y285700D03*
X108746Y285700D03*
D11*
X80000Y-100154D03*
X80000Y-109846D03*
D12*
X-132100Y45923D03*
X-132100Y25477D03*
D13*
X-26650Y-262050D03*
X-26650Y-272950D03*
X-48550Y-262050D03*
X-48550Y-272950D03*
D14*
X-37600Y-245900D03*
X-37600Y-289100D03*
D15*
X-18045Y-241595D03*
X-18045Y-293405D03*
X-57155Y-293405D03*
X-57155Y-241595D03*
D16*
X131285Y-52846D03*
X131285Y-43154D03*
X34015Y-229331D03*
X34015Y-219639D03*
X7300Y-251446D03*
X7300Y-241754D03*
D17*
X89446Y-63900D03*
X79754Y-63900D03*
X332746Y113600D03*
X323054Y113600D03*
X-144830Y4200D03*
X-135138Y4200D03*
X101646Y-95110D03*
X91954Y-95110D03*
X117662Y-124600D03*
X107970Y-124600D03*
X154746Y-139800D03*
X145054Y-139800D03*
D16*
X34000Y-207446D03*
X34000Y-197754D03*
D17*
X-35646Y127600D03*
X-25954Y127600D03*
D18*
X-35875Y110245D03*
X-25725Y110245D03*
D19*
X91500Y265125D03*
X91500Y275275D03*
X-19300Y315125D03*
X-19300Y325275D03*
X5675Y315125D03*
X5675Y325275D03*
X31600Y315125D03*
X31600Y325275D03*
X-14100Y96625D03*
X-14100Y106775D03*
D18*
X-116625Y242700D03*
X-126775Y242700D03*
X-114925Y217700D03*
X-125075Y217700D03*
X-115725Y295200D03*
X-125875Y295200D03*
X-126575Y321700D03*
X-116425Y321700D03*
X-46825Y-219900D03*
X-56975Y-219900D03*
X-34975Y94200D03*
X-24825Y94200D03*
X-55775Y126700D03*
X-45625Y126700D03*
X-47225Y144200D03*
X-57375Y144200D03*
D19*
X-237100Y625D03*
X-237100Y10775D03*
D18*
X90605Y-80395D03*
X100755Y-80395D03*
X102175Y-110000D03*
X92025Y-110000D03*
D20*
X-276200Y-200D03*
X-311200Y-200D03*
D21*
X104700Y334300D03*
X104700Y299300D03*
D22*
X-2894Y48570D03*
X2107Y48570D03*
X7107Y48570D03*
X12107Y48570D03*
D23*
X16291Y56444D03*
D22*
X12107Y64318D03*
X7107Y64318D03*
X2107Y64318D03*
X-2894Y64318D03*
D23*
X-7078Y56444D03*
D24*
X30400Y186300D02*
X30400Y189900D01*
X25400Y189900D02*
X25400Y186300D01*
X20400Y186300D02*
X20400Y189900D01*
X15400Y189900D02*
X15400Y186300D01*
X10400Y186300D02*
X10400Y189900D01*
X5400Y189900D02*
X5400Y186300D01*
X400Y186300D02*
X400Y189900D01*
X-4600Y189900D02*
X-4600Y186300D01*
X-9300Y181600D02*
X-12900Y181600D01*
X-12900Y176600D02*
X-9300Y176600D01*
X-9300Y171600D02*
X-12900Y171600D01*
X-12900Y166600D02*
X-9300Y166600D01*
X-9300Y161600D02*
X-12900Y161600D01*
X-12900Y156600D02*
X-9300Y156600D01*
X-9300Y151600D02*
X-12900Y151600D01*
X-12900Y146600D02*
X-9300Y146600D01*
X-4600Y141900D02*
X-4600Y138300D01*
X400Y138300D02*
X400Y141900D01*
X5400Y141900D02*
X5400Y138300D01*
X10400Y138300D02*
X10400Y141900D01*
X15400Y141900D02*
X15400Y138300D01*
X20400Y138300D02*
X20400Y141900D01*
X25400Y141900D02*
X25400Y138300D01*
X30400Y138300D02*
X30400Y141900D01*
X35100Y146600D02*
X38700Y146600D01*
X38700Y151600D02*
X35100Y151600D01*
X35100Y156600D02*
X38700Y156600D01*
X38700Y161600D02*
X35100Y161600D01*
X35100Y166600D02*
X38700Y166600D01*
X38700Y171600D02*
X35100Y171600D01*
X35100Y176600D02*
X38700Y176600D01*
X38700Y181600D02*
X35100Y181600D01*
D25*
X125320Y-103250D03*
X131820Y-103250D03*
X138320Y-103250D03*
X144820Y-103250D03*
D26*
X153320Y-94750D03*
X153320Y-88250D03*
X153320Y-81750D03*
X153320Y-75250D03*
D25*
X144820Y-66750D03*
X138320Y-66750D03*
X131820Y-66750D03*
X125320Y-66750D03*
D26*
X116820Y-75250D03*
X116820Y-81750D03*
X116820Y-88250D03*
X116820Y-94750D03*
D27*
X95122Y184100D03*
X95122Y224100D03*
X71122Y224100D03*
X71122Y184100D03*
D19*
X-196600Y13875D03*
X-196600Y3725D03*
D13*
X-6550Y7950D03*
X-6550Y-2950D03*
X-28450Y7950D03*
X-28450Y-2950D03*
D14*
X-17500Y24100D03*
X-17500Y-19100D03*
D15*
X2055Y28405D03*
X2055Y-23405D03*
X-37055Y-23405D03*
X-37055Y28405D03*
D19*
X-55000Y14925D03*
X-55000Y25075D03*
D18*
X32575Y-242500D03*
X22425Y-242500D03*
D19*
X50000Y184925D03*
X50000Y195075D03*
D28*
X-37500Y-330000D03*
D29*
X-65750Y-328000D03*
X-9250Y-328000D03*
D28*
X-42500Y-85000D03*
D29*
X-70750Y-83000D03*
X-14250Y-83000D03*
D30*
X-135150Y-60004D03*
X-135150Y-72704D03*
X-135150Y-85404D03*
X-135150Y-98104D03*
X-135150Y-110804D03*
X-194850Y-110804D03*
X-194850Y-98104D03*
X-194850Y-85404D03*
X-194850Y-72704D03*
X-194850Y-60004D03*
D31*
X-165000Y-85404D03*
D32*
X-322500Y-55000D03*
D33*
X-320500Y-26750D03*
X-320500Y-83250D03*
D19*
X-105000Y-99925D03*
X-105000Y-110075D03*
D34*
X152851Y127500D03*
D35*
X137312Y127500D03*
M02*
