G04 EAGLE Gerber RS-274X export*
G75*
%MOMM*%
%FSLAX34Y34*%
%LPD*%
%INSoldermask Top*%
%IPPOS*%
%AMOC8*
5,1,8,0,0,1.08239X$1,22.5*%
G01*
G04 Define Apertures*
%ADD10R,0.763200X0.832300*%
%ADD11R,0.832300X0.763200*%
%ADD12R,0.660400X1.562100*%
%ADD13R,1.067200X1.067200*%
%ADD14C,1.727200*%
%ADD15R,0.932300X0.763200*%
%ADD16R,0.763200X0.932300*%
%ADD17R,0.738300X0.847200*%
%ADD18R,0.847200X0.738300*%
%ADD19R,1.003200X2.003200*%
%ADD20R,2.003200X1.003200*%
%ADD21R,0.508000X0.939800*%
%ADD22R,0.939800X0.558800*%
%ADD23C,0.443200*%
%ADD24R,3.653200X3.653200*%
%ADD25C,0.914400*%
%ADD26R,0.503200X0.953200*%
%ADD27R,0.953200X0.503200*%
%ADD28R,2.303200X2.303200*%
%ADD29R,1.403200X2.003200*%
%ADD30C,3.919200*%
%ADD31C,2.603200*%
%ADD32R,1.473200X3.803200*%
%ADD33R,1.553200X4.403200*%
%ADD34R,2.613200X0.963200*%
%ADD35R,2.743200X6.043200*%
%ADD36R,3.803200X1.473200*%
%ADD37R,4.403200X1.553200*%
%ADD38R,1.103200X1.173400*%
%ADD39R,1.135800X1.173400*%
%ADD40C,0.959600*%
G36*
X-45210Y-281460D02*
X-62480Y-281460D01*
X-62480Y-253540D01*
X-45210Y-253540D01*
X-45210Y-236270D01*
X-29990Y-236270D01*
X-29990Y-253540D01*
X-12720Y-253540D01*
X-12720Y-281460D01*
X-29990Y-281460D01*
X-29990Y-298730D01*
X-45210Y-298730D01*
X-45210Y-281460D01*
G37*
G36*
X-25110Y-11460D02*
X-42380Y-11460D01*
X-42380Y16460D01*
X-25110Y16460D01*
X-25110Y33730D01*
X-9890Y33730D01*
X-9890Y16460D01*
X7380Y16460D01*
X7380Y-11460D01*
X-9890Y-11460D01*
X-9890Y-28730D01*
X-25110Y-28730D01*
X-25110Y-11460D01*
G37*
D10*
X139346Y-30300D03*
X129654Y-30300D03*
D11*
X131000Y-132046D03*
X131000Y-122354D03*
X167800Y-115554D03*
X167800Y-125246D03*
X64016Y-135046D03*
X64016Y-125354D03*
X79677Y-133162D03*
X79677Y-123470D03*
X96000Y-133546D03*
X96000Y-123854D03*
D10*
X57746Y-193700D03*
X48054Y-193700D03*
X-28754Y170200D03*
X-38446Y170200D03*
X-24554Y145200D03*
X-34246Y145200D03*
D11*
X37300Y115276D03*
X37300Y105584D03*
X166600Y-96654D03*
X166600Y-106346D03*
X11500Y212854D03*
X11500Y222546D03*
D10*
X40854Y207700D03*
X50546Y207700D03*
G36*
X114069Y158522D02*
X114136Y150891D01*
X105815Y150818D01*
X105748Y158449D01*
X114069Y158522D01*
G37*
G36*
X113985Y168214D02*
X114052Y160583D01*
X105731Y160510D01*
X105664Y168141D01*
X113985Y168214D01*
G37*
D11*
X79100Y147546D03*
X79100Y137854D03*
X65800Y122546D03*
X65800Y112854D03*
D10*
X-47654Y160200D03*
X-57346Y160200D03*
X57354Y136700D03*
X67046Y136700D03*
X56554Y164200D03*
X66246Y164200D03*
D11*
X20600Y116546D03*
X20600Y106854D03*
X-3069Y212023D03*
X-3069Y221715D03*
X101408Y-53654D03*
X101408Y-63346D03*
X-13700Y116854D03*
X-13700Y126546D03*
D10*
X-54346Y111700D03*
X-44654Y111700D03*
D11*
X-67800Y116854D03*
X-67800Y126546D03*
X-84600Y115854D03*
X-84600Y125546D03*
X110792Y196854D03*
X110792Y206546D03*
D10*
X87946Y244200D03*
X78254Y244200D03*
X57146Y-210000D03*
X47454Y-210000D03*
X59046Y-227500D03*
X49354Y-227500D03*
D11*
X152300Y150646D03*
X152300Y140954D03*
X334600Y91654D03*
X334600Y101346D03*
X52200Y98354D03*
X52200Y108046D03*
X136900Y152146D03*
X136900Y142454D03*
X319477Y90931D03*
X319477Y100623D03*
X-196800Y-5554D03*
X-196800Y-15246D03*
X-254700Y9446D03*
X-254700Y-246D03*
D10*
X99054Y285700D03*
X108746Y285700D03*
D11*
X80000Y-100154D03*
X80000Y-109846D03*
D12*
X-132100Y45923D03*
X-132100Y25477D03*
D13*
X-18045Y-241595D03*
X-18045Y-293405D03*
X-57155Y-293405D03*
X-57155Y-241595D03*
D14*
X-18200Y280426D02*
X-18200Y295666D01*
X7200Y295666D02*
X7200Y280426D01*
X32600Y280426D02*
X32600Y295666D01*
X140894Y284714D02*
X156134Y284714D01*
X156134Y259314D02*
X140894Y259314D01*
D15*
X131285Y-52846D03*
X131285Y-43154D03*
X34015Y-229331D03*
X34015Y-219639D03*
X7300Y-251446D03*
X7300Y-241754D03*
D16*
X89446Y-63900D03*
X79754Y-63900D03*
X332746Y113600D03*
X323054Y113600D03*
X-144830Y4200D03*
X-135138Y4200D03*
X101646Y-95110D03*
X91954Y-95110D03*
X117662Y-124600D03*
X107970Y-124600D03*
X154746Y-139800D03*
X145054Y-139800D03*
D15*
X34000Y-207446D03*
X34000Y-197754D03*
D16*
X-35646Y127600D03*
X-25954Y127600D03*
D17*
X-35875Y110245D03*
X-25725Y110245D03*
D18*
X91500Y265125D03*
X91500Y275275D03*
X-19300Y315125D03*
X-19300Y325275D03*
X5675Y315125D03*
X5675Y325275D03*
X31600Y315125D03*
X31600Y325275D03*
X-14100Y96625D03*
X-14100Y106775D03*
D17*
X-116625Y242700D03*
X-126775Y242700D03*
X-114925Y217700D03*
X-125075Y217700D03*
X-115725Y295200D03*
X-125875Y295200D03*
X-126575Y321700D03*
X-116425Y321700D03*
X-46825Y-219900D03*
X-56975Y-219900D03*
X-34975Y94200D03*
X-24825Y94200D03*
X-55775Y126700D03*
X-45625Y126700D03*
X-47225Y144200D03*
X-57375Y144200D03*
D18*
X-237100Y625D03*
X-237100Y10775D03*
D17*
X90605Y-80395D03*
X100755Y-80395D03*
X102175Y-110000D03*
X92025Y-110000D03*
D19*
X-276200Y-200D03*
X-311200Y-200D03*
D20*
X104700Y334300D03*
X104700Y299300D03*
D21*
X-2894Y48570D03*
X2107Y48570D03*
X7107Y48570D03*
X12107Y48570D03*
D22*
X16291Y56444D03*
D21*
X12107Y64318D03*
X7107Y64318D03*
X2107Y64318D03*
X-2894Y64318D03*
D22*
X-7078Y56444D03*
D23*
X30400Y186300D02*
X30400Y189900D01*
X25400Y189900D02*
X25400Y186300D01*
X20400Y186300D02*
X20400Y189900D01*
X15400Y189900D02*
X15400Y186300D01*
X10400Y186300D02*
X10400Y189900D01*
X5400Y189900D02*
X5400Y186300D01*
X400Y186300D02*
X400Y189900D01*
X-4600Y189900D02*
X-4600Y186300D01*
X-9300Y181600D02*
X-12900Y181600D01*
X-12900Y176600D02*
X-9300Y176600D01*
X-9300Y171600D02*
X-12900Y171600D01*
X-12900Y166600D02*
X-9300Y166600D01*
X-9300Y161600D02*
X-12900Y161600D01*
X-12900Y156600D02*
X-9300Y156600D01*
X-9300Y151600D02*
X-12900Y151600D01*
X-12900Y146600D02*
X-9300Y146600D01*
X-4600Y141900D02*
X-4600Y138300D01*
X400Y138300D02*
X400Y141900D01*
X5400Y141900D02*
X5400Y138300D01*
X10400Y138300D02*
X10400Y141900D01*
X15400Y141900D02*
X15400Y138300D01*
X20400Y138300D02*
X20400Y141900D01*
X25400Y141900D02*
X25400Y138300D01*
X30400Y138300D02*
X30400Y141900D01*
X35100Y146600D02*
X38700Y146600D01*
X38700Y151600D02*
X35100Y151600D01*
X35100Y156600D02*
X38700Y156600D01*
X38700Y161600D02*
X35100Y161600D01*
X35100Y166600D02*
X38700Y166600D01*
X38700Y171600D02*
X35100Y171600D01*
X35100Y176600D02*
X38700Y176600D01*
X38700Y181600D02*
X35100Y181600D01*
D24*
X12900Y164100D03*
D25*
X27650Y164100D03*
X12900Y178850D03*
X12900Y164100D03*
X12900Y149350D03*
X-1850Y164100D03*
D19*
X-162800Y158583D03*
X-173800Y158583D03*
X-184800Y158583D03*
X-195800Y158583D03*
X-206800Y158583D03*
X-236800Y158583D03*
X-247800Y158583D03*
X-258800Y158583D03*
X-269800Y158583D03*
X-280800Y158583D03*
X-291800Y158583D03*
X-302800Y158583D03*
X-162800Y38583D03*
X-173800Y38583D03*
X-184800Y38583D03*
X-195800Y38583D03*
X-206800Y38583D03*
X-236800Y38583D03*
X-247800Y38583D03*
X-258800Y38583D03*
X-269800Y38583D03*
X-280800Y38583D03*
X-291800Y38583D03*
X-302800Y38583D03*
D26*
X125320Y-103250D03*
X131820Y-103250D03*
X138320Y-103250D03*
X144820Y-103250D03*
D27*
X153320Y-94750D03*
X153320Y-88250D03*
X153320Y-81750D03*
X153320Y-75250D03*
D26*
X144820Y-66750D03*
X138320Y-66750D03*
X131820Y-66750D03*
X125320Y-66750D03*
D27*
X116820Y-75250D03*
X116820Y-81750D03*
X116820Y-88250D03*
X116820Y-94750D03*
D28*
X135070Y-85000D03*
D25*
X135070Y-77000D03*
X135070Y-93000D03*
X143070Y-85000D03*
X127070Y-85000D03*
D29*
X95122Y184100D03*
X95122Y224100D03*
X71122Y224100D03*
X71122Y184100D03*
D18*
X-196600Y13875D03*
X-196600Y3725D03*
D30*
X215900Y215900D03*
X-215900Y215900D03*
X-215900Y-215900D03*
X215900Y-215900D03*
D13*
X2055Y28405D03*
X2055Y-23405D03*
X-37055Y-23405D03*
X-37055Y28405D03*
D18*
X-55000Y14925D03*
X-55000Y25075D03*
D14*
X-72380Y242700D02*
X-87620Y242700D01*
X-87620Y217300D02*
X-72380Y217300D01*
X-72380Y297300D02*
X-87620Y297300D01*
X-87620Y322700D02*
X-72380Y322700D01*
X282380Y139700D02*
X297620Y139700D01*
X297620Y114300D02*
X282380Y114300D01*
X282380Y88900D02*
X297620Y88900D01*
X297620Y63500D02*
X282380Y63500D01*
X282380Y38100D02*
X297620Y38100D01*
X297620Y12700D02*
X282380Y12700D01*
X282380Y-12700D02*
X297620Y-12700D01*
X297620Y-38100D02*
X282380Y-38100D01*
X282380Y-63500D02*
X297620Y-63500D01*
X297620Y-88900D02*
X282380Y-88900D01*
X282380Y-114300D02*
X297620Y-114300D01*
X297620Y-139700D02*
X282380Y-139700D01*
D17*
X32575Y-242500D03*
X22425Y-242500D03*
D18*
X50000Y184925D03*
X50000Y195075D03*
D31*
X-272500Y-140000D03*
X-297900Y-114600D03*
X-247100Y-114600D03*
X-247100Y-165400D03*
X-297900Y-165400D03*
X130000Y-280000D03*
X104600Y-305400D03*
X104600Y-254600D03*
X155400Y-254600D03*
X155400Y-305400D03*
D32*
X-37500Y-330000D03*
D33*
X-65750Y-328000D03*
X-9250Y-328000D03*
D32*
X-42500Y-85000D03*
D33*
X-70750Y-83000D03*
X-14250Y-83000D03*
D34*
X-135150Y-60004D03*
X-135150Y-72704D03*
X-135150Y-85404D03*
X-135150Y-98104D03*
X-135150Y-110804D03*
X-194850Y-110804D03*
X-194850Y-98104D03*
X-194850Y-85404D03*
X-194850Y-72704D03*
X-194850Y-60004D03*
D35*
X-165000Y-85404D03*
D36*
X-322500Y-55000D03*
D37*
X-320500Y-26750D03*
X-320500Y-83250D03*
D18*
X-105000Y-99925D03*
X-105000Y-110075D03*
D38*
X152851Y127500D03*
D39*
X137312Y127500D03*
D40*
X-52500Y-45000D03*
X30000Y50000D03*
X55000Y50000D03*
X75000Y50000D03*
X102500Y135000D03*
X-23041Y-45541D03*
X-75000Y152500D03*
X147500Y-122500D03*
X147500Y222500D03*
X65000Y-85000D03*
X12500Y-185000D03*
X12500Y-207500D03*
X-150000Y217500D03*
X-127500Y265000D03*
X-140000Y142500D03*
X-20000Y342500D03*
X172500Y37500D03*
X-140000Y97500D03*
X5000Y347500D03*
X-35000Y192500D03*
X-2500Y240000D03*
X30000Y352500D03*
X65000Y-110000D03*
X65000Y-65000D03*
X330000Y70000D03*
X190000Y-100000D03*
X-65000Y172500D03*
X85000Y122500D03*
X25000Y90000D03*
X37500Y260000D03*
X130000Y167500D03*
X-112500Y97500D03*
X-140000Y282500D03*
X33554Y226446D03*
X-150000Y242500D03*
X60000Y75000D03*
X-140000Y120000D03*
X210000Y75000D03*
X172500Y12500D03*
X-47500Y77500D03*
X102500Y97500D03*
X-25000Y50000D03*
X22500Y240000D03*
M02*
